{"glyphs":{"0":{"ha":876,"x_min":68,"x_max":808,"o":"m 438 978 q 656 929 575 978 q 773 772 738 881 q 808 479 808 663 q 773 187 808 296 q 656 29 738 78 q 438 -19 575 -19 q 219 29 300 -19 q 103 187 138 78 q 68 479 68 296 q 103 772 68 663 q 219 929 138 881 q 438 978 300 978 m 436 811 q 360 796 390 811 q 311 744 329 781 q 285 644 293 708 q 278 479 278 579 q 285 315 278 381 q 311 214 293 250 q 360 163 329 178 q 436 147 390 147 q 515 163 483 147 q 565 214 546 178 q 591 315 583 250 q 599 479 599 381 q 591 644 599 579 q 565 744 583 708 q 515 796 546 781 q 436 811 483 811 z "},"1":{"ha":600,"x_min":17,"x_max":472,"o":"m 472 958 l 472 0 l 261 0 l 261 679 q 263 731 261 706 q 269 783 264 757 l 42 725 l 17 863 l 261 958 l 472 958 z "},"2":{"ha":807,"x_min":61,"x_max":747,"o":"m 394 975 q 567 958 494 975 q 679 892 639 940 q 719 751 719 843 q 706 651 719 697 q 659 554 693 604 q 561 436 625 504 l 310 176 q 380 184 344 182 q 451 186 415 186 l 747 186 l 747 0 l 61 0 l 61 114 q 68 160 61 139 q 90 200 75 182 l 329 456 q 459 611 414 543 q 503 729 504 679 q 487 774 501 760 q 443 792 472 788 q 371 796 414 796 q 280 795 322 796 q 190 792 238 794 q 78 783 142 789 l 69 942 q 192 964 138 957 q 297 973 247 971 q 394 975 346 975 z "},"3":{"ha":788,"x_min":56,"x_max":719,"o":"m 378 978 q 560 958 492 978 q 660 889 629 938 q 692 754 692 840 q 679 637 692 688 q 635 554 667 586 q 543 513 603 522 l 543 507 q 679 432 642 492 q 718 267 717 372 q 688 103 719 167 q 583 10 656 40 q 388 -19 510 -19 q 219 -12 304 -19 q 56 7 135 -4 l 64 163 q 163 156 119 158 q 247 153 207 154 q 329 151 288 151 q 436 163 397 151 q 492 206 475 175 q 508 294 508 238 q 497 369 508 339 q 453 415 485 399 q 360 429 421 431 l 178 428 l 178 568 l 360 568 q 432 578 406 568 q 472 606 458 589 q 489 647 485 624 q 493 699 493 671 q 478 768 492 744 q 433 800 465 792 q 342 808 400 808 q 202 806 269 808 q 83 803 135 804 l 74 951 q 227 972 151 965 q 378 978 303 978 z "},"4":{"ha":885,"x_min":28,"x_max":843,"o":"m 494 958 l 264 407 q 264 373 254 385 q 293 361 274 361 l 843 361 l 843 235 l 725 214 l 140 214 q 74 235 101 214 q 37 291 46 257 q 43 360 28 325 l 294 958 l 494 958 m 726 772 l 726 0 l 531 0 l 531 619 l 565 772 l 726 772 z "},"5":{"ha":767,"x_min":53,"x_max":710,"o":"m 681 958 l 674 799 l 275 799 l 264 618 l 404 603 q 551 569 492 594 q 644 504 610 544 q 694 411 679 464 q 710 293 710 358 q 694 174 710 231 q 642 75 679 118 q 540 8 606 32 q 374 -17 475 -17 q 223 -9 307 -17 q 53 13 139 -1 l 72 175 q 205 163 140 168 q 319 158 269 158 q 431 174 393 158 q 483 220 468 189 q 500 299 497 251 q 490 372 501 344 q 451 414 478 399 q 380 435 424 429 q 272 446 336 442 l 153 460 q 106 484 124 464 q 89 533 88 504 l 113 958 l 681 958 z "},"6":{"ha":819,"x_min":69,"x_max":764,"o":"m 474 975 q 571 972 508 975 q 701 949 633 968 l 690 815 q 624 817 654 817 q 558 818 593 818 q 474 818 524 818 q 373 805 413 818 q 312 754 333 792 q 283 644 290 717 q 275 453 275 571 q 279 296 275 357 q 298 201 283 235 q 343 153 313 167 q 428 140 374 140 q 519 160 490 140 q 557 219 549 179 q 565 322 565 260 q 554 418 565 383 q 513 467 543 453 q 429 481 483 481 q 358 471 390 481 q 288 438 325 461 q 197 374 251 415 l 192 454 q 279 562 238 524 q 371 615 321 600 q 490 629 421 629 q 656 599 597 629 q 740 502 715 568 q 764 326 764 436 q 751 177 764 242 q 701 69 738 113 q 598 5 664 26 q 425 -17 532 -17 q 251 6 321 -17 q 142 81 182 28 q 86 228 103 135 q 69 464 69 322 q 94 732 69 631 q 169 886 119 833 q 296 957 219 939 q 474 975 372 975 z "},"7":{"ha":733,"x_min":36,"x_max":713,"o":"m 615 958 q 673 943 650 958 q 704 903 696 928 q 701 846 713 878 l 408 0 l 200 0 l 444 696 q 463 742 453 719 q 486 786 472 764 l 46 786 l 36 958 l 615 958 z "},"8":{"ha":865,"x_min":74,"x_max":793,"o":"m 433 975 q 603 960 538 975 q 705 914 668 944 q 756 835 742 883 q 769 719 769 786 q 755 616 769 664 q 709 537 740 568 q 626 500 678 506 l 626 494 q 729 453 693 489 q 779 363 765 418 q 793 239 793 307 q 764 90 793 147 q 657 8 735 33 q 433 -17 579 -17 q 213 8 290 -17 q 104 90 135 33 q 74 239 74 147 q 88 363 74 307 q 138 453 101 418 q 240 494 174 489 l 240 500 q 157 537 189 506 q 110 616 125 568 q 96 719 96 664 q 110 835 96 786 q 162 914 125 883 q 265 960 199 944 q 433 975 331 975 m 436 426 q 354 420 386 426 q 304 398 322 414 q 279 353 286 382 q 272 279 272 325 q 285 196 272 226 q 334 153 299 165 q 435 142 369 142 q 533 153 499 142 q 579 196 567 165 q 592 279 592 226 q 585 353 592 325 q 561 398 578 382 q 514 420 544 414 q 436 426 483 426 m 435 828 q 344 817 375 828 q 300 776 313 806 q 288 693 288 747 q 300 615 288 642 q 345 578 313 588 q 438 568 378 568 q 528 578 497 568 q 569 616 558 589 q 579 693 579 643 q 568 776 579 747 q 526 817 557 806 q 435 828 494 828 z "},"9":{"ha":819,"x_min":57,"x_max":747,"o":"m 397 975 q 577 952 508 975 q 683 875 646 929 q 733 727 719 821 q 747 489 747 633 q 725 226 747 326 q 656 74 703 126 q 531 2 608 21 q 344 -17 454 -17 q 241 -13 307 -17 q 99 10 175 -10 l 110 144 q 181 142 150 143 q 250 142 213 142 q 344 142 288 142 q 446 157 407 142 q 506 212 485 172 q 535 322 528 251 q 543 500 543 392 q 540 660 543 597 q 522 757 536 722 q 478 805 508 792 q 396 818 449 818 q 305 799 335 818 q 266 738 275 779 q 257 635 257 697 q 268 544 257 579 q 308 492 279 508 q 390 476 338 476 q 460 487 429 476 q 528 521 492 497 q 619 585 565 544 l 625 504 q 537 397 579 435 q 446 344 494 358 q 328 329 397 329 q 165 367 224 329 q 81 474 106 406 q 57 631 57 542 q 87 826 57 750 q 191 938 117 901 q 397 975 265 975 z "}," ":{"ha":300,"x_min":0,"x_max":0,"o":""},"A":{"ha":907,"x_min":0,"x_max":906,"o":"m 554 958 q 601 943 581 958 q 628 903 621 928 l 906 0 l 689 0 l 493 704 q 482 752 488 728 q 472 799 476 776 l 435 799 q 426 752 431 776 q 414 704 421 728 l 218 0 l 0 0 l 279 903 q 306 943 286 928 q 353 958 326 958 l 554 958 m 701 413 l 701 253 l 204 253 l 204 413 l 701 413 z "},"B":{"ha":889,"x_min":96,"x_max":831,"o":"m 460 969 q 659 948 585 969 q 767 872 733 926 q 800 719 800 818 q 760 563 800 617 q 631 501 721 510 l 631 493 q 786 419 742 483 q 831 239 831 354 q 797 86 831 140 q 691 10 763 32 q 504 -11 619 -11 q 342 -10 411 -11 q 215 -7 274 -10 q 96 0 157 -4 l 117 147 q 245 144 150 146 q 467 143 340 143 q 558 154 525 143 q 605 195 592 165 q 618 281 618 225 q 604 372 618 340 q 556 415 590 403 q 463 429 522 428 l 115 429 l 115 564 l 460 564 q 541 575 511 565 q 583 613 571 585 q 596 690 596 640 q 583 769 596 742 q 538 806 569 796 q 449 815 506 815 q 311 815 371 815 q 204 815 251 815 q 117 811 157 814 l 96 958 q 203 966 151 964 q 317 969 256 968 q 460 969 378 969 m 304 958 l 304 0 l 96 0 l 96 958 l 304 958 z "},"C":{"ha":817,"x_min":64,"x_max":779,"o":"m 471 975 q 587 972 539 975 q 675 961 635 968 q 758 942 715 954 l 742 786 q 658 790 696 789 q 576 792 619 792 q 471 793 532 793 q 360 765 400 793 q 304 669 321 738 q 288 479 288 600 q 304 290 288 358 q 360 193 321 221 q 471 165 400 165 q 632 168 567 165 q 761 178 697 171 l 779 22 q 643 -8 713 1 q 471 -17 574 -17 q 233 31 322 -17 q 103 188 143 79 q 64 479 64 296 q 103 771 64 663 q 233 927 143 879 q 471 975 322 975 z "},"D":{"ha":949,"x_min":96,"x_max":883,"o":"m 472 972 q 665 948 586 972 q 791 868 743 924 q 861 717 839 813 q 883 479 883 622 q 861 241 883 336 q 791 90 839 146 q 665 10 743 35 q 472 -14 586 -14 q 271 -10 363 -14 q 96 0 179 -6 l 185 157 q 310 152 238 154 q 472 150 383 150 q 584 178 543 150 q 642 279 625 207 q 660 479 660 351 q 642 679 660 607 q 584 781 625 751 q 472 810 543 810 q 321 809 388 810 q 190 808 254 808 l 96 958 q 270 968 179 964 q 472 972 361 972 m 308 958 l 308 0 l 96 0 l 96 958 l 308 958 z "},"E":{"ha":803,"x_min":89,"x_max":749,"o":"m 293 963 q 450 962 371 963 q 606 958 529 961 q 749 949 682 956 l 739 794 l 371 794 q 319 776 336 794 q 301 724 301 758 l 301 235 q 319 182 301 200 q 371 164 336 164 l 739 164 l 749 10 q 606 1 682 4 q 450 -3 529 -3 q 293 -4 371 -4 q 145 49 201 -4 q 89 189 89 103 l 89 769 q 145 910 89 857 q 293 963 201 963 m 114 574 l 688 574 l 688 424 l 114 424 l 114 574 z "},"F":{"ha":774,"x_min":93,"x_max":740,"o":"m 300 963 q 451 962 374 963 q 602 958 528 961 q 740 947 676 954 l 729 794 l 382 794 q 325 776 344 794 q 306 724 306 758 l 306 0 l 93 0 l 93 767 q 150 909 93 856 q 300 963 207 963 m 118 557 l 678 557 l 678 407 l 118 407 l 118 557 z "},"G":{"ha":900,"x_min":65,"x_max":828,"o":"m 492 978 q 606 974 554 978 q 703 963 657 969 q 794 942 750 956 l 778 788 q 683 792 729 790 q 592 794 638 793 q 496 794 546 794 q 397 782 436 794 q 333 735 357 769 q 299 638 310 701 q 289 476 289 575 q 304 289 289 357 q 356 192 319 221 q 453 164 392 164 q 529 172 494 164 q 593 195 564 181 q 647 224 622 210 l 669 124 q 608 61 649 94 q 508 4 567 28 q 375 -19 450 -19 q 198 32 267 -19 q 97 194 129 83 q 65 481 65 304 q 106 776 65 668 q 241 931 147 885 q 492 978 335 978 m 828 553 l 828 0 l 671 0 l 642 146 l 622 185 l 622 553 l 828 553 z "},"H":{"ha":960,"x_min":97,"x_max":863,"o":"m 310 958 l 310 0 l 97 0 l 97 958 l 310 958 m 665 590 l 665 431 l 299 431 l 299 590 l 665 590 m 863 958 l 863 0 l 650 0 l 650 958 l 863 958 z "},"I":{"ha":406,"x_min":97,"x_max":308,"o":"m 308 958 l 308 0 l 97 0 l 97 958 l 308 958 z "},"J":{"ha":517,"x_min":28,"x_max":424,"o":"m 424 958 l 424 189 q 366 36 424 89 q 204 -17 308 -17 q 145 -13 179 -17 q 79 -3 111 -10 q 28 11 47 3 l 50 149 l 118 149 q 213 226 213 149 l 213 958 l 424 958 z "},"K":{"ha":881,"x_min":97,"x_max":874,"o":"m 857 958 l 607 572 q 574 529 592 547 q 538 499 556 511 l 538 494 q 579 461 557 483 q 615 414 601 439 l 874 0 l 636 0 l 340 501 l 628 958 l 857 958 m 308 958 l 308 688 q 301 594 308 640 q 279 503 294 547 q 299 415 290 460 q 308 331 308 369 l 308 0 l 97 0 l 97 958 l 308 958 m 417 572 l 417 425 l 244 425 l 244 572 l 417 572 z "},"L":{"ha":744,"x_min":93,"x_max":725,"o":"m 306 958 l 306 242 q 325 189 306 207 q 381 171 344 171 l 715 171 l 725 11 q 519 -2 626 0 q 304 -4 411 -4 q 147 52 200 -4 q 93 196 93 108 l 93 958 l 306 958 z "},"M":{"ha":1271,"x_min":78,"x_max":1192,"o":"m 1078 958 q 1156 881 1153 958 l 1192 0 l 996 0 l 964 794 l 939 794 l 785 197 q 701 131 772 131 l 568 131 q 482 197 497 131 l 328 794 l 304 794 l 275 0 l 78 0 l 114 881 q 193 958 117 958 l 392 958 q 475 890 460 958 l 599 408 q 613 341 607 375 q 625 272 618 307 l 643 272 q 656 341 650 307 q 669 410 663 375 l 792 890 q 875 958 806 958 l 1078 958 z "},"N":{"ha":1003,"x_min":96,"x_max":907,"o":"m 907 958 l 907 76 q 831 0 907 0 l 714 0 q 661 16 679 0 q 628 64 643 32 l 363 567 q 330 638 346 599 q 303 713 314 676 l 288 713 q 294 637 292 675 q 297 561 297 599 l 297 0 l 96 0 l 96 882 q 174 958 96 958 l 289 958 q 340 942 322 958 q 374 894 357 926 l 631 407 q 665 336 647 375 q 700 256 683 297 l 717 256 q 710 337 713 297 q 708 415 708 376 l 707 958 l 907 958 z "},"O":{"ha":956,"x_min":64,"x_max":890,"o":"m 478 978 q 671 953 592 978 q 798 873 750 929 q 868 720 846 817 q 890 479 890 624 q 868 238 890 335 q 798 85 846 142 q 671 5 750 29 q 478 -19 592 -19 q 285 5 364 -19 q 157 85 206 29 q 86 238 108 142 q 64 479 64 335 q 86 720 64 624 q 157 873 108 817 q 285 953 206 929 q 478 978 364 978 m 478 810 q 363 781 404 810 q 305 680 322 751 q 288 479 288 608 q 305 279 288 351 q 363 178 322 207 q 478 149 404 149 q 591 178 550 149 q 649 279 632 207 q 667 479 667 351 q 649 680 667 608 q 591 781 632 751 q 478 810 550 810 z "},"P":{"ha":858,"x_min":96,"x_max":817,"o":"m 464 972 q 675 944 599 972 q 784 849 751 917 q 817 658 817 781 q 785 468 817 536 q 683 373 754 400 q 492 346 613 346 q 367 351 428 346 q 253 365 306 357 q 163 383 200 374 q 111 400 125 392 l 115 506 q 285 506 197 506 q 460 506 374 506 q 547 519 515 507 q 591 565 578 532 q 604 658 604 599 q 591 753 604 719 q 547 799 578 786 q 460 813 515 813 q 240 811 332 813 q 117 806 149 810 l 96 958 q 206 968 154 965 q 317 972 257 971 q 464 972 378 972 m 308 958 l 308 0 l 96 0 l 96 958 l 308 958 z "},"Q":{"ha":956,"x_min":65,"x_max":890,"o":"m 478 978 q 671 953 592 978 q 799 873 750 929 q 869 720 847 817 q 890 479 890 624 q 869 238 890 335 q 799 85 847 142 q 671 5 750 29 q 478 -19 592 -19 q 285 5 364 -19 q 157 85 206 29 q 87 238 108 142 q 65 479 65 335 q 87 720 65 624 q 157 873 108 817 q 285 953 206 929 q 478 978 364 978 m 408 -47 q 603 -108 501 -85 q 821 -147 704 -131 l 765 -331 q 539 -254 640 -300 q 358 -157 438 -208 l 408 -47 m 478 810 q 364 781 406 810 q 306 680 322 751 q 289 479 289 608 q 306 279 289 351 q 364 178 322 207 q 478 149 406 149 q 591 178 550 149 q 649 279 632 207 q 667 479 667 351 q 649 680 667 608 q 591 781 632 751 q 478 810 550 810 z "},"R":{"ha":899,"x_min":96,"x_max":858,"o":"m 465 972 q 670 947 592 972 q 785 859 749 921 q 822 688 822 797 q 805 570 822 621 q 747 489 788 519 q 638 450 707 458 l 638 443 q 690 424 663 439 q 740 378 717 408 q 775 299 764 349 l 858 0 l 635 0 l 561 292 q 524 357 549 339 q 457 375 500 375 q 298 376 363 375 q 190 378 233 376 q 111 381 146 379 l 115 535 l 461 535 q 549 547 517 535 q 595 589 582 558 q 608 674 608 619 q 595 759 608 729 q 549 801 582 789 q 461 813 517 813 q 240 811 331 813 q 117 807 150 810 l 96 958 q 206 968 154 965 q 318 972 257 971 q 465 972 379 972 m 306 958 l 306 0 l 96 0 l 96 958 l 306 958 z "},"S":{"ha":814,"x_min":58,"x_max":761,"o":"m 413 976 q 567 969 483 976 q 729 938 650 961 l 715 797 q 572 800 654 799 q 411 801 490 801 q 345 799 372 801 q 301 788 318 797 q 278 761 285 779 q 271 711 271 743 q 294 640 271 663 q 372 600 317 618 l 557 540 q 717 435 672 501 q 761 260 761 368 q 742 124 761 178 q 681 39 722 69 q 571 -5 639 8 q 404 -18 503 -18 q 269 -12 357 -18 q 69 19 182 -6 l 83 169 q 226 166 165 168 q 329 163 286 164 q 404 163 372 163 q 491 169 460 163 q 535 197 522 176 q 547 257 547 218 q 538 310 547 290 q 509 342 529 331 q 454 364 489 354 l 260 431 q 104 536 150 471 q 58 708 58 601 q 78 844 58 792 q 141 925 99 896 q 251 965 183 954 q 413 976 318 976 z "},"T":{"ha":836,"x_min":24,"x_max":813,"o":"m 524 958 l 524 0 l 311 0 l 311 958 l 524 958 m 813 958 l 813 792 l 24 792 l 24 958 l 813 958 z "},"U":{"ha":953,"x_min":89,"x_max":863,"o":"m 863 958 l 863 382 q 826 148 863 236 q 708 20 790 60 q 488 -19 625 -19 q 254 20 342 -19 q 128 148 167 60 q 89 382 89 236 l 89 958 l 301 958 l 301 382 q 317 241 301 292 q 372 169 333 190 q 476 149 411 149 q 580 169 542 149 q 634 241 618 190 q 650 382 650 292 l 650 958 l 863 958 z "},"V":{"ha":889,"x_min":10,"x_max":878,"o":"m 878 958 l 617 58 q 590 17 610 33 q 542 0 569 0 l 347 0 q 298 17 318 0 q 272 58 278 33 l 10 958 l 229 958 l 404 267 q 416 213 410 240 q 426 160 422 186 l 463 160 q 473 214 467 186 q 486 268 479 242 l 660 958 l 878 958 z "},"W":{"ha":1356,"x_min":35,"x_max":1319,"o":"m 1319 958 l 1163 58 q 1138 17 1158 33 q 1088 0 1117 0 l 889 0 q 840 17 861 0 q 814 60 818 33 l 707 683 q 699 747 703 715 q 690 808 694 778 l 664 808 q 657 746 661 778 q 649 683 653 714 l 542 60 q 516 17 538 33 q 467 0 494 0 l 267 0 q 217 17 239 0 q 192 58 196 33 l 35 958 l 249 958 l 349 292 q 356 226 353 261 q 361 153 358 192 l 388 153 q 399 223 393 186 q 410 292 406 260 l 515 893 q 540 940 519 922 q 590 958 561 958 l 765 958 q 815 940 794 958 q 839 893 835 922 l 946 290 q 957 222 951 257 q 967 153 963 186 l 994 153 q 1001 222 997 186 q 1007 289 1004 258 l 1106 958 l 1319 958 z "},"X":{"ha":894,"x_min":14,"x_max":881,"o":"m 863 958 l 626 492 l 881 0 l 664 0 l 425 492 l 647 958 l 863 958 m 247 958 l 469 492 l 231 0 l 14 0 l 267 492 l 32 958 l 247 958 m 550 560 l 550 429 l 332 429 l 332 560 l 550 560 z "},"Y":{"ha":850,"x_min":0,"x_max":849,"o":"m 849 958 l 525 304 l 325 304 l 0 958 l 221 958 l 382 606 q 403 546 394 578 q 418 485 411 514 l 432 485 q 449 546 440 514 q 468 606 457 578 l 628 958 l 849 958 m 531 433 l 531 0 l 318 0 l 318 433 l 531 433 z "},"Z":{"ha":814,"x_min":53,"x_max":761,"o":"m 517 801 l 750 800 l 288 157 l 53 158 l 517 801 m 761 158 l 761 0 l 53 0 l 53 158 l 761 158 m 750 958 l 750 800 l 64 800 l 64 958 l 750 958 z "},"a":{"ha":792,"x_min":50,"x_max":714,"o":"m 446 704 q 592 681 532 704 q 683 603 651 658 q 714 453 714 549 l 714 0 l 550 0 l 521 149 l 507 169 l 507 454 q 484 525 507 503 q 397 547 461 547 q 265 544 344 547 q 103 535 186 540 l 83 671 q 199 688 133 681 q 329 699 264 694 q 446 704 394 704 m 629 422 l 628 307 l 322 306 q 269 288 285 306 q 253 239 253 269 l 253 206 q 272 152 253 171 q 335 133 292 133 q 413 149 371 133 q 497 192 456 164 q 571 257 539 219 l 571 168 q 534 116 558 147 q 472 55 510 85 q 385 4 435 25 q 271 -17 335 -17 q 158 6 208 -17 q 79 71 108 28 q 50 178 50 114 l 50 249 q 106 376 50 331 q 258 422 161 422 l 629 422 z "},"b":{"ha":825,"x_min":82,"x_max":769,"o":"m 515 704 q 710 622 651 704 q 769 349 769 539 q 755 203 769 269 q 703 87 740 136 q 601 10 667 38 q 432 -17 536 -17 q 349 -13 396 -17 q 252 -3 301 -10 q 158 13 203 3 q 82 38 114 24 l 246 156 q 304 141 272 147 q 369 133 336 135 q 428 132 403 131 q 503 152 475 133 q 544 217 532 171 q 557 347 557 264 q 547 466 557 424 q 509 526 536 508 q 433 543 482 543 q 350 524 388 543 q 267 472 313 504 l 251 569 q 329 639 288 608 q 418 687 371 669 q 515 704 465 704 m 288 972 l 289 750 q 284 659 289 703 q 267 574 279 615 l 286 556 l 288 28 l 82 38 l 82 972 l 288 972 z "},"c":{"ha":707,"x_min":56,"x_max":668,"o":"m 403 704 q 485 701 440 704 q 574 688 529 697 q 657 663 619 679 l 635 533 q 528 536 579 535 q 438 538 478 538 q 339 521 375 538 q 287 462 303 504 q 271 344 271 419 q 287 225 271 268 q 339 165 303 182 q 438 149 375 149 q 494 150 460 149 q 569 153 529 151 q 649 161 610 156 l 668 31 q 542 -6 613 6 q 401 -17 471 -17 q 198 19 274 -17 q 89 133 122 54 q 56 344 56 213 q 90 556 56 476 q 200 669 124 635 q 403 704 276 704 z "},"d":{"ha":829,"x_min":58,"x_max":744,"o":"m 318 704 q 458 683 390 704 q 576 615 525 663 l 563 521 q 478 546 515 535 q 390 557 440 557 q 321 542 347 557 q 282 482 294 526 q 269 350 269 438 q 281 226 269 268 q 319 167 293 183 q 385 151 344 151 q 447 159 421 151 q 500 183 474 167 q 560 222 526 199 l 575 121 q 467 23 533 63 q 303 -17 400 -17 q 115 78 171 -17 q 58 349 58 172 q 87 563 58 486 q 174 672 115 640 q 318 704 232 704 m 744 972 l 744 0 l 582 0 l 561 126 l 539 142 l 539 592 l 547 610 q 541 697 543 653 q 539 786 539 740 l 539 972 l 744 972 z "},"e":{"ha":783,"x_min":54,"x_max":735,"o":"m 408 704 q 658 645 582 704 q 733 469 733 586 q 686 328 735 375 q 518 282 638 282 l 135 282 l 135 397 l 461 397 q 522 417 508 397 q 535 474 535 438 q 506 541 533 522 q 415 560 479 560 q 326 544 358 560 q 282 486 294 529 q 269 361 269 443 q 285 228 269 275 q 337 164 300 182 q 439 146 374 146 q 556 149 486 146 q 697 161 626 153 l 717 35 q 625 4 676 15 q 519 -12 574 -7 q 415 -17 465 -17 q 205 22 285 -17 q 90 139 125 60 q 54 342 54 218 q 90 556 54 476 q 204 669 126 635 q 408 704 282 704 z "},"f":{"ha":561,"x_min":25,"x_max":593,"o":"m 371 1001 q 437 1000 396 1001 q 520 995 478 999 q 593 986 563 992 l 575 854 l 444 854 q 371 833 392 854 q 350 761 350 813 l 350 0 l 144 0 l 144 788 q 166 900 144 853 q 238 974 188 947 q 371 1001 288 1001 m 542 686 l 542 551 l 25 551 l 25 679 l 149 686 l 542 686 z "},"g":{"ha":807,"x_min":33,"x_max":790,"o":"m 389 704 q 578 682 508 704 q 680 613 649 660 q 711 486 711 565 q 681 362 711 410 q 578 292 650 314 q 388 269 507 269 q 197 292 268 269 q 94 361 125 314 q 63 486 63 408 q 94 612 63 564 q 197 682 125 660 q 389 704 269 704 m 388 578 q 282 558 311 578 q 253 486 253 538 q 282 414 253 435 q 388 393 311 393 q 492 414 464 393 q 519 486 519 435 q 492 558 519 538 q 388 578 464 578 m 790 686 l 779 599 l 596 575 l 546 686 l 790 686 m 181 311 l 283 293 q 256 258 264 282 q 260 214 249 235 q 308 189 271 193 l 561 160 q 714 99 669 149 q 758 -44 758 50 q 722 -181 758 -133 q 607 -247 686 -229 q 396 -265 528 -265 q 217 -255 288 -265 q 106 -221 147 -244 q 49 -159 65 -197 q 33 -64 33 -121 q 49 10 33 -21 q 101 67 64 42 q 204 113 138 92 l 306 149 l 379 119 l 324 83 q 267 41 289 58 q 237 7 246 24 q 228 -37 228 -10 q 242 -87 228 -69 q 292 -110 256 -104 q 393 -117 329 -117 q 497 -110 460 -117 q 549 -87 535 -104 q 564 -40 564 -71 q 553 -1 564 -14 q 519 17 543 11 q 451 29 494 24 l 236 53 q 151 82 182 58 q 109 140 121 106 q 103 208 97 174 q 128 271 108 243 q 181 311 149 299 z "},"h":{"ha":835,"x_min":83,"x_max":756,"o":"m 561 704 q 756 514 756 704 l 756 0 l 549 0 l 549 450 q 533 513 549 496 q 476 531 517 531 q 385 514 432 531 q 268 460 338 497 l 250 567 q 406 669 326 633 q 561 704 485 704 m 289 972 l 290 735 q 284 632 290 681 q 269 550 278 583 l 289 532 l 289 0 l 83 0 l 83 972 l 289 972 z "},"i":{"ha":383,"x_min":86,"x_max":297,"o":"m 293 686 l 293 0 l 89 0 l 89 686 l 293 686 m 236 989 q 297 926 297 989 l 297 853 q 236 790 297 790 l 147 790 q 86 853 86 790 l 86 926 q 147 989 86 989 l 236 989 z "},"j":{"ha":385,"x_min":4,"x_max":296,"o":"m 296 686 l 296 32 q 274 -90 296 -31 q 213 -196 253 -149 q 118 -272 174 -243 l 4 -183 q 71 -81 51 -131 q 90 32 90 -31 l 90 686 l 296 686 m 236 996 q 296 935 296 996 l 296 860 q 236 797 296 797 l 146 797 q 86 860 86 797 l 86 935 q 146 996 86 996 l 236 996 z "},"k":{"ha":776,"x_min":83,"x_max":771,"o":"m 747 686 l 568 447 q 536 410 556 428 q 504 383 517 392 l 504 378 q 536 349 517 371 q 568 304 556 326 l 771 0 l 542 0 l 307 386 l 518 686 l 747 686 m 289 972 l 290 571 q 285 476 290 522 q 268 386 279 431 q 283 298 278 343 q 289 214 289 253 l 289 0 l 83 0 l 83 972 l 289 972 m 385 444 l 385 319 l 225 319 l 225 444 l 385 444 z "},"l":{"ha":456,"x_min":85,"x_max":450,"o":"m 290 972 l 289 219 q 310 167 289 185 q 371 150 331 150 l 426 150 l 450 11 q 403 -3 433 3 q 340 -13 372 -10 q 286 -17 308 -17 q 139 32 193 -17 q 85 168 85 81 l 85 972 l 290 972 z "},"m":{"ha":1224,"x_min":83,"x_max":1143,"o":"m 953 704 q 1094 656 1046 704 q 1143 514 1143 607 l 1143 0 l 939 0 l 939 450 q 922 512 939 493 q 864 531 906 531 q 817 524 839 531 q 765 501 794 517 q 694 460 736 486 l 683 574 q 815 672 750 639 q 953 704 879 704 m 247 686 l 268 550 l 289 532 l 289 0 l 83 0 l 83 686 l 247 686 m 525 704 q 665 656 617 704 q 713 514 713 608 l 713 0 l 515 0 l 515 450 q 497 513 515 494 q 439 531 478 531 q 392 524 415 531 q 340 503 369 518 q 267 460 310 488 l 254 574 q 386 672 322 639 q 525 704 450 704 z "},"n":{"ha":835,"x_min":83,"x_max":756,"o":"m 561 704 q 756 514 756 704 l 756 0 l 550 0 l 550 450 q 533 513 550 496 q 476 531 517 531 q 385 513 432 531 q 268 460 338 496 l 258 575 q 409 671 332 638 q 561 704 486 704 m 249 686 l 272 550 l 289 532 l 289 0 l 83 0 l 83 686 l 249 686 z "},"o":{"ha":819,"x_min":56,"x_max":763,"o":"m 410 704 q 617 669 539 704 q 728 554 694 633 q 763 342 763 475 q 728 132 763 211 q 617 18 694 53 q 410 -17 539 -17 q 203 18 282 -17 q 90 132 125 53 q 56 342 56 211 q 90 554 56 475 q 203 669 125 633 q 410 704 282 704 m 410 554 q 326 536 357 554 q 283 472 296 518 q 271 342 271 426 q 283 213 271 258 q 326 149 296 167 q 410 132 357 132 q 493 149 463 132 q 536 213 524 167 q 549 342 549 258 q 536 472 549 426 q 493 536 524 518 q 410 554 463 554 z "},"p":{"ha":833,"x_min":83,"x_max":775,"o":"m 535 703 q 719 608 664 703 q 775 338 775 514 q 747 122 775 200 q 660 13 718 44 q 517 -18 603 -18 q 376 3 443 -18 q 258 72 310 24 l 272 164 q 356 140 318 150 q 443 129 394 129 q 514 144 488 129 q 552 205 540 160 q 564 336 564 250 q 553 466 564 421 q 517 528 542 511 q 451 546 492 546 q 369 528 407 546 q 285 479 332 511 l 258 574 q 330 640 286 611 q 426 686 374 669 q 535 703 479 703 m 250 686 l 269 561 l 289 540 l 289 94 l 282 78 q 288 -9 286 36 q 289 -99 290 -54 l 289 -264 l 83 -264 l 83 686 l 250 686 z "},"q":{"ha":825,"x_min":57,"x_max":743,"o":"m 396 704 q 477 701 431 704 q 573 691 524 697 q 667 674 622 685 q 743 651 711 664 l 578 531 q 522 545 554 539 q 456 554 489 551 q 399 556 424 557 q 321 535 350 554 q 280 469 292 517 q 268 336 268 422 q 292 192 268 233 q 385 151 315 151 q 474 169 435 151 q 561 215 514 188 l 579 126 q 504 58 547 90 q 410 4 461 25 q 303 -17 360 -17 q 115 73 172 -17 q 57 339 57 163 q 72 490 57 422 q 123 606 86 558 q 226 678 160 653 q 396 704 293 704 m 538 660 l 743 651 l 743 -264 l 538 -264 l 538 -58 q 542 33 536 -11 q 558 118 547 78 l 538 136 l 538 660 z "},"r":{"ha":593,"x_min":83,"x_max":579,"o":"m 244 686 l 269 550 l 289 532 l 289 0 l 83 0 l 83 686 l 244 686 m 579 704 l 560 514 l 503 514 q 401 500 454 514 q 268 458 349 486 l 254 574 q 400 671 326 638 q 543 704 474 704 l 579 704 z "},"s":{"ha":738,"x_min":51,"x_max":689,"o":"m 344 704 q 453 701 394 704 q 567 692 511 697 q 665 678 622 686 l 651 550 q 517 552 585 551 q 386 553 450 553 q 303 551 332 554 q 262 538 274 549 q 250 501 250 528 q 271 460 250 471 q 340 438 292 450 l 519 394 q 647 328 606 372 q 689 197 689 285 q 657 65 689 111 q 556 2 625 19 q 376 -15 486 -15 q 249 -11 333 -15 q 63 10 164 -7 l 76 138 q 140 135 101 136 q 225 135 179 135 q 317 135 271 135 q 425 138 388 135 q 476 154 463 142 q 490 192 490 167 q 467 233 490 222 q 392 257 443 244 l 218 300 q 117 346 153 318 q 66 414 81 374 q 51 510 51 454 q 80 623 51 581 q 173 685 108 665 q 344 704 238 704 z "},"t":{"ha":569,"x_min":25,"x_max":543,"o":"m 351 876 l 351 219 q 369 166 351 182 q 426 150 386 150 l 515 150 l 538 11 q 476 -3 513 3 q 404 -13 440 -10 q 343 -17 368 -17 q 198 33 250 -17 q 146 174 146 83 l 144 876 l 351 876 m 543 686 l 543 551 l 25 551 l 25 679 l 158 686 l 543 686 z "},"u":{"ha":824,"x_min":79,"x_max":739,"o":"m 285 686 l 285 235 q 303 174 285 192 q 364 156 322 156 q 449 172 407 156 q 554 222 492 188 l 571 110 q 424 13 496 44 q 275 -19 351 -19 q 79 172 79 -19 l 79 686 l 285 686 m 739 686 l 739 0 l 576 0 l 553 135 l 533 154 l 533 686 l 739 686 z "},"v":{"ha":786,"x_min":10,"x_max":775,"o":"m 775 686 l 549 49 q 523 13 540 26 q 482 0 506 0 l 303 0 q 262 13 279 0 q 236 49 244 26 l 10 686 l 228 686 l 354 257 q 369 194 363 226 q 383 133 376 163 l 401 133 q 417 195 410 164 q 433 257 425 226 l 557 686 l 775 686 z "},"w":{"ha":1181,"x_min":22,"x_max":1158,"o":"m 1158 686 l 989 54 q 964 15 983 29 q 918 0 944 0 l 763 0 q 714 17 735 0 q 689 63 693 35 l 614 449 q 607 506 610 478 q 599 564 604 535 l 582 564 q 574 506 578 535 q 565 449 569 478 l 490 63 q 465 17 486 35 q 417 0 444 0 l 263 0 q 217 15 236 0 q 192 54 197 29 l 22 686 l 229 686 l 324 242 q 333 185 329 214 q 340 129 338 157 l 358 129 q 367 185 363 157 q 376 242 372 214 l 451 624 q 475 669 456 651 q 524 686 494 686 l 657 686 q 705 669 685 686 q 729 622 725 651 l 803 242 q 813 186 807 214 q 822 129 818 158 l 839 129 q 848 185 844 158 q 857 242 851 213 l 951 686 l 1158 686 z "},"x":{"ha":788,"x_min":14,"x_max":774,"o":"m 758 686 l 560 351 l 774 0 l 565 0 l 363 351 l 550 686 l 758 686 m 238 686 l 425 351 l 224 0 l 14 0 l 228 351 l 29 686 l 238 686 m 503 418 l 503 290 l 286 290 l 286 418 l 503 418 z "},"y":{"ha":786,"x_min":10,"x_max":774,"o":"m 774 686 l 528 -8 q 481 -112 511 -60 q 406 -206 451 -164 q 298 -269 361 -247 q 149 -279 235 -290 l 133 -162 q 265 -103 218 -140 q 339 -4 313 -65 l 382 92 q 406 166 394 122 q 426 242 418 210 l 554 686 l 774 686 m 229 686 l 360 242 q 371 189 365 215 q 381 136 376 163 l 418 136 l 353 0 l 303 0 q 261 14 279 0 q 236 50 243 28 l 10 686 l 229 686 z "},"z":{"ha":731,"x_min":54,"x_max":676,"o":"m 433 544 l 669 543 l 290 140 l 54 142 l 433 544 m 676 142 l 676 0 l 54 0 l 54 142 l 676 142 m 669 686 l 669 543 l 60 543 l 60 686 l 669 686 z "},"&":{"ha":1064,"x_min":71,"x_max":1019,"o":"m 474 975 q 578 973 518 975 q 700 958 638 971 l 675 815 q 635 817 658 817 q 583 819 611 818 q 526 819 556 819 q 468 819 497 819 q 376 810 410 819 q 328 774 342 801 q 314 690 314 746 q 326 613 314 640 q 366 574 338 585 q 444 563 394 563 l 990 563 l 990 425 l 433 425 q 349 413 379 425 q 306 371 318 400 q 294 285 294 342 q 305 203 294 232 q 343 162 315 174 q 421 150 371 150 q 558 171 493 151 q 669 228 624 190 l 689 113 q 603 38 649 67 q 499 -4 557 8 q 361 -17 442 -17 q 194 8 258 -17 q 100 90 129 33 q 71 244 71 147 q 113 419 71 354 q 260 493 154 483 l 260 501 q 136 564 172 510 q 100 722 100 618 q 121 858 100 807 q 187 933 142 908 q 303 967 232 958 q 474 975 374 975 m 843 713 l 843 218 q 858 164 843 181 q 910 147 874 147 l 996 147 l 1019 11 q 962 -3 996 3 q 895 -13 928 -10 q 840 -17 863 -17 q 699 31 749 -17 q 650 161 650 78 l 650 500 l 669 713 l 843 713 z "},".":{"ha":339,"x_min":71,"x_max":268,"o":"m 196 211 q 252 195 236 211 q 268 139 268 179 l 268 72 q 252 16 268 32 q 196 0 236 0 l 143 0 q 87 16 103 0 q 71 72 71 32 l 71 139 q 87 195 71 179 q 143 211 103 211 l 196 211 z "},",":{"ha":336,"x_min":69,"x_max":263,"o":"m 190 211 q 246 195 231 211 q 263 139 261 179 l 263 50 q 253 -49 263 -4 q 229 -131 244 -93 q 192 -204 214 -168 l 108 -179 q 124 -91 119 -133 q 129 0 128 -49 q 69 64 71 0 l 72 139 q 90 195 74 179 q 144 211 106 211 l 190 211 z "},":":{"ha":357,"x_min":72,"x_max":269,"o":"m 197 626 q 253 610 238 626 q 269 554 269 594 l 269 488 q 253 431 269 447 q 197 415 238 415 l 144 415 q 88 431 104 415 q 72 488 72 447 l 72 554 q 88 610 72 594 q 144 626 104 626 l 197 626 m 197 213 q 253 197 238 213 q 269 140 269 181 l 269 74 q 253 17 269 33 q 197 1 238 1 l 144 1 q 88 17 104 1 q 72 74 72 33 l 72 140 q 88 197 72 181 q 144 213 104 213 l 197 213 z "},";":{"ha":357,"x_min":81,"x_max":278,"o":"m 207 626 q 263 610 247 626 q 279 554 279 594 l 279 488 q 263 431 279 447 q 207 415 247 415 l 154 415 q 98 431 114 415 q 82 488 82 447 l 82 554 q 98 610 82 594 q 154 626 114 626 l 207 626 m 201 211 q 257 195 242 211 q 274 139 272 179 l 274 50 q 265 -49 274 -4 q 240 -131 256 -93 q 203 -204 225 -168 l 119 -179 q 135 -91 131 -133 q 140 0 139 -49 q 81 64 82 0 l 83 139 q 101 195 85 179 q 156 211 117 211 l 201 211 z "},"…":{"ha":1229,"x_min":63,"x_max":1151,"o":"m 633 211 q 690 195 674 211 q 706 139 706 179 l 706 72 q 690 16 706 32 q 633 0 674 0 l 581 0 q 524 16 540 0 q 508 72 508 32 l 508 139 q 524 195 508 179 q 581 211 540 211 l 633 211 m 1079 211 q 1135 195 1119 211 q 1151 139 1151 179 l 1151 72 q 1135 16 1151 32 q 1079 0 1119 0 l 1026 0 q 970 16 986 0 q 954 72 954 32 l 954 139 q 970 195 954 179 q 1026 211 986 211 l 1079 211 m 188 211 q 244 195 228 211 q 260 139 260 179 l 260 72 q 244 16 260 32 q 188 0 228 0 l 135 0 q 78 16 94 0 q 63 72 63 32 l 63 139 q 78 195 63 179 q 135 211 94 211 l 188 211 z "},"¡":{"ha":394,"x_min":96,"x_max":300,"o":"m 278 400 l 300 113 l 300 -257 l 96 -257 l 96 113 l 117 400 l 278 400 m 222 704 q 278 688 263 704 q 294 631 294 672 l 294 565 q 278 508 294 524 q 222 493 263 493 l 175 493 q 117 508 133 493 q 101 565 101 524 l 101 631 q 117 688 101 672 q 175 704 133 704 l 222 704 z "},"!":{"ha":418,"x_min":107,"x_max":311,"o":"m 311 965 l 311 590 l 290 304 l 128 304 l 107 590 l 107 965 l 311 965 m 233 211 q 290 195 274 211 q 306 139 306 179 l 306 72 q 290 16 306 32 q 233 0 274 0 l 186 0 q 129 16 144 0 q 114 72 114 32 l 114 139 q 129 195 114 179 q 186 211 144 211 l 233 211 z "},"¿":{"ha":717,"x_min":42,"x_max":676,"o":"m 460 403 q 444 274 463 329 q 396 178 425 219 q 336 102 367 136 q 284 38 306 68 q 260 -26 263 7 q 286 -95 256 -74 q 389 -117 317 -117 q 503 -116 460 -117 q 585 -114 547 -115 q 669 -110 622 -112 l 676 -249 q 604 -262 636 -256 q 537 -273 572 -268 q 455 -280 501 -278 q 340 -282 408 -282 q 116 -229 190 -282 q 42 -67 42 -176 q 65 39 42 -6 q 125 120 89 83 q 198 196 161 157 q 262 283 235 235 q 294 403 289 332 l 460 403 m 401 707 q 458 691 443 707 q 474 635 474 675 l 474 567 q 458 511 474 526 q 401 496 443 496 l 354 496 q 297 511 313 496 q 282 567 282 526 l 282 635 q 297 691 282 675 q 354 707 313 707 l 401 707 z "},"?":{"ha":724,"x_min":44,"x_max":679,"o":"m 381 989 q 606 937 532 989 q 679 774 679 885 q 655 668 679 713 q 595 587 631 624 q 523 512 560 550 q 459 424 486 474 q 426 304 432 375 l 261 304 q 276 433 258 378 q 324 529 294 488 q 385 605 354 571 q 437 669 415 639 q 461 732 458 700 q 435 802 465 781 q 332 824 404 824 q 217 823 263 824 q 135 820 172 822 q 51 817 99 818 l 44 954 q 116 968 83 963 q 184 978 149 974 q 266 986 219 983 q 381 989 313 989 m 368 211 q 424 195 408 211 q 439 139 439 179 l 439 72 q 424 16 439 32 q 368 0 408 0 l 318 0 q 263 16 278 0 q 247 72 247 32 l 247 139 q 263 195 247 179 q 318 211 278 211 l 368 211 z "},"(":{"ha":508,"x_min":54,"x_max":482,"o":"m 458 1097 l 482 1007 q 306 805 358 951 q 254 435 254 658 q 277 174 254 289 q 350 -20 300 58 q 482 -139 400 -99 l 458 -229 q 151 -2 249 -162 q 54 433 54 158 q 151 871 54 710 q 458 1097 249 1032 z "},")":{"ha":508,"x_min":26,"x_max":454,"o":"m 50 1097 q 357 871 260 1032 q 454 433 454 710 q 357 -2 454 158 q 50 -229 260 -162 l 26 -139 q 158 -20 108 -99 q 231 174 208 58 q 254 435 254 289 q 202 805 254 658 q 26 1007 150 951 l 50 1097 z "},"[":{"ha":481,"x_min":106,"x_max":436,"o":"m 436 1067 l 436 939 l 324 939 q 299 913 299 939 l 299 -75 q 324 -101 299 -101 l 436 -101 l 436 -229 l 214 -229 q 135 -206 165 -229 q 106 -121 106 -182 l 106 958 q 135 1037 106 1007 q 214 1067 165 1067 l 436 1067 z "},"]":{"ha":481,"x_min":44,"x_max":375,"o":"m 267 1067 q 344 1037 314 1067 q 375 958 375 1007 l 375 -121 q 344 -199 375 -169 q 267 -229 314 -229 l 44 -229 l 44 -101 l 157 -101 q 182 -75 182 -101 l 182 913 q 157 939 182 939 l 44 939 l 44 1067 l 267 1067 z "},"{":{"ha":471,"x_min":47,"x_max":426,"o":"m 421 1067 l 421 940 q 338 924 360 940 q 315 854 315 907 l 315 644 q 305 548 317 586 q 262 488 293 510 q 172 456 231 465 q 263 415 231 439 q 308 356 294 390 q 321 272 321 321 l 321 -19 q 343 -87 321 -71 q 426 -103 365 -103 l 426 -229 q 253 -222 319 -243 q 155 -151 186 -200 q 124 -35 124 -103 l 124 296 q 116 345 124 329 q 92 369 108 361 q 47 389 75 378 l 47 522 q 92 539 76 532 q 113 563 107 546 q 118 621 118 581 l 118 872 q 149 990 118 942 q 247 1059 181 1038 q 421 1067 314 1081 z "},"}":{"ha":472,"x_min":44,"x_max":425,"o":"m 50 1067 q 225 1059 158 1081 q 322 990 292 1038 q 353 872 353 942 l 353 621 q 358 563 353 581 q 380 539 364 546 q 425 522 396 532 l 425 389 q 380 369 397 378 q 355 345 363 361 q 347 296 347 329 l 347 -35 q 317 -151 347 -103 q 219 -222 286 -200 q 44 -229 153 -243 l 44 -103 q 129 -87 107 -103 q 151 -19 151 -71 l 151 272 q 165 356 153 321 q 210 415 178 390 q 299 456 242 439 q 210 488 242 465 q 167 548 179 510 q 157 644 156 586 l 157 854 q 135 924 157 907 q 50 940 113 940 l 50 1067 z "},"-":{"ha":575,"x_min":81,"x_max":494,"o":"m 494 419 l 494 289 l 81 289 l 81 419 l 494 419 z "},"_":{"ha":618,"x_min":0,"x_max":618,"o":"m 618 0 l 618 -131 l 0 -131 l 0 0 l 618 0 z "},"–":{"ha":778,"x_min":81,"x_max":697,"o":"m 697 419 l 697 289 l 81 289 l 81 419 l 697 419 z "},"—":{"ha":1190,"x_min":81,"x_max":1110,"o":"m 1110 419 l 1110 289 l 81 289 l 81 419 l 1110 419 z "},"‘":{"ha":304,"x_min":68,"x_max":243,"o":"m 133 619 q 82 633 96 619 q 68 685 68 647 l 68 767 q 76 858 68 817 q 98 933 83 899 q 132 1000 113 967 l 208 976 q 194 896 197 935 q 189 813 190 857 q 243 754 242 813 l 242 685 q 226 633 240 647 q 175 619 211 619 l 133 619 z "},"’":{"ha":300,"x_min":60,"x_max":235,"o":"m 169 988 q 221 973 207 988 q 235 921 235 958 l 235 840 q 227 749 235 789 q 205 674 219 708 q 171 607 190 639 l 94 629 q 109 710 106 671 q 114 794 113 749 q 60 853 61 794 l 61 921 q 77 973 63 958 q 128 988 92 988 l 169 988 z "},"“":{"ha":549,"x_min":68,"x_max":488,"o":"m 133 619 q 82 633 96 619 q 68 685 68 647 l 68 767 q 76 858 68 817 q 98 933 83 899 q 132 1000 113 967 l 208 976 q 194 896 197 935 q 189 813 190 857 q 243 754 242 813 l 242 685 q 226 633 240 647 q 175 619 211 619 l 133 619 m 378 619 q 328 633 342 619 q 313 685 314 647 l 313 767 q 322 858 314 817 q 343 933 329 899 q 378 1000 357 967 l 453 976 q 438 896 442 935 q 433 813 435 857 q 488 754 486 813 l 486 685 q 470 633 485 647 q 419 619 456 619 l 378 619 z "},"”":{"ha":544,"x_min":60,"x_max":479,"o":"m 414 988 q 465 973 451 988 q 479 921 479 958 l 479 840 q 472 749 479 789 q 449 674 464 708 q 415 607 435 639 l 340 629 q 354 710 350 671 q 358 794 358 749 q 306 853 306 794 l 307 921 q 323 973 308 958 q 372 988 338 988 l 414 988 m 169 988 q 221 973 207 988 q 235 921 235 958 l 235 840 q 227 749 235 789 q 205 674 219 708 q 171 607 190 639 l 94 629 q 109 710 106 671 q 114 794 113 749 q 60 853 61 794 l 61 921 q 77 973 63 958 q 128 988 92 988 l 169 988 z "},"‚":{"ha":319,"x_min":71,"x_max":247,"o":"m 181 206 q 232 190 218 206 q 247 135 246 175 l 247 50 q 239 -47 247 -4 q 217 -126 231 -90 q 182 -197 203 -162 l 106 -172 q 120 -88 117 -129 q 125 0 124 -47 q 71 64 72 0 l 72 135 q 89 190 74 175 q 139 206 104 206 l 181 206 z "},"„":{"ha":563,"x_min":71,"x_max":490,"o":"m 425 183 q 475 169 461 183 q 490 118 489 156 l 490 36 q 481 -56 489 -15 q 460 -131 474 -96 q 425 -197 446 -165 l 350 -175 q 365 -94 361 -133 q 369 -10 368 -56 q 315 49 317 -10 l 317 118 q 333 169 318 156 q 383 183 347 183 l 425 183 m 181 183 q 231 169 217 183 q 246 118 244 156 l 246 36 q 237 -56 244 -15 q 215 -131 229 -96 q 181 -197 201 -165 l 106 -175 q 119 -94 115 -133 q 124 -10 124 -56 q 71 49 71 -10 l 72 118 q 88 169 74 156 q 138 183 103 183 l 181 183 z "},"‹":{"ha":418,"x_min":39,"x_max":369,"o":"m 260 646 l 368 576 l 221 349 l 369 114 l 261 44 l 39 326 l 39 371 l 260 646 z "},"›":{"ha":419,"x_min":49,"x_max":379,"o":"m 157 646 l 379 371 l 379 326 l 157 44 l 49 114 l 197 349 l 50 576 l 157 646 z "},"¦":{"ha":365,"x_min":110,"x_max":256,"o":"m 256 1085 l 256 529 l 110 529 l 110 1085 l 256 1085 m 256 321 l 256 -235 l 110 -235 l 110 321 l 256 321 z "},"/":{"ha":768,"x_min":29,"x_max":739,"o":"m 739 958 l 193 -101 l 29 -101 l 575 958 l 739 958 z "},"\\":{"ha":768,"x_min":29,"x_max":739,"o":"m 193 958 l 739 -101 l 575 -101 l 29 958 l 193 958 z "},"|":{"ha":363,"x_min":108,"x_max":254,"o":"m 254 1085 l 254 -235 l 108 -235 l 108 1085 l 254 1085 z "},"*":{"ha":629,"x_min":53,"x_max":576,"o":"m 372 961 l 356 726 l 503 547 l 413 481 l 315 649 l 218 482 l 125 549 l 275 726 l 257 961 l 372 961 m 89 850 l 250 782 l 249 732 l 224 701 l 53 742 l 89 850 m 542 850 l 576 740 l 407 701 l 381 732 l 379 782 l 542 850 z "},"†":{"ha":728,"x_min":53,"x_max":675,"o":"m 425 958 q 439 944 439 958 l 439 857 q 435 776 439 813 q 422 694 431 739 l 306 694 q 292 776 297 739 q 288 857 288 813 l 288 944 q 301 958 288 958 l 425 958 m 53 669 q 67 683 53 683 l 128 683 q 198 680 164 683 q 271 667 232 676 l 271 550 q 198 537 232 540 q 128 533 164 533 l 67 533 q 53 547 53 533 l 53 669 m 457 667 q 530 680 496 676 q 599 683 564 683 l 661 683 q 675 669 675 683 l 675 547 q 661 533 675 533 l 599 533 q 530 537 564 533 q 457 550 496 540 l 457 667 m 289 350 q 294 440 289 399 q 306 524 299 482 l 421 524 q 434 440 431 482 q 438 350 438 399 l 438 92 l 422 -178 l 304 -178 l 289 92 l 289 350 z "},"‡":{"ha":728,"x_min":53,"x_max":675,"o":"m 425 958 q 439 944 439 958 l 439 857 q 435 776 439 813 q 422 694 431 739 l 306 694 q 292 776 297 739 q 288 857 288 813 l 288 944 q 301 958 288 958 l 425 958 m 53 669 q 67 683 53 683 l 128 683 q 198 680 164 683 q 271 667 232 676 l 271 550 q 198 537 232 540 q 128 533 164 533 l 67 533 q 53 547 53 533 l 53 669 m 457 667 q 530 680 496 676 q 599 683 564 683 l 661 683 q 675 669 675 683 l 675 547 q 661 533 675 533 l 599 533 q 530 537 564 533 q 457 550 496 540 l 457 667 m 303 -176 q 289 -162 289 -176 l 289 -89 q 294 -8 289 -44 q 306 74 299 29 l 424 74 q 436 -8 432 29 q 440 -89 440 -44 l 440 -162 q 426 -178 440 -178 l 303 -176 m 675 99 q 661 85 675 85 l 600 85 q 531 89 564 85 q 457 101 497 93 l 457 218 q 531 231 497 228 q 600 235 564 235 l 661 235 q 675 221 675 235 l 675 99 m 68 235 l 129 235 q 199 231 165 235 q 272 218 232 228 l 271 101 q 198 89 232 93 q 128 85 164 85 l 67 85 q 54 99 54 85 l 54 221 q 68 235 54 235 m 307 529 l 422 529 q 434 474 431 500 q 439 417 438 447 l 439 356 q 434 298 438 325 q 422 243 431 271 l 307 243 q 296 299 300 271 q 290 356 292 326 l 290 417 q 296 474 292 449 q 307 529 300 500 z "},"·":{"ha":349,"x_min":75,"x_max":272,"o":"m 200 464 q 256 448 240 464 q 272 392 272 432 l 272 325 q 256 269 272 285 q 200 253 240 253 l 147 253 q 91 269 107 253 q 75 325 75 285 l 75 392 q 91 448 75 432 q 147 464 107 464 l 200 464 z "},"•":{"ha":517,"x_min":101,"x_max":415,"o":"m 272 528 q 384 497 353 528 q 415 386 415 465 l 415 365 q 384 247 415 279 q 272 215 353 215 l 253 215 q 134 247 167 215 q 101 365 101 279 l 101 386 q 134 497 101 465 q 253 528 167 528 l 272 528 z "},"'":{"ha":294,"x_min":72,"x_max":222,"o":"m 222 958 l 210 650 l 85 650 l 72 958 l 222 958 z "},"\"":{"ha":518,"x_min":72,"x_max":446,"o":"m 446 958 l 433 650 l 310 650 l 297 958 l 446 958 m 222 958 l 210 650 l 85 650 l 72 958 l 222 958 z "},"À":{"ha":907,"x_min":0,"x_max":906,"o":"m 554 958 q 601 943 581 958 q 628 903 621 928 l 906 0 l 689 0 l 493 704 q 482 752 488 728 q 472 799 476 776 l 435 799 q 426 752 431 776 q 414 704 421 728 l 218 0 l 0 0 l 279 903 q 306 943 286 928 q 353 958 326 958 l 554 958 m 701 413 l 701 253 l 204 253 l 204 413 l 701 413 m 282 1307 l 564 1101 l 504 1014 l 193 1169 l 282 1307 z "},"Á":{"ha":907,"x_min":0,"x_max":906,"o":"m 554 958 q 601 943 581 958 q 628 903 621 928 l 906 0 l 689 0 l 493 704 q 482 752 488 728 q 472 799 476 776 l 435 799 q 426 752 431 776 q 414 704 421 728 l 218 0 l 0 0 l 279 903 q 306 943 286 928 q 353 958 326 958 l 554 958 m 701 413 l 701 253 l 204 253 l 204 413 l 701 413 m 615 1299 l 704 1160 l 394 1006 l 333 1093 l 615 1299 z "},"Â":{"ha":907,"x_min":0,"x_max":906,"o":"m 554 958 q 601 943 581 958 q 628 903 621 928 l 906 0 l 689 0 l 493 704 q 482 752 488 728 q 472 799 476 776 l 435 799 q 426 752 431 776 q 414 704 421 728 l 218 0 l 0 0 l 279 903 q 306 943 286 928 q 353 958 326 958 l 554 958 m 701 413 l 701 253 l 204 253 l 204 413 l 701 413 m 531 1264 l 717 1078 l 663 1004 l 463 1136 l 451 1136 l 247 1004 l 193 1083 l 382 1264 l 531 1264 z "},"Ã":{"ha":907,"x_min":0,"x_max":906,"o":"m 554 958 q 601 943 581 958 q 628 903 621 928 l 906 0 l 689 0 l 493 704 q 482 752 488 728 q 472 799 476 776 l 435 799 q 426 752 431 776 q 414 704 421 728 l 218 0 l 0 0 l 279 903 q 306 943 286 928 q 353 958 326 958 l 554 958 m 701 413 l 701 253 l 204 253 l 204 413 l 701 413 m 325 1246 q 388 1234 360 1243 q 441 1214 415 1225 q 492 1192 467 1203 q 546 1178 518 1182 q 591 1188 582 1172 q 600 1239 600 1203 l 689 1239 q 669 1090 704 1140 q 575 1043 635 1039 q 490 1062 528 1047 q 419 1092 451 1076 q 353 1113 386 1108 q 309 1101 318 1117 q 300 1049 300 1086 l 211 1049 q 215 1163 201 1118 q 260 1228 229 1207 q 325 1246 290 1249 z "},"Ä":{"ha":907,"x_min":0,"x_max":906,"o":"m 554 958 q 601 943 581 958 q 628 903 621 928 l 906 0 l 689 0 l 493 704 q 482 752 488 728 q 472 799 476 776 l 435 799 q 426 752 431 776 q 414 704 421 728 l 218 0 l 0 0 l 279 903 q 306 943 286 928 q 353 958 326 958 l 554 958 m 701 413 l 701 253 l 204 253 l 204 413 l 701 413 m 614 1228 q 658 1183 658 1228 l 658 1101 q 614 1057 658 1057 l 546 1057 q 503 1101 503 1057 l 503 1183 q 546 1228 503 1228 l 614 1228 m 360 1228 q 403 1183 403 1228 l 403 1101 q 360 1057 403 1057 l 292 1057 q 249 1101 249 1057 l 249 1183 q 292 1228 249 1228 l 360 1228 z "},"Å":{"ha":907,"x_min":0,"x_max":906,"o":"m 554 958 q 601 943 581 958 q 628 903 621 928 l 906 0 l 689 0 l 493 704 q 482 752 488 728 q 472 799 476 776 l 435 799 q 426 752 431 776 q 414 704 421 728 l 218 0 l 0 0 l 279 903 q 306 943 286 928 q 353 958 326 958 l 554 958 m 701 413 l 701 253 l 204 253 l 204 413 l 701 413 m 456 1311 q 538 1290 500 1311 q 597 1232 575 1268 q 619 1151 619 1196 q 597 1070 619 1107 q 538 1012 575 1033 q 456 990 500 990 q 373 1012 411 990 q 313 1069 335 1033 q 290 1151 290 1106 q 313 1232 290 1196 q 373 1290 335 1268 q 456 1311 411 1311 m 454 1224 q 404 1203 425 1224 q 383 1150 383 1183 q 404 1098 383 1118 q 454 1078 425 1078 q 506 1098 486 1078 q 526 1150 526 1118 q 506 1203 526 1183 q 454 1224 486 1224 z "},"Ā":{"ha":907,"x_min":0,"x_max":906,"o":"m 554 958 q 601 943 581 958 q 628 903 621 928 l 906 0 l 689 0 l 493 704 q 482 752 488 728 q 472 799 476 776 l 435 799 q 426 752 431 776 q 414 704 421 728 l 218 0 l 0 0 l 279 903 q 306 943 286 928 q 353 958 326 958 l 554 958 m 701 413 l 701 253 l 204 253 l 204 413 l 701 413 m 664 1207 l 664 1076 l 247 1076 l 247 1207 l 664 1207 z "},"Ă":{"ha":907,"x_min":0,"x_max":906,"o":"m 554 958 q 601 943 581 958 q 628 903 621 928 l 906 0 l 689 0 l 493 704 q 482 752 488 728 q 472 799 476 776 l 435 799 q 426 752 431 776 q 414 704 421 728 l 218 0 l 0 0 l 279 903 q 306 943 286 928 q 353 958 326 958 l 554 958 m 701 413 l 701 253 l 204 253 l 204 413 l 701 413 m 583 1250 l 682 1236 q 664 1131 690 1179 q 585 1053 638 1082 q 454 1025 532 1025 q 325 1053 379 1025 q 244 1131 271 1082 q 225 1236 218 1179 l 324 1250 q 356 1181 324 1204 q 456 1157 388 1157 q 552 1181 521 1157 q 583 1250 583 1204 z "},"Ą":{"ha":907,"x_min":0,"x_max":924,"o":"m 554 958 q 601 943 581 958 q 628 903 621 928 l 906 0 l 689 0 l 493 704 q 482 752 488 728 q 472 799 476 776 l 435 799 q 426 752 431 776 q 414 704 421 728 l 218 0 l 0 0 l 279 903 q 306 943 286 928 q 353 958 326 958 l 554 958 m 701 413 l 701 253 l 204 253 l 204 413 l 701 413 m 822 3 l 906 0 q 860 -65 882 -32 q 821 -139 839 -99 q 829 -194 801 -183 q 908 -193 857 -206 l 924 -267 q 797 -298 849 -297 q 716 -278 746 -299 q 678 -224 686 -257 q 683 -154 671 -190 q 728 -79 694 -119 q 822 3 761 -39 z "},"Æ":{"ha":1297,"x_min":-14,"x_max":1242,"o":"m 794 961 q 1029 959 925 961 q 1242 949 1133 957 l 1233 796 l 892 796 q 838 776 858 796 q 818 722 818 756 l 818 233 q 837 181 818 199 q 892 163 856 163 l 1233 163 l 1242 10 q 1026 -2 1139 0 q 801 -4 913 -4 q 669 50 718 -4 q 619 189 619 104 l 619 733 q 628 785 619 758 q 651 826 638 811 l 636 826 q 608 794 622 814 q 581 751 593 774 l 204 0 l -14 0 l 392 775 q 448 862 417 826 q 524 919 479 897 q 635 951 569 940 q 794 961 700 961 m 671 422 l 671 268 l 213 268 l 219 422 l 671 422 m 635 571 l 1182 569 l 1182 426 l 635 426 l 635 571 z "},"Ç":{"ha":817,"x_min":64,"x_max":779,"o":"m 471 975 q 587 972 539 975 q 675 961 635 968 q 758 942 715 954 l 742 786 q 658 790 696 789 q 576 792 619 792 q 471 793 532 793 q 360 765 400 793 q 304 669 321 738 q 288 479 288 600 q 304 290 288 358 q 360 193 321 221 q 471 165 400 165 q 632 168 567 165 q 761 178 697 171 l 779 22 q 643 -8 713 1 q 471 -17 574 -17 q 233 31 322 -17 q 103 188 143 79 q 64 479 64 296 q 103 771 64 663 q 233 927 143 879 q 471 975 322 975 m 372 -83 q 488 -78 443 -75 q 553 -103 532 -82 q 572 -174 574 -125 q 532 -288 569 -243 q 432 -351 494 -333 q 293 -360 369 -369 l 317 -274 q 403 -256 368 -275 q 442 -192 439 -237 q 427 -167 444 -171 q 353 -161 410 -162 l 372 -83 z "},"Ć":{"ha":817,"x_min":64,"x_max":779,"o":"m 471 975 q 587 972 539 975 q 675 961 635 968 q 758 942 715 954 l 742 786 q 658 790 696 789 q 576 792 619 792 q 471 793 532 793 q 360 765 400 793 q 304 669 321 738 q 288 479 288 600 q 304 290 288 358 q 360 193 321 221 q 471 165 400 165 q 632 168 567 165 q 761 178 697 171 l 779 22 q 643 -8 713 1 q 471 -17 574 -17 q 233 31 322 -17 q 103 188 143 79 q 64 479 64 296 q 103 771 64 663 q 233 927 143 879 q 471 975 322 975 m 622 1304 l 711 1165 l 401 1011 l 340 1099 l 622 1304 z "},"Ĉ":{"ha":817,"x_min":64,"x_max":779,"o":"m 471 975 q 587 972 539 975 q 675 961 635 968 q 758 942 715 954 l 742 786 q 658 790 696 789 q 576 792 619 792 q 471 793 532 793 q 360 765 400 793 q 304 669 321 738 q 288 479 288 600 q 304 290 288 358 q 360 193 321 221 q 471 165 400 165 q 632 168 567 165 q 761 178 697 171 l 779 22 q 643 -8 713 1 q 471 -17 574 -17 q 233 31 322 -17 q 103 188 143 79 q 64 479 64 296 q 103 771 64 663 q 233 927 143 879 q 471 975 322 975 m 536 1268 l 722 1082 l 668 1008 l 468 1140 l 457 1140 l 253 1008 l 199 1088 l 388 1268 l 536 1268 z "},"Ċ":{"ha":817,"x_min":64,"x_max":779,"o":"m 471 975 q 587 972 539 975 q 675 961 635 968 q 758 942 715 954 l 742 786 q 658 790 696 789 q 576 792 619 792 q 471 793 532 793 q 360 765 400 793 q 304 669 321 738 q 288 479 288 600 q 304 290 288 358 q 360 193 321 221 q 471 165 400 165 q 632 168 567 165 q 761 178 697 171 l 779 22 q 643 -8 713 1 q 471 -17 574 -17 q 233 31 322 -17 q 103 188 143 79 q 64 479 64 296 q 103 771 64 663 q 233 927 143 879 q 471 975 322 975 m 494 1238 q 553 1181 553 1238 l 553 1108 q 494 1050 553 1050 l 431 1050 q 372 1108 372 1050 l 372 1181 q 431 1238 372 1238 l 494 1238 z "},"Č":{"ha":817,"x_min":64,"x_max":779,"o":"m 471 975 q 587 972 539 975 q 675 961 635 968 q 758 942 715 954 l 742 786 q 658 790 696 789 q 576 792 619 792 q 471 793 532 793 q 360 765 400 793 q 304 669 321 738 q 288 479 288 600 q 304 290 288 358 q 360 193 321 221 q 471 165 400 165 q 632 168 567 165 q 761 178 697 171 l 779 22 q 643 -8 713 1 q 471 -17 574 -17 q 233 31 322 -17 q 103 188 143 79 q 64 479 64 296 q 103 771 64 663 q 233 927 143 879 q 471 975 322 975 m 663 1289 l 717 1210 l 504 1031 l 419 1031 l 206 1210 l 261 1289 l 457 1176 l 468 1176 l 663 1289 z "},"Ð":{"ha":951,"x_min":19,"x_max":886,"o":"m 486 556 l 486 449 l 19 449 l 19 556 l 486 556 m 475 972 q 667 948 589 972 q 794 868 746 924 q 864 717 842 813 q 886 479 886 622 q 864 241 886 336 q 794 90 842 146 q 667 10 746 35 q 475 -14 589 -14 q 274 -10 365 -14 q 99 0 182 -6 l 188 157 q 313 152 240 154 q 475 150 386 150 q 587 178 546 150 q 645 279 628 207 q 663 479 663 351 q 645 679 663 607 q 587 781 628 751 q 475 810 546 810 q 324 809 390 810 q 193 808 257 808 l 99 958 q 273 968 182 964 q 475 972 364 972 m 311 958 l 311 0 l 99 0 l 99 958 l 311 958 z "},"Ď":{"ha":949,"x_min":96,"x_max":883,"o":"m 472 972 q 665 948 586 972 q 791 868 743 924 q 861 717 839 813 q 883 479 883 622 q 861 241 883 336 q 791 90 839 146 q 665 10 743 35 q 472 -14 586 -14 q 271 -10 363 -14 q 96 0 179 -6 l 185 157 q 310 152 238 154 q 472 150 383 150 q 584 178 543 150 q 642 279 625 207 q 660 479 660 351 q 642 679 660 607 q 584 781 625 751 q 472 810 543 810 q 321 809 388 810 q 190 808 254 808 l 96 958 q 270 968 179 964 q 472 972 361 972 m 308 958 l 308 0 l 96 0 l 96 958 l 308 958 m 664 1289 l 718 1210 l 506 1031 l 421 1031 l 207 1210 l 263 1289 l 458 1176 l 469 1176 l 664 1289 z "},"Đ":{"ha":951,"x_min":19,"x_max":886,"o":"m 486 556 l 486 449 l 19 449 l 19 556 l 486 556 m 475 972 q 667 948 589 972 q 794 868 746 924 q 864 717 842 813 q 886 479 886 622 q 864 241 886 336 q 794 90 842 146 q 667 10 746 35 q 475 -14 589 -14 q 274 -10 365 -14 q 99 0 182 -6 l 188 157 q 313 152 240 154 q 475 150 386 150 q 587 178 546 150 q 645 279 628 207 q 663 479 663 351 q 645 679 663 607 q 587 781 628 751 q 475 810 546 810 q 324 809 390 810 q 193 808 257 808 l 99 958 q 273 968 182 964 q 475 972 364 972 m 311 958 l 311 0 l 99 0 l 99 958 l 311 958 z "},"È":{"ha":803,"x_min":89,"x_max":749,"o":"m 293 963 q 450 962 371 963 q 606 958 529 961 q 749 949 682 956 l 739 794 l 371 794 q 319 776 336 794 q 301 724 301 758 l 301 235 q 319 182 301 200 q 371 164 336 164 l 739 164 l 749 10 q 606 1 682 4 q 450 -3 529 -3 q 293 -4 371 -4 q 145 49 201 -4 q 89 189 89 103 l 89 769 q 145 910 89 857 q 293 963 201 963 m 114 574 l 688 574 l 688 424 l 114 424 l 114 574 m 267 1322 l 549 1117 l 489 1029 l 178 1185 l 267 1322 z "},"É":{"ha":803,"x_min":89,"x_max":749,"o":"m 293 963 q 450 962 371 963 q 606 958 529 961 q 749 949 682 956 l 739 794 l 371 794 q 319 776 336 794 q 301 724 301 758 l 301 235 q 319 182 301 200 q 371 164 336 164 l 739 164 l 749 10 q 606 1 682 4 q 450 -3 529 -3 q 293 -4 371 -4 q 145 49 201 -4 q 89 189 89 103 l 89 769 q 145 910 89 857 q 293 963 201 963 m 114 574 l 688 574 l 688 424 l 114 424 l 114 574 m 600 1314 l 689 1175 l 379 1021 l 318 1108 l 600 1314 z "},"Ê":{"ha":803,"x_min":89,"x_max":749,"o":"m 293 963 q 450 962 371 963 q 606 958 529 961 q 749 949 682 956 l 739 794 l 371 794 q 319 776 336 794 q 301 724 301 758 l 301 235 q 319 182 301 200 q 371 164 336 164 l 739 164 l 749 10 q 606 1 682 4 q 450 -3 529 -3 q 293 -4 371 -4 q 145 49 201 -4 q 89 189 89 103 l 89 769 q 145 910 89 857 q 293 963 201 963 m 114 574 l 688 574 l 688 424 l 114 424 l 114 574 m 514 1278 l 700 1092 l 646 1018 l 446 1150 l 435 1150 l 231 1018 l 176 1097 l 365 1278 l 514 1278 z "},"Ë":{"ha":803,"x_min":89,"x_max":749,"o":"m 293 963 q 450 962 371 963 q 606 958 529 961 q 749 949 682 956 l 739 794 l 371 794 q 319 776 336 794 q 301 724 301 758 l 301 235 q 319 182 301 200 q 371 164 336 164 l 739 164 l 749 10 q 606 1 682 4 q 450 -3 529 -3 q 293 -4 371 -4 q 145 49 201 -4 q 89 189 89 103 l 89 769 q 145 910 89 857 q 293 963 201 963 m 114 574 l 688 574 l 688 424 l 114 424 l 114 574 m 599 1242 q 643 1197 643 1242 l 643 1115 q 599 1071 643 1071 l 531 1071 q 488 1115 488 1071 l 488 1197 q 531 1242 488 1242 l 599 1242 m 344 1242 q 388 1197 388 1242 l 388 1115 q 344 1071 388 1071 l 276 1071 q 233 1115 233 1071 l 233 1197 q 276 1242 233 1242 l 344 1242 z "},"Ē":{"ha":803,"x_min":89,"x_max":749,"o":"m 293 963 q 450 962 371 963 q 606 958 529 961 q 749 949 682 956 l 739 794 l 371 794 q 319 776 336 794 q 301 724 301 758 l 301 235 q 319 182 301 200 q 371 164 336 164 l 739 164 l 749 10 q 606 1 682 4 q 450 -3 529 -3 q 293 -4 371 -4 q 145 49 201 -4 q 89 189 89 103 l 89 769 q 145 910 89 857 q 293 963 201 963 m 114 574 l 688 574 l 688 424 l 114 424 l 114 574 m 649 1221 l 649 1090 l 232 1090 l 232 1221 l 649 1221 z "},"Ĕ":{"ha":803,"x_min":89,"x_max":749,"o":"m 293 963 q 450 962 371 963 q 606 958 529 961 q 749 949 682 956 l 739 794 l 371 794 q 319 776 336 794 q 301 724 301 758 l 301 235 q 319 182 301 200 q 371 164 336 164 l 739 164 l 749 10 q 606 1 682 4 q 450 -3 529 -3 q 293 -4 371 -4 q 145 49 201 -4 q 89 189 89 103 l 89 769 q 145 910 89 857 q 293 963 201 963 m 114 574 l 688 574 l 688 424 l 114 424 l 114 574 m 568 1264 l 667 1250 q 649 1144 675 1193 q 569 1067 622 1096 q 439 1039 517 1039 q 310 1067 364 1039 q 229 1144 256 1096 q 210 1250 203 1193 l 308 1264 q 340 1194 308 1218 q 440 1171 372 1171 q 537 1194 506 1171 q 568 1264 568 1218 z "},"Ė":{"ha":803,"x_min":89,"x_max":749,"o":"m 293 963 q 450 962 371 963 q 606 958 529 961 q 749 949 682 956 l 739 794 l 371 794 q 319 776 336 794 q 301 724 301 758 l 301 235 q 319 182 301 200 q 371 164 336 164 l 739 164 l 749 10 q 606 1 682 4 q 450 -3 529 -3 q 293 -4 371 -4 q 145 49 201 -4 q 89 189 89 103 l 89 769 q 145 910 89 857 q 293 963 201 963 m 114 574 l 688 574 l 688 424 l 114 424 l 114 574 m 472 1246 q 531 1189 531 1246 l 531 1117 q 472 1058 531 1058 l 408 1058 q 350 1117 350 1058 l 350 1189 q 408 1246 350 1246 l 472 1246 z "},"Ę":{"ha":803,"x_min":89,"x_max":768,"o":"m 293 963 q 450 962 371 963 q 606 958 529 961 q 749 949 682 956 l 739 794 l 371 794 q 319 776 336 794 q 301 724 301 758 l 301 235 q 319 182 301 200 q 371 164 336 164 l 739 164 l 749 10 q 606 1 682 4 q 450 -3 529 -3 q 293 -4 371 -4 q 145 49 201 -4 q 89 189 89 103 l 89 769 q 145 910 89 857 q 293 963 201 963 m 114 574 l 688 574 l 688 424 l 114 424 l 114 574 m 667 13 l 750 10 q 705 -56 726 -22 q 665 -129 683 -89 q 674 -185 646 -174 q 753 -183 701 -196 l 768 -257 q 642 -288 693 -287 q 560 -268 590 -289 q 523 -214 531 -247 q 528 -144 515 -181 q 572 -69 539 -110 q 667 13 606 -29 z "},"Ě":{"ha":803,"x_min":89,"x_max":749,"o":"m 293 963 q 450 962 371 963 q 606 958 529 961 q 749 949 682 956 l 739 794 l 371 794 q 319 776 336 794 q 301 724 301 758 l 301 235 q 319 182 301 200 q 371 164 336 164 l 739 164 l 749 10 q 606 1 682 4 q 450 -3 529 -3 q 293 -4 371 -4 q 145 49 201 -4 q 89 189 89 103 l 89 769 q 145 910 89 857 q 293 963 201 963 m 114 574 l 688 574 l 688 424 l 114 424 l 114 574 m 640 1297 l 694 1218 l 482 1039 l 397 1039 l 183 1218 l 239 1297 l 435 1185 l 446 1185 l 640 1297 z "},"Ĝ":{"ha":900,"x_min":65,"x_max":828,"o":"m 492 978 q 606 974 554 978 q 703 963 657 969 q 794 942 750 956 l 778 788 q 683 792 729 790 q 592 794 638 793 q 496 794 546 794 q 397 782 436 794 q 333 735 357 769 q 299 638 310 701 q 289 476 289 575 q 304 289 289 357 q 356 192 319 221 q 453 164 392 164 q 529 172 494 164 q 593 195 564 181 q 647 224 622 210 l 669 124 q 608 61 649 94 q 508 4 567 28 q 375 -19 450 -19 q 198 32 267 -19 q 97 194 129 83 q 65 481 65 304 q 106 776 65 668 q 241 931 147 885 q 492 978 335 978 m 828 553 l 828 0 l 671 0 l 642 146 l 622 185 l 622 553 l 828 553 m 547 1274 l 733 1088 l 679 1014 l 479 1146 l 468 1146 l 264 1014 l 210 1093 l 399 1274 l 547 1274 z "},"Ğ":{"ha":900,"x_min":65,"x_max":828,"o":"m 492 978 q 606 974 554 978 q 703 963 657 969 q 794 942 750 956 l 778 788 q 683 792 729 790 q 592 794 638 793 q 496 794 546 794 q 397 782 436 794 q 333 735 357 769 q 299 638 310 701 q 289 476 289 575 q 304 289 289 357 q 356 192 319 221 q 453 164 392 164 q 529 172 494 164 q 593 195 564 181 q 647 224 622 210 l 669 124 q 608 61 649 94 q 508 4 567 28 q 375 -19 450 -19 q 198 32 267 -19 q 97 194 129 83 q 65 481 65 304 q 106 776 65 668 q 241 931 147 885 q 492 978 335 978 m 828 553 l 828 0 l 671 0 l 642 146 l 622 185 l 622 553 l 828 553 m 601 1260 l 700 1246 q 682 1140 708 1189 q 603 1063 656 1092 q 472 1035 550 1035 q 343 1063 397 1035 q 263 1140 289 1092 q 243 1246 236 1189 l 342 1260 q 374 1190 342 1214 q 474 1167 406 1167 q 570 1190 539 1167 q 601 1260 601 1214 z "},"Ġ":{"ha":900,"x_min":65,"x_max":828,"o":"m 492 978 q 606 974 554 978 q 703 963 657 969 q 794 942 750 956 l 778 788 q 683 792 729 790 q 592 794 638 793 q 496 794 546 794 q 397 782 436 794 q 333 735 357 769 q 299 638 310 701 q 289 476 289 575 q 304 289 289 357 q 356 192 319 221 q 453 164 392 164 q 529 172 494 164 q 593 195 564 181 q 647 224 622 210 l 669 124 q 608 61 649 94 q 508 4 567 28 q 375 -19 450 -19 q 198 32 267 -19 q 97 194 129 83 q 65 481 65 304 q 106 776 65 668 q 241 931 147 885 q 492 978 335 978 m 828 553 l 828 0 l 671 0 l 642 146 l 622 185 l 622 553 l 828 553 m 504 1242 q 563 1185 563 1242 l 563 1113 q 504 1054 563 1054 l 440 1054 q 382 1113 382 1054 l 382 1185 q 440 1242 382 1242 l 504 1242 z "},"Ģ":{"ha":900,"x_min":65,"x_max":828,"o":"m 490 -74 q 540 -86 526 -74 q 556 -131 554 -99 l 556 -203 q 547 -281 554 -246 q 526 -346 540 -315 q 490 -404 511 -376 l 415 -385 q 431 -315 426 -349 q 435 -242 435 -281 q 381 -192 382 -242 l 382 -131 q 397 -86 382 -99 q 449 -74 413 -74 l 490 -74 m 492 978 q 606 974 554 978 q 703 963 657 969 q 794 942 750 956 l 778 788 q 683 792 729 790 q 592 794 638 793 q 496 794 546 794 q 397 782 436 794 q 333 735 357 769 q 299 638 310 701 q 289 476 289 575 q 304 289 289 357 q 356 192 319 221 q 453 164 392 164 q 529 172 494 164 q 593 195 564 181 q 647 224 622 210 l 669 124 q 608 61 649 94 q 508 4 567 28 q 375 -19 450 -19 q 198 32 267 -19 q 97 194 129 83 q 65 481 65 304 q 106 776 65 668 q 241 931 147 885 q 492 978 335 978 m 828 553 l 828 0 l 671 0 l 642 146 l 622 185 l 622 553 l 828 553 z "},"Ĥ":{"ha":960,"x_min":97,"x_max":863,"o":"m 310 958 l 310 0 l 97 0 l 97 958 l 310 958 m 665 590 l 665 431 l 299 431 l 299 590 l 665 590 m 863 958 l 863 0 l 650 0 l 650 958 l 863 958 m 554 1274 l 740 1088 l 686 1014 l 486 1146 l 475 1146 l 271 1014 l 217 1093 l 406 1274 l 554 1274 z "},"Ħ":{"ha":965,"x_min":17,"x_max":950,"o":"m 950 811 l 950 713 l 17 713 l 17 811 l 950 811 m 313 958 l 313 0 l 100 0 l 100 958 l 313 958 m 668 590 l 668 431 l 301 431 l 301 590 l 668 590 m 865 958 l 865 0 l 653 0 l 653 958 l 865 958 z "},"Ì":{"ha":406,"x_min":-58,"x_max":313,"o":"m 308 958 l 308 0 l 97 0 l 97 958 l 308 958 m 31 1313 l 313 1107 l 253 1019 l -58 1175 l 31 1313 z "},"Í":{"ha":406,"x_min":82,"x_max":453,"o":"m 308 958 l 308 0 l 97 0 l 97 958 l 308 958 m 364 1304 l 453 1165 l 143 1011 l 82 1099 l 364 1304 z "},"Î":{"ha":406,"x_min":-60,"x_max":464,"o":"m 308 958 l 308 0 l 97 0 l 97 958 l 308 958 m 278 1268 l 464 1082 l 410 1008 l 210 1140 l 199 1140 l -6 1008 l -60 1088 l 129 1268 l 278 1268 z "},"Ĩ":{"ha":406,"x_min":-50,"x_max":453,"o":"m 308 958 l 308 0 l 97 0 l 97 958 l 308 958 m 74 1250 q 136 1238 108 1247 q 190 1218 164 1229 q 241 1197 215 1207 q 294 1182 267 1186 q 340 1192 331 1176 q 349 1243 349 1207 l 438 1243 q 418 1094 453 1144 q 324 1047 383 1043 q 238 1066 276 1051 q 167 1097 200 1081 q 101 1117 135 1113 q 58 1106 67 1121 q 49 1053 49 1090 l -40 1053 q -36 1167 -50 1122 q 8 1232 -22 1211 q 74 1250 39 1253 z "},"Ï":{"ha":406,"x_min":-4,"x_max":406,"o":"m 308 958 l 308 0 l 97 0 l 97 958 l 308 958 m 363 1233 q 407 1189 407 1233 l 407 1107 q 363 1063 407 1063 l 294 1063 q 251 1107 251 1063 l 251 1189 q 294 1233 251 1233 l 363 1233 m 108 1233 q 151 1189 151 1233 l 151 1107 q 108 1063 151 1063 l 40 1063 q -3 1107 -3 1063 l -3 1189 q 40 1233 -3 1233 l 108 1233 z "},"Ī":{"ha":406,"x_min":-4,"x_max":411,"o":"m 308 958 l 308 0 l 97 0 l 97 958 l 308 958 m 413 1213 l 413 1082 l -4 1082 l -4 1213 l 413 1213 z "},"Ĭ":{"ha":406,"x_min":-33,"x_max":438,"o":"m 308 958 l 308 0 l 97 0 l 97 958 l 308 958 m 332 1254 l 431 1240 q 413 1135 439 1183 q 333 1058 386 1086 q 203 1029 281 1029 q 74 1058 128 1029 q -7 1135 19 1086 q -26 1240 -33 1183 l 72 1254 q 104 1185 72 1208 q 204 1161 136 1161 q 301 1185 269 1161 q 332 1254 332 1208 z "},"Į":{"ha":406,"x_min":47,"x_max":308,"o":"m 308 958 l 308 0 l 97 0 l 97 958 l 308 958 m 199 3 l 282 0 q 237 -65 258 -32 q 197 -139 215 -99 q 206 -194 178 -183 q 285 -193 233 -206 l 300 -267 q 174 -298 225 -297 q 92 -278 122 -299 q 55 -224 63 -257 q 60 -154 47 -190 q 104 -79 71 -119 q 199 3 138 -39 z "},"İ":{"ha":406,"x_min":97,"x_max":308,"o":"m 308 958 l 308 0 l 97 0 l 97 958 l 308 958 m 236 1238 q 294 1181 294 1238 l 294 1108 q 236 1050 294 1050 l 172 1050 q 114 1108 114 1050 l 114 1181 q 172 1238 114 1238 l 236 1238 z "},"Ĳ":{"ha":922,"x_min":97,"x_max":829,"o":"m 308 958 l 308 0 l 97 0 l 97 958 l 308 958 m 829 958 l 829 189 q 772 36 829 89 q 610 -17 714 -17 q 551 -13 585 -17 q 485 -3 517 -10 q 433 11 453 3 l 456 149 l 524 149 q 618 226 618 149 l 618 958 l 829 958 z "},"Ĵ":{"ha":517,"x_min":28,"x_max":582,"o":"m 424 958 l 424 189 q 366 36 424 89 q 204 -17 308 -17 q 145 -13 179 -17 q 79 -3 111 -10 q 28 11 47 3 l 50 149 l 118 149 q 213 226 213 149 l 213 958 l 424 958 m 396 1269 l 582 1083 l 528 1010 l 328 1142 l 317 1142 l 113 1010 l 58 1089 l 247 1269 l 396 1269 z "},"Ķ":{"ha":881,"x_min":97,"x_max":874,"o":"m 482 -74 q 532 -86 518 -74 q 547 -131 546 -99 l 547 -203 q 539 -281 546 -246 q 517 -346 532 -315 q 482 -404 503 -376 l 407 -385 q 422 -315 418 -349 q 426 -242 426 -281 q 372 -192 374 -242 l 374 -131 q 389 -86 374 -99 q 440 -74 404 -74 l 482 -74 m 857 958 l 607 572 q 574 529 592 547 q 538 499 556 511 l 538 494 q 579 461 557 483 q 615 414 601 439 l 874 0 l 636 0 l 340 501 l 628 958 l 857 958 m 308 958 l 308 688 q 301 594 308 640 q 279 503 294 547 q 299 415 290 460 q 308 331 308 369 l 308 0 l 97 0 l 97 958 l 308 958 m 417 572 l 417 425 l 244 425 l 244 572 l 417 572 z "},"Ĺ":{"ha":744,"x_min":75,"x_max":725,"o":"m 306 958 l 306 242 q 325 189 306 207 q 381 171 344 171 l 715 171 l 725 11 q 519 -2 626 0 q 304 -4 411 -4 q 147 52 200 -4 q 93 196 93 108 l 93 958 l 306 958 m 356 1306 l 444 1167 l 135 1013 l 74 1100 l 356 1306 z "},"Ļ":{"ha":744,"x_min":93,"x_max":725,"o":"m 431 -75 q 482 -87 468 -75 q 496 -132 496 -100 l 496 -204 q 488 -282 496 -247 q 466 -347 481 -317 q 432 -406 451 -378 l 356 -386 q 371 -316 367 -350 q 375 -243 375 -282 q 321 -193 322 -243 l 324 -132 q 338 -87 324 -100 q 389 -75 353 -75 l 431 -75 m 306 958 l 306 242 q 325 189 306 207 q 381 171 344 171 l 715 171 l 725 11 q 519 -2 626 0 q 304 -4 411 -4 q 147 52 200 -4 q 93 196 93 108 l 93 958 l 306 958 z "},"Ľ":{"ha":744,"x_min":93,"x_max":725,"o":"m 306 958 l 306 242 q 325 189 306 207 q 381 171 344 171 l 715 171 l 725 11 q 519 -2 626 0 q 304 -4 411 -4 q 147 52 200 -4 q 93 196 93 108 l 93 958 l 306 958 m 558 957 q 604 944 592 957 q 617 897 617 931 l 617 822 q 602 707 618 756 q 560 613 586 658 l 490 633 q 503 706 500 671 q 507 782 506 742 q 458 835 457 782 l 460 897 q 474 944 461 931 q 519 957 488 957 l 558 957 z "},"Ŀ":{"ha":744,"x_min":93,"x_max":725,"o":"m 503 474 q 444 531 444 474 l 444 603 q 503 661 444 661 l 565 661 q 625 603 625 661 l 625 531 q 565 474 625 474 l 503 474 m 306 958 l 306 242 q 325 189 306 207 q 381 171 344 171 l 715 171 l 725 11 q 519 -2 626 0 q 304 -4 411 -4 q 147 52 200 -4 q 93 196 93 108 l 93 958 l 306 958 z "},"Ł":{"ha":749,"x_min":18,"x_max":729,"o":"m 463 686 l 463 575 l 18 399 l 18 510 l 463 686 m 310 958 l 310 242 q 329 189 310 207 q 385 171 349 171 l 719 171 l 729 11 q 523 -2 631 0 q 308 -4 415 -4 q 151 52 204 -4 q 97 196 97 108 l 97 958 l 310 958 z "},"Ñ":{"ha":1003,"x_min":96,"x_max":907,"o":"m 907 958 l 907 76 q 831 0 907 0 l 714 0 q 661 16 679 0 q 628 64 643 32 l 363 567 q 330 638 346 599 q 303 713 314 676 l 288 713 q 294 637 292 675 q 297 561 297 599 l 297 0 l 96 0 l 96 882 q 174 958 96 958 l 289 958 q 340 942 322 958 q 374 894 357 926 l 631 407 q 665 336 647 375 q 700 256 683 297 l 717 256 q 710 337 713 297 q 708 415 708 376 l 707 958 l 907 958 m 388 1250 q 450 1238 422 1247 q 503 1218 478 1229 q 555 1197 529 1207 q 608 1182 581 1186 q 653 1192 644 1176 q 663 1243 663 1207 l 751 1243 q 732 1094 767 1144 q 638 1047 697 1043 q 552 1066 590 1051 q 481 1097 514 1081 q 415 1117 449 1113 q 372 1106 381 1121 q 363 1053 363 1090 l 274 1053 q 278 1167 264 1122 q 322 1232 292 1211 q 388 1250 353 1253 z "},"Ń":{"ha":1003,"x_min":96,"x_max":907,"o":"m 907 958 l 907 76 q 831 0 907 0 l 714 0 q 661 16 679 0 q 628 64 643 32 l 363 567 q 330 638 346 599 q 303 713 314 676 l 288 713 q 294 637 292 675 q 297 561 297 599 l 297 0 l 96 0 l 96 882 q 174 958 96 958 l 289 958 q 340 942 322 958 q 374 894 357 926 l 631 407 q 665 336 647 375 q 700 256 683 297 l 717 256 q 710 337 713 297 q 708 415 708 376 l 707 958 l 907 958 m 678 1304 l 767 1165 l 457 1011 l 396 1099 l 678 1304 z "},"Ņ":{"ha":1003,"x_min":96,"x_max":907,"o":"m 521 -74 q 571 -86 557 -74 q 586 -131 585 -99 l 586 -203 q 578 -281 585 -246 q 556 -346 571 -315 q 521 -404 542 -376 l 446 -385 q 461 -315 457 -349 q 465 -242 465 -281 q 411 -192 413 -242 l 413 -131 q 428 -86 413 -99 q 479 -74 443 -74 l 521 -74 m 907 958 l 907 76 q 831 0 907 0 l 714 0 q 661 16 679 0 q 628 64 643 32 l 363 567 q 330 638 346 599 q 303 713 314 676 l 288 713 q 294 637 292 675 q 297 561 297 599 l 297 0 l 96 0 l 96 882 q 174 958 96 958 l 289 958 q 340 942 322 958 q 374 894 357 926 l 631 407 q 665 336 647 375 q 700 256 683 297 l 717 256 q 710 337 713 297 q 708 415 708 376 l 707 958 l 907 958 z "},"Ň":{"ha":1003,"x_min":96,"x_max":907,"o":"m 907 958 l 907 76 q 831 0 907 0 l 714 0 q 661 16 679 0 q 628 64 643 32 l 363 567 q 330 638 346 599 q 303 713 314 676 l 288 713 q 294 637 292 675 q 297 561 297 599 l 297 0 l 96 0 l 96 882 q 174 958 96 958 l 289 958 q 340 942 322 958 q 374 894 357 926 l 631 407 q 665 336 647 375 q 700 256 683 297 l 717 256 q 710 337 713 297 q 708 415 708 376 l 707 958 l 907 958 m 718 1289 l 772 1210 l 560 1031 l 475 1031 l 261 1210 l 317 1289 l 513 1176 l 524 1176 l 718 1289 z "},"Ŋ":{"ha":1004,"x_min":96,"x_max":907,"o":"m 907 958 l 907 -78 q 853 -236 907 -181 q 713 -292 800 -292 q 632 -285 679 -292 q 551 -265 585 -278 l 574 -132 l 632 -132 q 718 -60 718 -132 l 718 7 l 690 7 q 666 24 679 7 q 642 61 653 40 l 363 557 q 329 627 344 588 q 301 703 314 667 l 288 703 q 294 630 292 667 q 296 557 296 593 l 296 0 l 96 0 l 96 882 q 174 958 96 958 l 276 958 q 329 942 311 958 q 364 894 347 926 l 631 418 q 665 350 646 390 q 699 267 683 310 l 715 267 q 709 344 713 306 q 706 422 706 383 l 706 958 l 907 958 z "},"Ò":{"ha":956,"x_min":64,"x_max":890,"o":"m 478 978 q 671 953 592 978 q 798 873 750 929 q 868 720 846 817 q 890 479 890 624 q 868 238 890 335 q 798 85 846 142 q 671 5 750 29 q 478 -19 592 -19 q 285 5 364 -19 q 157 85 206 29 q 86 238 108 142 q 64 479 64 335 q 86 720 64 624 q 157 873 108 817 q 285 953 206 929 q 478 978 364 978 m 478 810 q 363 781 404 810 q 305 680 322 751 q 288 479 288 608 q 305 279 288 351 q 363 178 322 207 q 478 149 404 149 q 591 178 550 149 q 649 279 632 207 q 667 479 667 351 q 649 680 667 608 q 591 781 632 751 q 478 810 550 810 m 306 1313 l 588 1107 l 528 1019 l 217 1175 l 306 1313 z "},"Ó":{"ha":956,"x_min":64,"x_max":890,"o":"m 478 978 q 671 953 592 978 q 798 873 750 929 q 868 720 846 817 q 890 479 890 624 q 868 238 890 335 q 798 85 846 142 q 671 5 750 29 q 478 -19 592 -19 q 285 5 364 -19 q 157 85 206 29 q 86 238 108 142 q 64 479 64 335 q 86 720 64 624 q 157 873 108 817 q 285 953 206 929 q 478 978 364 978 m 478 810 q 363 781 404 810 q 305 680 322 751 q 288 479 288 608 q 305 279 288 351 q 363 178 322 207 q 478 149 404 149 q 591 178 550 149 q 649 279 632 207 q 667 479 667 351 q 649 680 667 608 q 591 781 632 751 q 478 810 550 810 m 638 1318 l 726 1179 l 417 1025 l 356 1113 l 638 1318 z "},"Ô":{"ha":956,"x_min":64,"x_max":890,"o":"m 478 978 q 671 953 592 978 q 798 873 750 929 q 868 720 846 817 q 890 479 890 624 q 868 238 890 335 q 798 85 846 142 q 671 5 750 29 q 478 -19 592 -19 q 285 5 364 -19 q 157 85 206 29 q 86 238 108 142 q 64 479 64 335 q 86 720 64 624 q 157 873 108 817 q 285 953 206 929 q 478 978 364 978 m 478 810 q 363 781 404 810 q 305 680 322 751 q 288 479 288 608 q 305 279 288 351 q 363 178 322 207 q 478 149 404 149 q 591 178 550 149 q 649 279 632 207 q 667 479 667 351 q 649 680 667 608 q 591 781 632 751 q 478 810 550 810 m 553 1268 l 739 1082 l 685 1008 l 485 1140 l 474 1140 l 269 1008 l 215 1088 l 404 1268 l 553 1268 z "},"Õ":{"ha":956,"x_min":64,"x_max":890,"o":"m 478 978 q 671 953 592 978 q 798 873 750 929 q 868 720 846 817 q 890 479 890 624 q 868 238 890 335 q 798 85 846 142 q 671 5 750 29 q 478 -19 592 -19 q 285 5 364 -19 q 157 85 206 29 q 86 238 108 142 q 64 479 64 335 q 86 720 64 624 q 157 873 108 817 q 285 953 206 929 q 478 978 364 978 m 478 810 q 363 781 404 810 q 305 680 322 751 q 288 479 288 608 q 305 279 288 351 q 363 178 322 207 q 478 149 404 149 q 591 178 550 149 q 649 279 632 207 q 667 479 667 351 q 649 680 667 608 q 591 781 632 751 q 478 810 550 810 m 347 1250 q 410 1238 382 1247 q 463 1218 438 1229 q 515 1197 489 1207 q 568 1182 540 1186 q 613 1192 604 1176 q 622 1243 622 1207 l 711 1243 q 692 1094 726 1144 q 597 1047 657 1043 q 512 1066 550 1051 q 441 1097 474 1081 q 375 1117 408 1113 q 331 1106 340 1121 q 322 1053 322 1090 l 233 1053 q 238 1167 224 1122 q 282 1232 251 1211 q 347 1250 313 1253 z "},"Ö":{"ha":956,"x_min":64,"x_max":890,"o":"m 478 978 q 671 953 592 978 q 798 873 750 929 q 868 720 846 817 q 890 479 890 624 q 868 238 890 335 q 798 85 846 142 q 671 5 750 29 q 478 -19 592 -19 q 285 5 364 -19 q 157 85 206 29 q 86 238 108 142 q 64 479 64 335 q 86 720 64 624 q 157 873 108 817 q 285 953 206 929 q 478 978 364 978 m 478 810 q 363 781 404 810 q 305 680 322 751 q 288 479 288 608 q 305 279 288 351 q 363 178 322 207 q 478 149 404 149 q 591 178 550 149 q 649 279 632 207 q 667 479 667 351 q 649 680 667 608 q 591 781 632 751 q 478 810 550 810 m 638 1233 q 682 1189 682 1233 l 682 1107 q 638 1063 682 1063 l 569 1063 q 526 1107 526 1063 l 526 1189 q 569 1233 526 1233 l 638 1233 m 383 1233 q 426 1189 426 1233 l 426 1107 q 383 1063 426 1063 l 315 1063 q 272 1107 272 1063 l 272 1189 q 315 1233 272 1233 l 383 1233 z "},"Ō":{"ha":956,"x_min":64,"x_max":890,"o":"m 478 978 q 671 953 592 978 q 798 873 750 929 q 868 720 846 817 q 890 479 890 624 q 868 238 890 335 q 798 85 846 142 q 671 5 750 29 q 478 -19 592 -19 q 285 5 364 -19 q 157 85 206 29 q 86 238 108 142 q 64 479 64 335 q 86 720 64 624 q 157 873 108 817 q 285 953 206 929 q 478 978 364 978 m 478 810 q 363 781 404 810 q 305 680 322 751 q 288 479 288 608 q 305 279 288 351 q 363 178 322 207 q 478 149 404 149 q 591 178 550 149 q 649 279 632 207 q 667 479 667 351 q 649 680 667 608 q 591 781 632 751 q 478 810 550 810 m 688 1213 l 688 1082 l 271 1082 l 271 1213 l 688 1213 z "},"Ŏ":{"ha":956,"x_min":64,"x_max":890,"o":"m 478 978 q 671 953 592 978 q 798 873 750 929 q 868 720 846 817 q 890 479 890 624 q 868 238 890 335 q 798 85 846 142 q 671 5 750 29 q 478 -19 592 -19 q 285 5 364 -19 q 157 85 206 29 q 86 238 108 142 q 64 479 64 335 q 86 720 64 624 q 157 873 108 817 q 285 953 206 929 q 478 978 364 978 m 478 810 q 363 781 404 810 q 305 680 322 751 q 288 479 288 608 q 305 279 288 351 q 363 178 322 207 q 478 149 404 149 q 591 178 550 149 q 649 279 632 207 q 667 479 667 351 q 649 680 667 608 q 591 781 632 751 q 478 810 550 810 m 606 1254 l 704 1240 q 686 1135 713 1183 q 607 1058 660 1086 q 476 1029 554 1029 q 347 1058 401 1029 q 267 1135 293 1086 q 247 1240 240 1183 l 346 1254 q 378 1185 346 1208 q 478 1161 410 1161 q 574 1185 543 1161 q 606 1254 606 1208 z "},"Ő":{"ha":956,"x_min":64,"x_max":890,"o":"m 478 978 q 671 953 592 978 q 798 873 750 929 q 868 720 846 817 q 890 479 890 624 q 868 238 890 335 q 798 85 846 142 q 671 5 750 29 q 478 -19 592 -19 q 285 5 364 -19 q 157 85 206 29 q 86 238 108 142 q 64 479 64 335 q 86 720 64 624 q 157 873 108 817 q 285 953 206 929 q 478 978 364 978 m 478 810 q 363 781 404 810 q 305 680 322 751 q 288 479 288 608 q 305 279 288 351 q 363 178 322 207 q 478 149 404 149 q 591 178 550 149 q 649 279 632 207 q 667 479 667 351 q 649 680 667 608 q 591 781 632 751 q 478 810 550 810 m 401 1319 l 535 1231 l 324 997 l 239 1064 l 401 1319 m 665 1319 l 797 1231 l 586 997 l 503 1063 l 665 1319 z "},"Ø":{"ha":956,"x_min":64,"x_max":890,"o":"m 694 1047 l 767 1014 l 250 -90 l 179 -57 l 694 1047 m 478 978 q 671 953 592 978 q 798 873 750 929 q 868 720 846 817 q 890 479 890 624 q 868 238 890 335 q 798 85 846 142 q 671 5 750 29 q 478 -19 592 -19 q 285 5 364 -19 q 157 85 206 29 q 86 238 108 142 q 64 479 64 335 q 86 720 64 624 q 157 873 108 817 q 285 953 206 929 q 478 978 364 978 m 478 810 q 363 781 404 810 q 305 680 322 751 q 288 479 288 608 q 305 279 288 351 q 363 178 322 207 q 478 149 404 149 q 591 178 550 149 q 649 279 632 207 q 667 479 667 351 q 649 680 667 608 q 591 781 632 751 q 478 810 550 810 z "},"Œ":{"ha":1317,"x_min":65,"x_max":1261,"o":"m 475 978 q 570 973 528 978 q 651 958 613 968 q 729 932 690 947 l 649 786 q 600 799 624 794 q 546 807 576 804 q 475 810 515 810 q 363 781 403 810 q 306 681 322 753 q 289 479 289 608 q 306 279 289 351 q 363 178 322 207 q 475 149 403 149 q 549 151 518 149 q 603 160 579 154 q 653 176 628 167 l 726 39 q 649 6 688 18 q 569 -13 611 -7 q 475 -19 528 -19 q 283 5 363 -19 q 156 85 204 29 q 87 238 108 142 q 65 479 65 335 q 87 720 65 624 q 156 873 108 817 q 283 953 204 929 q 475 978 363 978 m 817 963 q 969 962 892 963 q 1122 958 1047 961 q 1261 949 1197 956 l 1253 794 l 907 794 q 852 776 871 794 q 833 724 833 758 l 833 235 q 852 182 833 200 q 907 164 871 164 l 1253 164 l 1261 10 q 1120 1 1196 4 q 966 -3 1044 -3 q 811 -4 888 -4 q 674 51 728 -4 q 619 196 619 107 l 619 763 q 676 907 619 851 q 817 963 732 963 m 643 571 l 1201 569 l 1201 426 l 643 426 l 643 571 z "},"Ŕ":{"ha":899,"x_min":96,"x_max":858,"o":"m 465 972 q 670 947 592 972 q 785 859 749 921 q 822 688 822 797 q 805 570 822 621 q 747 489 788 519 q 638 450 707 458 l 638 443 q 690 424 663 439 q 740 378 717 408 q 775 299 764 349 l 858 0 l 635 0 l 561 292 q 524 357 549 339 q 457 375 500 375 q 298 376 363 375 q 190 378 233 376 q 111 381 146 379 l 115 535 l 461 535 q 549 547 517 535 q 595 589 582 558 q 608 674 608 619 q 595 759 608 729 q 549 801 582 789 q 461 813 517 813 q 240 811 331 813 q 117 807 150 810 l 96 958 q 206 968 154 965 q 318 972 257 971 q 465 972 379 972 m 306 958 l 306 0 l 96 0 l 96 958 l 306 958 m 601 1304 l 690 1165 l 381 1011 l 319 1099 l 601 1304 z "},"Ŗ":{"ha":899,"x_min":96,"x_max":858,"o":"m 490 -74 q 540 -86 526 -74 q 556 -131 554 -99 l 556 -203 q 547 -281 554 -246 q 526 -346 540 -315 q 490 -404 511 -376 l 415 -385 q 431 -315 426 -349 q 435 -242 435 -281 q 381 -192 382 -242 l 382 -131 q 397 -86 382 -99 q 449 -74 413 -74 l 490 -74 m 465 972 q 670 947 592 972 q 785 859 749 921 q 822 688 822 797 q 805 570 822 621 q 747 489 788 519 q 638 450 707 458 l 638 443 q 690 424 663 439 q 740 378 717 408 q 775 299 764 349 l 858 0 l 635 0 l 561 292 q 524 357 549 339 q 457 375 500 375 q 298 376 363 375 q 190 378 233 376 q 111 381 146 379 l 115 535 l 461 535 q 549 547 517 535 q 595 589 582 558 q 608 674 608 619 q 595 759 608 729 q 549 801 582 789 q 461 813 517 813 q 240 811 331 813 q 117 807 150 810 l 96 958 q 206 968 154 965 q 318 972 257 971 q 465 972 379 972 m 306 958 l 306 0 l 96 0 l 96 958 l 306 958 z "},"Ř":{"ha":899,"x_min":96,"x_max":858,"o":"m 465 972 q 670 947 592 972 q 785 859 749 921 q 822 688 822 797 q 805 570 822 621 q 747 489 788 519 q 638 450 707 458 l 638 443 q 690 424 663 439 q 740 378 717 408 q 775 299 764 349 l 858 0 l 635 0 l 561 292 q 524 357 549 339 q 457 375 500 375 q 298 376 363 375 q 190 378 233 376 q 111 381 146 379 l 115 535 l 461 535 q 549 547 517 535 q 595 589 582 558 q 608 674 608 619 q 595 759 608 729 q 549 801 582 789 q 461 813 517 813 q 240 811 331 813 q 117 807 150 810 l 96 958 q 206 968 154 965 q 318 972 257 971 q 465 972 379 972 m 306 958 l 306 0 l 96 0 l 96 958 l 306 958 m 640 1289 l 694 1210 l 482 1031 l 397 1031 l 183 1210 l 239 1289 l 435 1176 l 446 1176 l 640 1289 z "},"Ś":{"ha":814,"x_min":58,"x_max":761,"o":"m 413 976 q 567 969 483 976 q 729 938 650 961 l 715 797 q 572 800 654 799 q 411 801 490 801 q 345 799 372 801 q 301 788 318 797 q 278 761 285 779 q 271 711 271 743 q 294 640 271 663 q 372 600 317 618 l 557 540 q 717 435 672 501 q 761 260 761 368 q 742 124 761 178 q 681 39 722 69 q 571 -5 639 8 q 404 -18 503 -18 q 269 -12 357 -18 q 69 19 182 -6 l 83 169 q 226 166 165 168 q 329 163 286 164 q 404 163 372 163 q 491 169 460 163 q 535 197 522 176 q 547 257 547 218 q 538 310 547 290 q 509 342 529 331 q 454 364 489 354 l 260 431 q 104 536 150 471 q 58 708 58 601 q 78 844 58 792 q 141 925 99 896 q 251 965 183 954 q 413 976 318 976 m 574 1304 l 663 1165 l 353 1011 l 292 1099 l 574 1304 z "},"Ŝ":{"ha":814,"x_min":58,"x_max":761,"o":"m 413 976 q 567 969 483 976 q 729 938 650 961 l 715 797 q 572 800 654 799 q 411 801 490 801 q 345 799 372 801 q 301 788 318 797 q 278 761 285 779 q 271 711 271 743 q 294 640 271 663 q 372 600 317 618 l 557 540 q 717 435 672 501 q 761 260 761 368 q 742 124 761 178 q 681 39 722 69 q 571 -5 639 8 q 404 -18 503 -18 q 269 -12 357 -18 q 69 19 182 -6 l 83 169 q 226 166 165 168 q 329 163 286 164 q 404 163 372 163 q 491 169 460 163 q 535 197 522 176 q 547 257 547 218 q 538 310 547 290 q 509 342 529 331 q 454 364 489 354 l 260 431 q 104 536 150 471 q 58 708 58 601 q 78 844 58 792 q 141 925 99 896 q 251 965 183 954 q 413 976 318 976 m 486 1268 l 672 1082 l 618 1008 l 418 1140 l 407 1140 l 203 1008 l 149 1088 l 338 1268 l 486 1268 z "},"Ş":{"ha":814,"x_min":58,"x_max":761,"o":"m 413 976 q 567 969 483 976 q 729 938 650 961 l 715 797 q 572 800 654 799 q 411 801 490 801 q 345 799 372 801 q 301 788 318 797 q 278 761 285 779 q 271 711 271 743 q 294 640 271 663 q 372 600 317 618 l 557 540 q 717 435 672 501 q 761 260 761 368 q 742 124 761 178 q 681 39 722 69 q 571 -5 639 8 q 404 -18 503 -18 q 269 -12 357 -18 q 69 19 182 -6 l 83 169 q 226 166 165 168 q 329 163 286 164 q 404 163 372 163 q 491 169 460 163 q 535 197 522 176 q 547 257 547 218 q 538 310 547 290 q 509 342 529 331 q 454 364 489 354 l 260 431 q 104 536 150 471 q 58 708 58 601 q 78 844 58 792 q 141 925 99 896 q 251 965 183 954 q 413 976 318 976 m 335 -69 q 450 -65 406 -61 q 515 -90 494 -68 q 535 -160 536 -111 q 494 -274 532 -229 q 394 -337 457 -319 q 256 -346 332 -356 l 279 -260 q 366 -242 331 -261 q 404 -178 401 -224 q 390 -153 407 -157 q 315 -147 372 -149 l 335 -69 z "},"Š":{"ha":814,"x_min":58,"x_max":761,"o":"m 413 976 q 567 969 483 976 q 729 938 650 961 l 715 797 q 572 800 654 799 q 411 801 490 801 q 345 799 372 801 q 301 788 318 797 q 278 761 285 779 q 271 711 271 743 q 294 640 271 663 q 372 600 317 618 l 557 540 q 717 435 672 501 q 761 260 761 368 q 742 124 761 178 q 681 39 722 69 q 571 -5 639 8 q 404 -18 503 -18 q 269 -12 357 -18 q 69 19 182 -6 l 83 169 q 226 166 165 168 q 329 163 286 164 q 404 163 372 163 q 491 169 460 163 q 535 197 522 176 q 547 257 547 218 q 538 310 547 290 q 509 342 529 331 q 454 364 489 354 l 260 431 q 104 536 150 471 q 58 708 58 601 q 78 844 58 792 q 141 925 99 896 q 251 965 183 954 q 413 976 318 976 m 614 1289 l 668 1210 l 456 1031 l 371 1031 l 157 1210 l 213 1289 l 408 1176 l 419 1176 l 614 1289 z "},"Ș":{"ha":814,"x_min":58,"x_max":761,"o":"m 410 -74 q 461 -86 447 -74 q 475 -131 475 -99 l 475 -203 q 467 -281 475 -246 q 445 -346 460 -315 q 411 -404 431 -376 l 335 -385 q 350 -315 346 -349 q 354 -242 354 -281 q 300 -192 301 -242 l 303 -131 q 317 -86 303 -99 q 368 -74 332 -74 l 410 -74 m 413 976 q 567 969 483 976 q 729 938 650 961 l 715 797 q 572 800 654 799 q 411 801 490 801 q 345 799 372 801 q 301 788 318 797 q 278 761 285 779 q 271 711 271 743 q 294 640 271 663 q 372 600 317 618 l 557 540 q 717 435 672 501 q 761 260 761 368 q 742 124 761 178 q 681 39 722 69 q 571 -5 639 8 q 404 -18 503 -18 q 269 -12 357 -18 q 69 19 182 -6 l 83 169 q 226 166 165 168 q 329 163 286 164 q 404 163 372 163 q 491 169 460 163 q 535 197 522 176 q 547 257 547 218 q 538 310 547 290 q 509 342 529 331 q 454 364 489 354 l 260 431 q 104 536 150 471 q 58 708 58 601 q 78 844 58 792 q 141 925 99 896 q 251 965 183 954 q 413 976 318 976 z "},"Ț":{"ha":836,"x_min":24,"x_max":813,"o":"m 426 -74 q 478 -86 464 -74 q 492 -131 492 -99 l 492 -203 q 484 -281 492 -246 q 462 -346 476 -315 q 428 -404 447 -376 l 353 -385 q 367 -315 363 -349 q 372 -242 371 -281 q 317 -192 318 -242 l 319 -131 q 334 -86 319 -99 q 385 -74 349 -74 l 426 -74 m 524 958 l 524 0 l 311 0 l 311 958 l 524 958 m 813 958 l 813 792 l 24 792 l 24 958 l 813 958 z "},"Ť":{"ha":836,"x_min":24,"x_max":813,"o":"m 524 958 l 524 0 l 311 0 l 311 958 l 524 958 m 813 958 l 813 792 l 24 792 l 24 958 l 813 958 m 619 1289 l 674 1210 l 461 1031 l 376 1031 l 163 1210 l 218 1289 l 414 1176 l 425 1176 l 619 1289 z "},"Ŧ":{"ha":839,"x_min":25,"x_max":814,"o":"m 703 557 l 703 457 l 133 457 l 133 557 l 703 557 m 525 958 l 525 0 l 313 0 l 313 958 l 525 958 m 814 958 l 814 792 l 25 792 l 25 958 l 814 958 z "},"Ţ":{"ha":836,"x_min":24,"x_max":813,"o":"m 524 958 l 524 0 l 311 0 l 311 958 l 524 958 m 813 958 l 813 792 l 24 792 l 24 958 l 813 958 m 335 -67 q 450 -62 406 -58 q 515 -87 494 -65 q 535 -157 536 -108 q 494 -272 532 -226 q 394 -335 457 -317 q 256 -343 332 -353 l 279 -257 q 366 -240 331 -258 q 404 -175 401 -221 q 390 -150 407 -154 q 315 -144 372 -146 l 335 -67 z "},"Þ":{"ha":851,"x_min":97,"x_max":807,"o":"m 460 796 q 667 768 592 796 q 775 672 743 740 q 807 481 807 604 q 776 289 807 357 q 676 194 746 221 q 488 167 606 167 q 363 172 424 167 q 251 186 303 178 q 163 204 199 194 q 111 221 126 214 l 115 326 q 283 326 196 326 q 456 326 369 326 q 539 340 508 328 q 582 386 569 353 q 594 481 594 419 q 582 576 594 543 q 539 623 569 610 q 456 636 508 636 q 239 635 329 636 q 117 631 149 633 l 97 783 q 204 792 154 789 q 315 795 254 794 q 460 796 375 796 m 310 958 l 310 0 l 97 0 l 97 958 l 310 958 z "},"Ù":{"ha":953,"x_min":89,"x_max":863,"o":"m 863 958 l 863 382 q 826 148 863 236 q 708 20 790 60 q 488 -19 625 -19 q 254 20 342 -19 q 128 148 167 60 q 89 382 89 236 l 89 958 l 301 958 l 301 382 q 317 241 301 292 q 372 169 333 190 q 476 149 411 149 q 580 169 542 149 q 634 241 618 190 q 650 382 650 292 l 650 958 l 863 958 m 306 1313 l 588 1107 l 528 1019 l 217 1175 l 306 1313 z "},"Ú":{"ha":953,"x_min":89,"x_max":863,"o":"m 863 958 l 863 382 q 826 148 863 236 q 708 20 790 60 q 488 -19 625 -19 q 254 20 342 -19 q 128 148 167 60 q 89 382 89 236 l 89 958 l 301 958 l 301 382 q 317 241 301 292 q 372 169 333 190 q 476 149 411 149 q 580 169 542 149 q 634 241 618 190 q 650 382 650 292 l 650 958 l 863 958 m 639 1304 l 728 1165 l 418 1011 l 357 1099 l 639 1304 z "},"Û":{"ha":953,"x_min":89,"x_max":863,"o":"m 863 958 l 863 382 q 826 148 863 236 q 708 20 790 60 q 488 -19 625 -19 q 254 20 342 -19 q 128 148 167 60 q 89 382 89 236 l 89 958 l 301 958 l 301 382 q 317 241 301 292 q 372 169 333 190 q 476 149 411 149 q 580 169 542 149 q 634 241 618 190 q 650 382 650 292 l 650 958 l 863 958 m 553 1268 l 739 1082 l 685 1008 l 485 1140 l 474 1140 l 269 1008 l 215 1088 l 404 1268 l 553 1268 z "},"Ũ":{"ha":953,"x_min":89,"x_max":863,"o":"m 863 958 l 863 382 q 826 148 863 236 q 708 20 790 60 q 488 -19 625 -19 q 254 20 342 -19 q 128 148 167 60 q 89 382 89 236 l 89 958 l 301 958 l 301 382 q 317 241 301 292 q 372 169 333 190 q 476 149 411 149 q 580 169 542 149 q 634 241 618 190 q 650 382 650 292 l 650 958 l 863 958 m 349 1250 q 411 1238 383 1247 q 465 1218 439 1229 q 516 1197 490 1207 q 569 1182 542 1186 q 615 1192 606 1176 q 624 1243 624 1207 l 713 1243 q 693 1094 728 1144 q 599 1047 658 1043 q 513 1066 551 1051 q 442 1097 475 1081 q 376 1117 410 1113 q 333 1106 342 1121 q 324 1053 324 1090 l 235 1053 q 239 1167 225 1122 q 283 1232 253 1211 q 349 1250 314 1253 z "},"Ü":{"ha":953,"x_min":89,"x_max":863,"o":"m 863 958 l 863 382 q 826 148 863 236 q 708 20 790 60 q 488 -19 625 -19 q 254 20 342 -19 q 128 148 167 60 q 89 382 89 236 l 89 958 l 301 958 l 301 382 q 317 241 301 292 q 372 169 333 190 q 476 149 411 149 q 580 169 542 149 q 634 241 618 190 q 650 382 650 292 l 650 958 l 863 958 m 638 1233 q 682 1189 682 1233 l 682 1107 q 638 1063 682 1063 l 569 1063 q 526 1107 526 1063 l 526 1189 q 569 1233 526 1233 l 638 1233 m 383 1233 q 426 1189 426 1233 l 426 1107 q 383 1063 426 1063 l 315 1063 q 272 1107 272 1063 l 272 1189 q 315 1233 272 1233 l 383 1233 z "},"Ū":{"ha":953,"x_min":89,"x_max":863,"o":"m 863 958 l 863 382 q 826 148 863 236 q 708 20 790 60 q 488 -19 625 -19 q 254 20 342 -19 q 128 148 167 60 q 89 382 89 236 l 89 958 l 301 958 l 301 382 q 317 241 301 292 q 372 169 333 190 q 476 149 411 149 q 580 169 542 149 q 634 241 618 190 q 650 382 650 292 l 650 958 l 863 958 m 688 1213 l 688 1082 l 271 1082 l 271 1213 l 688 1213 z "},"Ŭ":{"ha":953,"x_min":89,"x_max":863,"o":"m 863 958 l 863 382 q 826 148 863 236 q 708 20 790 60 q 488 -19 625 -19 q 254 20 342 -19 q 128 148 167 60 q 89 382 89 236 l 89 958 l 301 958 l 301 382 q 317 241 301 292 q 372 169 333 190 q 476 149 411 149 q 580 169 542 149 q 634 241 618 190 q 650 382 650 292 l 650 958 l 863 958 m 607 1254 l 706 1240 q 688 1135 714 1183 q 608 1058 661 1086 q 478 1029 556 1029 q 349 1058 403 1029 q 268 1135 294 1086 q 249 1240 242 1183 l 347 1254 q 379 1185 347 1208 q 479 1161 411 1161 q 576 1185 544 1161 q 607 1254 607 1208 z "},"Ů":{"ha":953,"x_min":89,"x_max":863,"o":"m 863 958 l 863 382 q 826 148 863 236 q 708 20 790 60 q 488 -19 625 -19 q 254 20 342 -19 q 128 148 167 60 q 89 382 89 236 l 89 958 l 301 958 l 301 382 q 317 241 301 292 q 372 169 333 190 q 476 149 411 149 q 580 169 542 149 q 634 241 618 190 q 650 382 650 292 l 650 958 l 863 958 m 479 1317 q 561 1295 524 1317 q 621 1238 599 1274 q 643 1157 643 1201 q 621 1076 643 1113 q 561 1017 599 1039 q 479 996 524 996 q 397 1017 435 996 q 336 1075 358 1039 q 314 1157 314 1111 q 336 1238 314 1201 q 397 1295 358 1274 q 479 1317 435 1317 m 478 1229 q 428 1209 449 1229 q 407 1156 407 1189 q 428 1103 407 1124 q 478 1083 449 1083 q 530 1103 510 1083 q 550 1156 550 1124 q 530 1209 550 1189 q 478 1229 510 1229 z "},"Ű":{"ha":953,"x_min":89,"x_max":863,"o":"m 863 958 l 863 382 q 826 148 863 236 q 708 20 790 60 q 488 -19 625 -19 q 254 20 342 -19 q 128 148 167 60 q 89 382 89 236 l 89 958 l 301 958 l 301 382 q 317 241 301 292 q 372 169 333 190 q 476 149 411 149 q 580 169 542 149 q 634 241 618 190 q 650 382 650 292 l 650 958 l 863 958 m 401 1319 l 535 1231 l 324 997 l 239 1064 l 401 1319 m 665 1319 l 797 1231 l 586 997 l 503 1063 l 665 1319 z "},"Ų":{"ha":953,"x_min":89,"x_max":863,"o":"m 863 958 l 863 382 q 826 148 863 236 q 708 20 790 60 q 488 -19 625 -19 q 254 20 342 -19 q 128 148 167 60 q 89 382 89 236 l 89 958 l 301 958 l 301 382 q 317 241 301 292 q 372 169 333 190 q 476 149 411 149 q 580 169 542 149 q 634 241 618 190 q 650 382 650 292 l 650 958 l 863 958 m 463 -3 l 546 -6 q 501 -71 522 -37 q 461 -144 479 -104 q 469 -200 442 -189 q 549 -199 497 -211 l 564 -272 q 438 -303 489 -303 q 356 -283 386 -304 q 319 -229 326 -262 q 324 -160 311 -196 q 368 -85 335 -125 q 463 -3 401 -44 z "},"Ẁ":{"ha":1356,"x_min":35,"x_max":1319,"o":"m 1319 958 l 1163 58 q 1138 17 1158 33 q 1088 0 1117 0 l 889 0 q 840 17 861 0 q 814 60 818 33 l 707 683 q 699 747 703 715 q 690 808 694 778 l 664 808 q 657 746 661 778 q 649 683 653 714 l 542 60 q 516 17 538 33 q 467 0 494 0 l 267 0 q 217 17 239 0 q 192 58 196 33 l 35 958 l 249 958 l 349 292 q 356 226 353 261 q 361 153 358 192 l 388 153 q 399 223 393 186 q 410 292 406 260 l 515 893 q 540 940 519 922 q 590 958 561 958 l 765 958 q 815 940 794 958 q 839 893 835 922 l 946 290 q 957 222 951 257 q 967 153 963 186 l 994 153 q 1001 222 997 186 q 1007 289 1004 258 l 1106 958 l 1319 958 m 506 1313 l 788 1107 l 728 1019 l 417 1175 l 506 1313 z "},"Ẃ":{"ha":1356,"x_min":35,"x_max":1319,"o":"m 1319 958 l 1163 58 q 1138 17 1158 33 q 1088 0 1117 0 l 889 0 q 840 17 861 0 q 814 60 818 33 l 707 683 q 699 747 703 715 q 690 808 694 778 l 664 808 q 657 746 661 778 q 649 683 653 714 l 542 60 q 516 17 538 33 q 467 0 494 0 l 267 0 q 217 17 239 0 q 192 58 196 33 l 35 958 l 249 958 l 349 292 q 356 226 353 261 q 361 153 358 192 l 388 153 q 399 223 393 186 q 410 292 406 260 l 515 893 q 540 940 519 922 q 590 958 561 958 l 765 958 q 815 940 794 958 q 839 893 835 922 l 946 290 q 957 222 951 257 q 967 153 963 186 l 994 153 q 1001 222 997 186 q 1007 289 1004 258 l 1106 958 l 1319 958 m 839 1304 l 928 1165 l 618 1011 l 557 1099 l 839 1304 z "},"Ŵ":{"ha":1356,"x_min":35,"x_max":1319,"o":"m 1319 958 l 1163 58 q 1138 17 1158 33 q 1088 0 1117 0 l 889 0 q 840 17 861 0 q 814 60 818 33 l 707 683 q 699 747 703 715 q 690 808 694 778 l 664 808 q 657 746 661 778 q 649 683 653 714 l 542 60 q 516 17 538 33 q 467 0 494 0 l 267 0 q 217 17 239 0 q 192 58 196 33 l 35 958 l 249 958 l 349 292 q 356 226 353 261 q 361 153 358 192 l 388 153 q 399 223 393 186 q 410 292 406 260 l 515 893 q 540 940 519 922 q 590 958 561 958 l 765 958 q 815 940 794 958 q 839 893 835 922 l 946 290 q 957 222 951 257 q 967 153 963 186 l 994 153 q 1001 222 997 186 q 1007 289 1004 258 l 1106 958 l 1319 958 m 753 1268 l 939 1082 l 885 1008 l 685 1140 l 674 1140 l 469 1008 l 415 1088 l 604 1268 l 753 1268 z "},"Ẅ":{"ha":1356,"x_min":35,"x_max":1319,"o":"m 1319 958 l 1163 58 q 1138 17 1158 33 q 1088 0 1117 0 l 889 0 q 840 17 861 0 q 814 60 818 33 l 707 683 q 699 747 703 715 q 690 808 694 778 l 664 808 q 657 746 661 778 q 649 683 653 714 l 542 60 q 516 17 538 33 q 467 0 494 0 l 267 0 q 217 17 239 0 q 192 58 196 33 l 35 958 l 249 958 l 349 292 q 356 226 353 261 q 361 153 358 192 l 388 153 q 399 223 393 186 q 410 292 406 260 l 515 893 q 540 940 519 922 q 590 958 561 958 l 765 958 q 815 940 794 958 q 839 893 835 922 l 946 290 q 957 222 951 257 q 967 153 963 186 l 994 153 q 1001 222 997 186 q 1007 289 1004 258 l 1106 958 l 1319 958 m 838 1232 q 882 1188 882 1232 l 882 1106 q 838 1061 882 1061 l 769 1061 q 726 1106 726 1061 l 726 1188 q 769 1232 726 1232 l 838 1232 m 583 1232 q 626 1188 626 1232 l 626 1106 q 583 1061 626 1061 l 515 1061 q 472 1106 472 1061 l 472 1188 q 515 1232 472 1232 l 583 1232 z "},"Ỳ":{"ha":850,"x_min":0,"x_max":849,"o":"m 849 958 l 525 304 l 325 304 l 0 958 l 221 958 l 382 606 q 403 546 394 578 q 418 485 411 514 l 432 485 q 449 546 440 514 q 468 606 457 578 l 628 958 l 849 958 m 531 433 l 531 0 l 318 0 l 318 433 l 531 433 m 254 1306 l 536 1100 l 476 1013 l 165 1168 l 254 1306 z "},"Ý":{"ha":850,"x_min":0,"x_max":849,"o":"m 849 958 l 525 304 l 325 304 l 0 958 l 221 958 l 382 606 q 403 546 394 578 q 418 485 411 514 l 432 485 q 449 546 440 514 q 468 606 457 578 l 628 958 l 849 958 m 531 433 l 531 0 l 318 0 l 318 433 l 531 433 m 588 1297 l 676 1158 l 367 1004 l 306 1092 l 588 1297 z "},"Ŷ":{"ha":850,"x_min":0,"x_max":849,"o":"m 849 958 l 525 304 l 325 304 l 0 958 l 221 958 l 382 606 q 403 546 394 578 q 418 485 411 514 l 432 485 q 449 546 440 514 q 468 606 457 578 l 628 958 l 849 958 m 531 433 l 531 0 l 318 0 l 318 433 l 531 433 m 501 1261 l 688 1075 l 633 1001 l 433 1133 l 422 1133 l 218 1001 l 164 1081 l 353 1261 l 501 1261 z "},"Ÿ":{"ha":850,"x_min":0,"x_max":849,"o":"m 849 958 l 525 304 l 325 304 l 0 958 l 221 958 l 382 606 q 403 546 394 578 q 418 485 411 514 l 432 485 q 449 546 440 514 q 468 606 457 578 l 628 958 l 849 958 m 531 433 l 531 0 l 318 0 l 318 433 l 531 433 m 586 1226 q 631 1182 631 1226 l 631 1100 q 586 1056 631 1056 l 518 1056 q 475 1100 475 1056 l 475 1182 q 518 1226 475 1226 l 586 1226 m 332 1226 q 375 1182 375 1226 l 375 1100 q 332 1056 375 1056 l 264 1056 q 221 1100 221 1056 l 221 1182 q 264 1226 221 1226 l 332 1226 z "},"Ź":{"ha":814,"x_min":53,"x_max":761,"o":"m 517 801 l 750 800 l 288 157 l 53 158 l 517 801 m 761 158 l 761 0 l 53 0 l 53 158 l 761 158 m 750 958 l 750 800 l 64 800 l 64 958 l 750 958 m 568 1304 l 657 1165 l 347 1011 l 286 1099 l 568 1304 z "},"Ż":{"ha":814,"x_min":53,"x_max":761,"o":"m 517 801 l 750 800 l 288 157 l 53 158 l 517 801 m 761 158 l 761 0 l 53 0 l 53 158 l 761 158 m 750 958 l 750 800 l 64 800 l 64 958 l 750 958 m 439 1238 q 497 1181 497 1238 l 497 1108 q 439 1050 497 1050 l 375 1050 q 317 1108 317 1050 l 317 1181 q 375 1238 317 1238 l 439 1238 z "},"Ž":{"ha":814,"x_min":53,"x_max":761,"o":"m 517 801 l 750 800 l 288 157 l 53 158 l 517 801 m 761 158 l 761 0 l 53 0 l 53 158 l 761 158 m 750 958 l 750 800 l 64 800 l 64 958 l 750 958 m 608 1289 l 663 1210 l 450 1031 l 365 1031 l 151 1210 l 207 1289 l 403 1176 l 414 1176 l 608 1289 z "},"Ǿ":{"ha":956,"x_min":64,"x_max":890,"o":"m 694 1047 l 767 1014 l 250 -90 l 179 -57 l 694 1047 m 478 978 q 671 953 592 978 q 798 873 750 929 q 868 720 846 817 q 890 479 890 624 q 868 238 890 335 q 798 85 846 142 q 671 5 750 29 q 478 -19 592 -19 q 285 5 364 -19 q 157 85 206 29 q 86 238 108 142 q 64 479 64 335 q 86 720 64 624 q 157 873 108 817 q 285 953 206 929 q 478 978 364 978 m 478 810 q 363 781 404 810 q 305 680 322 751 q 288 479 288 608 q 305 279 288 351 q 363 178 322 207 q 478 149 404 149 q 591 178 550 149 q 649 279 632 207 q 667 479 667 351 q 649 680 667 608 q 591 781 632 751 q 478 810 550 810 m 639 1317 l 728 1179 l 417 1024 l 357 1111 l 639 1317 z "},"Ǻ":{"ha":907,"x_min":0,"x_max":906,"o":"m 554 875 q 600 860 581 875 q 628 819 619 844 l 906 0 l 689 0 l 493 621 q 481 669 486 644 q 472 715 476 693 l 435 715 q 426 669 431 693 q 414 621 421 644 l 218 0 l 0 0 l 279 819 q 307 860 288 844 q 353 875 326 875 l 554 875 m 704 383 l 704 225 l 203 225 l 203 383 l 704 383 m 542 1501 l 628 1365 l 338 1231 l 279 1317 l 542 1501 m 456 1231 q 538 1209 500 1231 q 597 1151 575 1188 q 619 1071 619 1115 q 597 990 619 1026 q 538 932 575 953 q 456 911 500 911 q 374 932 411 911 q 314 989 336 953 q 292 1071 292 1025 q 314 1151 292 1115 q 374 1209 336 1188 q 456 1231 411 1231 m 456 1144 q 404 1124 425 1144 q 383 1071 383 1103 q 404 1017 383 1038 q 456 997 425 997 q 507 1017 486 997 q 528 1071 528 1038 q 507 1124 528 1103 q 456 1144 486 1144 z "},"Ǽ":{"ha":1297,"x_min":-14,"x_max":1242,"o":"m 794 961 q 1029 959 925 961 q 1242 949 1133 957 l 1233 796 l 892 796 q 838 776 858 796 q 818 722 818 756 l 818 233 q 837 181 818 199 q 892 163 856 163 l 1233 163 l 1242 10 q 1026 -2 1139 0 q 801 -4 913 -4 q 669 50 718 -4 q 619 189 619 104 l 619 733 q 628 785 619 758 q 651 826 638 811 l 636 826 q 608 794 622 814 q 581 751 593 774 l 204 0 l -14 0 l 392 775 q 448 862 417 826 q 524 919 479 897 q 635 951 569 940 q 794 961 700 961 m 671 422 l 671 268 l 213 268 l 219 422 l 671 422 m 635 571 l 1182 569 l 1182 426 l 635 426 l 635 571 m 950 1313 l 1039 1175 l 728 1019 l 668 1107 l 950 1313 z "},"Ə":{"ha":907,"x_min":58,"x_max":843,"o":"m 453 -17 q 227 22 314 -17 q 100 130 140 60 q 60 294 60 200 q 121 489 58 421 q 301 557 183 557 l 771 557 l 771 403 l 369 403 q 289 369 311 403 q 268 292 267 336 q 306 186 268 224 q 442 149 343 149 q 566 181 525 149 q 621 284 607 214 q 635 467 635 354 q 628 628 635 561 q 601 735 622 694 q 535 795 579 776 q 415 814 492 814 q 263 808 342 814 q 107 790 183 801 l 89 925 q 193 954 136 943 q 310 971 250 965 q 424 976 369 976 q 674 926 583 976 q 804 765 765 875 q 843 478 843 654 q 806 191 843 300 q 683 33 768 82 q 453 -17 597 -17 z "},"à":{"ha":792,"x_min":50,"x_max":714,"o":"m 446 704 q 592 681 532 704 q 683 603 651 658 q 714 453 714 549 l 714 0 l 550 0 l 521 149 l 507 169 l 507 454 q 484 525 507 503 q 397 547 461 547 q 265 544 344 547 q 103 535 186 540 l 83 671 q 199 688 133 681 q 329 699 264 694 q 446 704 394 704 m 629 422 l 628 307 l 322 306 q 269 288 285 306 q 253 239 253 269 l 253 206 q 272 152 253 171 q 335 133 292 133 q 413 149 371 133 q 497 192 456 164 q 571 257 539 219 l 571 168 q 534 116 558 147 q 472 55 510 85 q 385 4 435 25 q 271 -17 335 -17 q 158 6 208 -17 q 79 71 108 28 q 50 178 50 114 l 50 249 q 106 376 50 331 q 258 422 161 422 l 629 422 m 228 1069 l 510 864 l 450 776 l 139 932 l 228 1069 z "},"á":{"ha":792,"x_min":50,"x_max":714,"o":"m 446 704 q 592 681 532 704 q 683 603 651 658 q 714 453 714 549 l 714 0 l 550 0 l 521 149 l 507 169 l 507 454 q 484 525 507 503 q 397 547 461 547 q 265 544 344 547 q 103 535 186 540 l 83 671 q 199 688 133 681 q 329 699 264 694 q 446 704 394 704 m 629 422 l 628 307 l 322 306 q 269 288 285 306 q 253 239 253 269 l 253 206 q 272 152 253 171 q 335 133 292 133 q 413 149 371 133 q 497 192 456 164 q 571 257 539 219 l 571 168 q 534 116 558 147 q 472 55 510 85 q 385 4 435 25 q 271 -17 335 -17 q 158 6 208 -17 q 79 71 108 28 q 50 178 50 114 l 50 249 q 106 376 50 331 q 258 422 161 422 l 629 422 m 561 1061 l 650 922 l 340 768 l 279 856 l 561 1061 z "},"â":{"ha":792,"x_min":50,"x_max":714,"o":"m 446 704 q 592 681 532 704 q 683 603 651 658 q 714 453 714 549 l 714 0 l 550 0 l 521 149 l 507 169 l 507 454 q 484 525 507 503 q 397 547 461 547 q 265 544 344 547 q 103 535 186 540 l 83 671 q 199 688 133 681 q 329 699 264 694 q 446 704 394 704 m 629 422 l 628 307 l 322 306 q 269 288 285 306 q 253 239 253 269 l 253 206 q 272 152 253 171 q 335 133 292 133 q 413 149 371 133 q 497 192 456 164 q 571 257 539 219 l 571 168 q 534 116 558 147 q 472 55 510 85 q 385 4 435 25 q 271 -17 335 -17 q 158 6 208 -17 q 79 71 108 28 q 50 178 50 114 l 50 249 q 106 376 50 331 q 258 422 161 422 l 629 422 m 476 1025 l 663 839 l 608 765 l 408 897 l 397 897 l 193 765 l 139 844 l 328 1025 l 476 1025 z "},"ã":{"ha":792,"x_min":50,"x_max":714,"o":"m 446 704 q 592 681 532 704 q 683 603 651 658 q 714 453 714 549 l 714 0 l 550 0 l 521 149 l 507 169 l 507 454 q 484 525 507 503 q 397 547 461 547 q 265 544 344 547 q 103 535 186 540 l 83 671 q 199 688 133 681 q 329 699 264 694 q 446 704 394 704 m 629 422 l 628 307 l 322 306 q 269 288 285 306 q 253 239 253 269 l 253 206 q 272 152 253 171 q 335 133 292 133 q 413 149 371 133 q 497 192 456 164 q 571 257 539 219 l 571 168 q 534 116 558 147 q 472 55 510 85 q 385 4 435 25 q 271 -17 335 -17 q 158 6 208 -17 q 79 71 108 28 q 50 178 50 114 l 50 249 q 106 376 50 331 q 258 422 161 422 l 629 422 m 271 1007 q 333 995 306 1004 q 387 975 361 986 q 438 953 413 964 q 492 939 464 943 q 537 949 528 933 q 546 1000 546 964 l 635 1000 q 615 851 650 901 q 521 804 581 800 q 435 823 474 808 q 365 853 397 838 q 299 874 332 869 q 255 863 264 878 q 246 810 246 847 l 157 810 q 161 924 147 879 q 206 989 175 968 q 271 1007 236 1010 z "},"ä":{"ha":792,"x_min":50,"x_max":714,"o":"m 446 704 q 592 681 532 704 q 683 603 651 658 q 714 453 714 549 l 714 0 l 550 0 l 521 149 l 507 169 l 507 454 q 484 525 507 503 q 397 547 461 547 q 265 544 344 547 q 103 535 186 540 l 83 671 q 199 688 133 681 q 329 699 264 694 q 446 704 394 704 m 629 422 l 628 307 l 322 306 q 269 288 285 306 q 253 239 253 269 l 253 206 q 272 152 253 171 q 335 133 292 133 q 413 149 371 133 q 497 192 456 164 q 571 257 539 219 l 571 168 q 534 116 558 147 q 472 55 510 85 q 385 4 435 25 q 271 -17 335 -17 q 158 6 208 -17 q 79 71 108 28 q 50 178 50 114 l 50 249 q 106 376 50 331 q 258 422 161 422 l 629 422 m 560 990 q 604 946 604 990 l 604 864 q 560 819 604 819 l 492 819 q 449 864 449 819 l 449 946 q 492 990 449 990 l 560 990 m 306 990 q 349 946 349 990 l 349 864 q 306 819 349 819 l 238 819 q 194 864 194 819 l 194 946 q 238 990 194 990 l 306 990 z "},"å":{"ha":792,"x_min":50,"x_max":714,"o":"m 446 704 q 592 681 532 704 q 683 603 651 658 q 714 453 714 549 l 714 0 l 550 0 l 521 149 l 507 169 l 507 454 q 484 525 507 503 q 397 547 461 547 q 265 544 344 547 q 103 535 186 540 l 83 671 q 199 688 133 681 q 329 699 264 694 q 446 704 394 704 m 629 422 l 628 307 l 322 306 q 269 288 285 306 q 253 239 253 269 l 253 206 q 272 152 253 171 q 335 133 292 133 q 413 149 371 133 q 497 192 456 164 q 571 257 539 219 l 571 168 q 534 116 558 147 q 472 55 510 85 q 385 4 435 25 q 271 -17 335 -17 q 158 6 208 -17 q 79 71 108 28 q 50 178 50 114 l 50 249 q 106 376 50 331 q 258 422 161 422 l 629 422 m 401 1074 q 483 1052 446 1074 q 543 994 521 1031 q 565 914 565 958 q 543 833 565 869 q 483 774 521 796 q 401 753 446 753 q 319 774 357 753 q 258 832 281 796 q 236 914 236 868 q 258 994 236 958 q 319 1052 281 1031 q 401 1074 357 1074 m 400 986 q 350 966 371 986 q 329 913 329 946 q 350 860 329 881 q 400 840 371 840 q 452 860 432 840 q 472 913 472 881 q 452 966 472 946 q 400 986 432 986 z "},"ā":{"ha":792,"x_min":50,"x_max":714,"o":"m 446 704 q 592 681 532 704 q 683 603 651 658 q 714 453 714 549 l 714 0 l 550 0 l 521 149 l 507 169 l 507 454 q 484 525 507 503 q 397 547 461 547 q 265 544 344 547 q 103 535 186 540 l 83 671 q 199 688 133 681 q 329 699 264 694 q 446 704 394 704 m 629 422 l 628 307 l 322 306 q 269 288 285 306 q 253 239 253 269 l 253 206 q 272 152 253 171 q 335 133 292 133 q 413 149 371 133 q 497 192 456 164 q 571 257 539 219 l 571 168 q 534 116 558 147 q 472 55 510 85 q 385 4 435 25 q 271 -17 335 -17 q 158 6 208 -17 q 79 71 108 28 q 50 178 50 114 l 50 249 q 106 376 50 331 q 258 422 161 422 l 629 422 m 610 968 l 610 838 l 193 838 l 193 968 l 610 968 z "},"ă":{"ha":792,"x_min":50,"x_max":714,"o":"m 446 704 q 592 681 532 704 q 683 603 651 658 q 714 453 714 549 l 714 0 l 550 0 l 521 149 l 507 169 l 507 454 q 484 525 507 503 q 397 547 461 547 q 265 544 344 547 q 103 535 186 540 l 83 671 q 199 688 133 681 q 329 699 264 694 q 446 704 394 704 m 629 422 l 628 307 l 322 306 q 269 288 285 306 q 253 239 253 269 l 253 206 q 272 152 253 171 q 335 133 292 133 q 413 149 371 133 q 497 192 456 164 q 571 257 539 219 l 571 168 q 534 116 558 147 q 472 55 510 85 q 385 4 435 25 q 271 -17 335 -17 q 158 6 208 -17 q 79 71 108 28 q 50 178 50 114 l 50 249 q 106 376 50 331 q 258 422 161 422 l 629 422 m 529 1011 l 628 997 q 610 892 636 940 q 531 815 583 843 q 400 786 478 786 q 271 815 325 786 q 190 892 217 843 q 171 997 164 940 l 269 1011 q 301 942 269 965 q 401 918 333 918 q 498 942 467 918 q 529 1011 529 965 z "},"ą":{"ha":792,"x_min":50,"x_max":731,"o":"m 446 704 q 592 681 532 704 q 683 603 651 658 q 714 453 714 549 l 714 0 l 550 0 l 521 149 l 507 169 l 507 454 q 484 525 507 503 q 397 547 461 547 q 265 544 344 547 q 103 535 186 540 l 83 671 q 199 688 133 681 q 329 699 264 694 q 446 704 394 704 m 629 422 l 628 307 l 322 306 q 269 288 285 306 q 253 239 253 269 l 253 206 q 272 152 253 171 q 335 133 292 133 q 413 149 371 133 q 497 192 456 164 q 571 257 539 219 l 571 168 q 534 116 558 147 q 472 55 510 85 q 385 4 435 25 q 271 -17 335 -17 q 158 6 208 -17 q 79 71 108 28 q 50 178 50 114 l 50 249 q 106 376 50 331 q 258 422 161 422 l 629 422 m 629 3 l 713 0 q 667 -65 689 -32 q 628 -139 646 -99 q 636 -194 608 -183 q 715 -193 664 -206 l 731 -267 q 604 -298 656 -297 q 523 -278 553 -299 q 485 -224 493 -257 q 490 -154 478 -190 q 535 -79 501 -119 q 629 3 568 -39 z "},"æ":{"ha":1221,"x_min":50,"x_max":1172,"o":"m 849 704 q 1097 645 1022 704 q 1172 469 1171 586 q 1151 364 1172 406 q 1081 302 1129 322 q 949 282 1032 282 l 579 282 l 579 397 l 893 397 q 957 417 942 397 q 972 474 972 436 q 945 540 972 521 q 856 560 918 560 q 765 544 797 560 q 721 486 733 529 q 708 361 708 443 q 724 228 708 275 q 776 164 739 182 q 879 146 813 146 q 995 149 926 146 q 1135 161 1064 153 l 1154 35 q 1064 4 1114 15 q 960 -12 1014 -7 q 856 -17 907 -17 q 648 22 726 -17 q 535 139 569 60 q 500 342 500 218 q 535 556 500 476 q 647 669 569 635 q 849 704 724 704 m 624 419 l 622 306 l 321 306 q 269 288 285 306 q 253 239 253 269 l 253 206 q 272 152 253 171 q 332 133 292 133 q 410 149 368 133 q 494 192 453 164 q 568 258 536 221 l 575 164 q 538 112 563 142 q 475 53 513 82 q 386 3 438 24 q 268 -17 335 -17 q 157 6 207 -17 q 78 71 107 28 q 50 178 50 114 l 50 249 q 105 374 50 328 q 256 419 160 419 l 624 419 m 442 704 q 587 681 528 704 q 676 603 646 658 q 707 453 707 549 l 707 322 l 500 322 l 500 454 q 477 525 500 503 q 393 547 454 547 q 262 544 340 547 q 101 535 183 540 l 83 671 q 196 688 132 681 q 325 699 260 694 q 442 704 390 704 z "},"ç":{"ha":707,"x_min":56,"x_max":668,"o":"m 403 704 q 485 701 440 704 q 574 688 529 697 q 657 663 619 679 l 635 533 q 528 536 579 535 q 438 538 478 538 q 339 521 375 538 q 287 462 303 504 q 271 344 271 419 q 287 225 271 268 q 339 165 303 182 q 438 149 375 149 q 494 150 460 149 q 569 153 529 151 q 649 161 610 156 l 668 31 q 542 -6 613 6 q 401 -17 471 -17 q 198 19 274 -17 q 89 133 122 54 q 56 344 56 213 q 90 556 56 476 q 200 669 124 635 q 403 704 276 704 m 307 -74 q 422 -69 378 -65 q 488 -94 467 -72 q 507 -164 508 -115 q 467 -278 504 -233 q 367 -342 429 -324 q 228 -350 304 -360 l 251 -264 q 338 -247 303 -265 q 376 -182 374 -228 q 362 -157 379 -161 q 288 -151 344 -153 l 307 -74 z "},"ć":{"ha":707,"x_min":56,"x_max":668,"o":"m 403 704 q 485 701 440 704 q 574 688 529 697 q 657 663 619 679 l 635 533 q 528 536 579 535 q 438 538 478 538 q 339 521 375 538 q 287 462 303 504 q 271 344 271 419 q 287 225 271 268 q 339 165 303 182 q 438 149 375 149 q 494 150 460 149 q 569 153 529 151 q 649 161 610 156 l 668 31 q 542 -6 613 6 q 401 -17 471 -17 q 198 19 274 -17 q 89 133 122 54 q 56 344 56 213 q 90 556 56 476 q 200 669 124 635 q 403 704 276 704 m 550 1056 l 639 917 l 329 763 l 268 850 l 550 1056 z "},"ĉ":{"ha":707,"x_min":56,"x_max":668,"o":"m 403 704 q 485 701 440 704 q 574 688 529 697 q 657 663 619 679 l 635 533 q 528 536 579 535 q 438 538 478 538 q 339 521 375 538 q 287 462 303 504 q 271 344 271 419 q 287 225 271 268 q 339 165 303 182 q 438 149 375 149 q 494 150 460 149 q 569 153 529 151 q 649 161 610 156 l 668 31 q 542 -6 613 6 q 401 -17 471 -17 q 198 19 274 -17 q 89 133 122 54 q 56 344 56 213 q 90 556 56 476 q 200 669 124 635 q 403 704 276 704 m 464 1019 l 650 833 l 596 760 l 396 892 l 385 892 l 181 760 l 126 839 l 315 1019 l 464 1019 z "},"ċ":{"ha":707,"x_min":56,"x_max":668,"o":"m 403 704 q 485 701 440 704 q 574 688 529 697 q 657 663 619 679 l 635 533 q 528 536 579 535 q 438 538 478 538 q 339 521 375 538 q 287 462 303 504 q 271 344 271 419 q 287 225 271 268 q 339 165 303 182 q 438 149 375 149 q 494 150 460 149 q 569 153 529 151 q 649 161 610 156 l 668 31 q 542 -6 613 6 q 401 -17 471 -17 q 198 19 274 -17 q 89 133 122 54 q 56 344 56 213 q 90 556 56 476 q 200 669 124 635 q 403 704 276 704 m 422 989 q 481 932 481 989 l 481 860 q 422 801 481 801 l 358 801 q 300 860 300 801 l 300 932 q 358 989 300 989 l 422 989 z "},"č":{"ha":707,"x_min":56,"x_max":668,"o":"m 403 704 q 485 701 440 704 q 574 688 529 697 q 657 663 619 679 l 635 533 q 528 536 579 535 q 438 538 478 538 q 339 521 375 538 q 287 462 303 504 q 271 344 271 419 q 287 225 271 268 q 339 165 303 182 q 438 149 375 149 q 494 150 460 149 q 569 153 529 151 q 649 161 610 156 l 668 31 q 542 -6 613 6 q 401 -17 471 -17 q 198 19 274 -17 q 89 133 122 54 q 56 344 56 213 q 90 556 56 476 q 200 669 124 635 q 403 704 276 704 m 590 1040 l 644 961 l 432 782 l 347 782 l 133 961 l 189 1040 l 385 928 l 396 928 l 590 1040 z "},"ď":{"ha":829,"x_min":58,"x_max":967,"o":"m 318 704 q 458 683 390 704 q 576 615 525 663 l 563 521 q 478 546 515 535 q 390 557 440 557 q 321 542 347 557 q 282 482 294 526 q 269 350 269 438 q 281 226 269 268 q 319 167 293 183 q 385 151 344 151 q 447 159 421 151 q 500 183 474 167 q 560 222 526 199 l 575 121 q 467 23 533 63 q 303 -17 400 -17 q 115 78 171 -17 q 58 349 58 172 q 87 563 58 486 q 174 672 115 640 q 318 704 232 704 m 744 972 l 744 0 l 582 0 l 561 126 l 539 142 l 539 592 l 547 610 q 541 697 543 653 q 539 786 539 740 l 539 972 l 744 972 m 907 979 q 953 966 940 979 q 965 919 965 953 l 965 844 q 951 729 967 778 q 908 635 935 681 l 839 656 q 851 728 849 693 q 856 804 854 764 q 807 857 806 804 l 808 919 q 823 966 810 953 q 868 979 836 979 l 907 979 z "},"đ":{"ha":824,"x_min":58,"x_max":829,"o":"m 829 871 l 829 778 l 358 778 l 358 871 l 829 871 m 318 704 q 458 683 390 704 q 576 615 525 663 l 563 521 q 478 546 515 535 q 390 557 440 557 q 321 542 347 557 q 282 482 294 526 q 269 350 269 438 q 281 226 269 268 q 319 167 293 183 q 385 151 344 151 q 447 159 421 151 q 500 183 474 167 q 560 222 526 199 l 575 121 q 467 23 533 63 q 303 -17 400 -17 q 115 78 171 -17 q 58 349 58 172 q 87 563 58 486 q 174 672 115 640 q 318 704 232 704 m 744 972 l 744 0 l 582 0 l 561 126 l 539 142 l 539 592 l 547 610 q 541 697 543 653 q 539 786 539 740 l 539 972 l 744 972 z "},"ð":{"ha":808,"x_min":57,"x_max":744,"o":"m 192 969 q 377 956 292 976 q 531 892 463 936 q 646 777 599 847 q 719 613 693 707 q 744 399 744 518 q 726 213 744 292 q 668 83 708 135 q 561 6 628 32 q 397 -19 494 -19 q 140 58 222 -19 q 57 300 57 135 q 86 481 57 408 q 181 590 115 553 q 356 626 246 626 q 438 619 392 626 q 529 590 485 613 q 606 522 574 568 l 594 439 q 506 468 554 458 q 400 478 457 478 q 325 461 353 478 q 285 406 297 444 q 272 303 272 368 q 301 169 272 206 q 400 132 331 132 q 484 158 457 132 q 520 244 511 185 q 529 401 529 304 q 515 585 529 508 q 472 713 500 663 q 400 792 443 764 q 300 830 357 819 q 172 836 243 840 l 192 969 m 588 1004 l 644 935 l 336 679 l 276 749 l 588 1004 z "},"è":{"ha":783,"x_min":54,"x_max":735,"o":"m 408 704 q 658 645 582 704 q 733 469 733 586 q 686 328 735 375 q 518 282 638 282 l 135 282 l 135 397 l 461 397 q 522 417 508 397 q 535 474 535 438 q 506 541 533 522 q 415 560 479 560 q 326 544 358 560 q 282 486 294 529 q 269 361 269 443 q 285 228 269 275 q 337 164 300 182 q 439 146 374 146 q 556 149 486 146 q 697 161 626 153 l 717 35 q 625 4 676 15 q 519 -12 574 -7 q 415 -17 465 -17 q 205 22 285 -17 q 90 139 125 60 q 54 342 54 218 q 90 556 54 476 q 204 669 126 635 q 408 704 282 704 m 239 1064 l 521 858 l 461 771 l 150 926 l 239 1064 z "},"é":{"ha":783,"x_min":54,"x_max":735,"o":"m 408 704 q 658 645 582 704 q 733 469 733 586 q 686 328 735 375 q 518 282 638 282 l 135 282 l 135 397 l 461 397 q 522 417 508 397 q 535 474 535 438 q 506 541 533 522 q 415 560 479 560 q 326 544 358 560 q 282 486 294 529 q 269 361 269 443 q 285 228 269 275 q 337 164 300 182 q 439 146 374 146 q 556 149 486 146 q 697 161 626 153 l 717 35 q 625 4 676 15 q 519 -12 574 -7 q 415 -17 465 -17 q 205 22 285 -17 q 90 139 125 60 q 54 342 54 218 q 90 556 54 476 q 204 669 126 635 q 408 704 282 704 m 574 1056 l 663 917 l 353 763 l 292 850 l 574 1056 z "},"ê":{"ha":783,"x_min":54,"x_max":735,"o":"m 408 704 q 658 645 582 704 q 733 469 733 586 q 686 328 735 375 q 518 282 638 282 l 135 282 l 135 397 l 461 397 q 522 417 508 397 q 535 474 535 438 q 506 541 533 522 q 415 560 479 560 q 326 544 358 560 q 282 486 294 529 q 269 361 269 443 q 285 228 269 275 q 337 164 300 182 q 439 146 374 146 q 556 149 486 146 q 697 161 626 153 l 717 35 q 625 4 676 15 q 519 -12 574 -7 q 415 -17 465 -17 q 205 22 285 -17 q 90 139 125 60 q 54 342 54 218 q 90 556 54 476 q 204 669 126 635 q 408 704 282 704 m 488 1019 l 674 833 l 619 760 l 419 892 l 408 892 l 204 760 l 150 839 l 339 1019 l 488 1019 z "},"ë":{"ha":783,"x_min":54,"x_max":735,"o":"m 408 704 q 658 645 582 704 q 733 469 733 586 q 686 328 735 375 q 518 282 638 282 l 135 282 l 135 397 l 461 397 q 522 417 508 397 q 535 474 535 438 q 506 541 533 522 q 415 560 479 560 q 326 544 358 560 q 282 486 294 529 q 269 361 269 443 q 285 228 269 275 q 337 164 300 182 q 439 146 374 146 q 556 149 486 146 q 697 161 626 153 l 717 35 q 625 4 676 15 q 519 -12 574 -7 q 415 -17 465 -17 q 205 22 285 -17 q 90 139 125 60 q 54 342 54 218 q 90 556 54 476 q 204 669 126 635 q 408 704 282 704 m 572 985 q 617 940 617 985 l 617 858 q 572 814 617 814 l 504 814 q 461 858 461 814 l 461 940 q 504 985 461 985 l 572 985 m 318 985 q 361 940 361 985 l 361 858 q 318 814 361 814 l 250 814 q 207 858 207 814 l 207 940 q 250 985 207 985 l 318 985 z "},"ē":{"ha":783,"x_min":54,"x_max":735,"o":"m 408 704 q 658 645 582 704 q 733 469 733 586 q 686 328 735 375 q 518 282 638 282 l 135 282 l 135 397 l 461 397 q 522 417 508 397 q 535 474 535 438 q 506 541 533 522 q 415 560 479 560 q 326 544 358 560 q 282 486 294 529 q 269 361 269 443 q 285 228 269 275 q 337 164 300 182 q 439 146 374 146 q 556 149 486 146 q 697 161 626 153 l 717 35 q 625 4 676 15 q 519 -12 574 -7 q 415 -17 465 -17 q 205 22 285 -17 q 90 139 125 60 q 54 342 54 218 q 90 556 54 476 q 204 669 126 635 q 408 704 282 704 m 621 963 l 621 832 l 204 832 l 204 963 l 621 963 z "},"ĕ":{"ha":783,"x_min":54,"x_max":735,"o":"m 408 704 q 658 645 582 704 q 733 469 733 586 q 686 328 735 375 q 518 282 638 282 l 135 282 l 135 397 l 461 397 q 522 417 508 397 q 535 474 535 438 q 506 541 533 522 q 415 560 479 560 q 326 544 358 560 q 282 486 294 529 q 269 361 269 443 q 285 228 269 275 q 337 164 300 182 q 439 146 374 146 q 556 149 486 146 q 697 161 626 153 l 717 35 q 625 4 676 15 q 519 -12 574 -7 q 415 -17 465 -17 q 205 22 285 -17 q 90 139 125 60 q 54 342 54 218 q 90 556 54 476 q 204 669 126 635 q 408 704 282 704 m 542 1006 l 640 992 q 622 886 649 935 q 543 809 596 838 q 413 781 490 781 q 283 809 338 781 q 203 886 229 838 q 183 992 176 935 l 282 1006 q 314 936 282 960 q 414 913 346 913 q 510 936 479 913 q 542 1006 542 960 z "},"ė":{"ha":783,"x_min":54,"x_max":735,"o":"m 408 704 q 658 645 582 704 q 733 469 733 586 q 686 328 735 375 q 518 282 638 282 l 135 282 l 135 397 l 461 397 q 522 417 508 397 q 535 474 535 438 q 506 541 533 522 q 415 560 479 560 q 326 544 358 560 q 282 486 294 529 q 269 361 269 443 q 285 228 269 275 q 337 164 300 182 q 439 146 374 146 q 556 149 486 146 q 697 161 626 153 l 717 35 q 625 4 676 15 q 519 -12 574 -7 q 415 -17 465 -17 q 205 22 285 -17 q 90 139 125 60 q 54 342 54 218 q 90 556 54 476 q 204 669 126 635 q 408 704 282 704 m 444 988 q 503 931 503 988 l 503 858 q 444 800 503 800 l 381 800 q 322 858 322 800 l 322 931 q 381 988 322 988 l 444 988 z "},"ę":{"ha":783,"x_min":54,"x_max":735,"o":"m 408 704 q 658 645 582 704 q 733 469 733 586 q 686 328 735 375 q 518 282 638 282 l 135 282 l 135 397 l 461 397 q 522 417 508 397 q 535 474 535 438 q 506 541 533 522 q 415 560 479 560 q 326 544 358 560 q 282 486 294 529 q 269 361 269 443 q 285 228 269 275 q 337 164 300 182 q 439 146 374 146 q 556 149 486 146 q 697 161 626 153 l 717 35 q 625 4 676 15 q 519 -12 574 -7 q 415 -17 465 -17 q 205 22 285 -17 q 90 139 125 60 q 54 342 54 218 q 90 556 54 476 q 204 669 126 635 q 408 704 282 704 m 633 38 l 717 35 q 672 -31 693 3 q 632 -104 650 -64 q 640 -160 613 -149 q 719 -158 668 -171 l 735 -232 q 608 -263 660 -262 q 527 -243 557 -264 q 490 -189 497 -222 q 494 -119 482 -156 q 539 -44 506 -85 q 633 38 572 -4 z "},"ě":{"ha":783,"x_min":54,"x_max":735,"o":"m 408 704 q 658 645 582 704 q 733 469 733 586 q 686 328 735 375 q 518 282 638 282 l 135 282 l 135 397 l 461 397 q 522 417 508 397 q 535 474 535 438 q 506 541 533 522 q 415 560 479 560 q 326 544 358 560 q 282 486 294 529 q 269 361 269 443 q 285 228 269 275 q 337 164 300 182 q 439 146 374 146 q 556 149 486 146 q 697 161 626 153 l 717 35 q 625 4 676 15 q 519 -12 574 -7 q 415 -17 465 -17 q 205 22 285 -17 q 90 139 125 60 q 54 342 54 218 q 90 556 54 476 q 204 669 126 635 q 408 704 282 704 m 614 1039 l 668 960 l 456 781 l 371 781 l 157 960 l 213 1039 l 408 926 l 419 926 l 614 1039 z "},"ĝ":{"ha":807,"x_min":33,"x_max":790,"o":"m 389 704 q 578 682 508 704 q 680 613 649 660 q 711 486 711 565 q 681 362 711 410 q 578 292 650 314 q 388 269 507 269 q 197 292 268 269 q 94 361 125 314 q 63 486 63 408 q 94 612 63 564 q 197 682 125 660 q 389 704 269 704 m 388 578 q 282 558 311 578 q 253 486 253 538 q 282 414 253 435 q 388 393 311 393 q 492 414 464 393 q 519 486 519 435 q 492 558 519 538 q 388 578 464 578 m 790 686 l 779 599 l 596 575 l 546 686 l 790 686 m 181 311 l 283 293 q 256 258 264 282 q 260 214 249 235 q 308 189 271 193 l 561 160 q 714 99 669 149 q 758 -44 758 50 q 722 -181 758 -133 q 607 -247 686 -229 q 396 -265 528 -265 q 217 -255 288 -265 q 106 -221 147 -244 q 49 -159 65 -197 q 33 -64 33 -121 q 49 10 33 -21 q 101 67 64 42 q 204 113 138 92 l 306 149 l 379 119 l 324 83 q 267 41 289 58 q 237 7 246 24 q 228 -37 228 -10 q 242 -87 228 -69 q 292 -110 256 -104 q 393 -117 329 -117 q 497 -110 460 -117 q 549 -87 535 -104 q 564 -40 564 -71 q 553 -1 564 -14 q 519 17 543 11 q 451 29 494 24 l 236 53 q 151 82 182 58 q 109 140 121 106 q 103 208 97 174 q 128 271 108 243 q 181 311 149 299 m 467 1013 l 653 826 l 599 753 l 399 885 l 388 885 l 183 753 l 129 832 l 318 1013 l 467 1013 z "},"ğ":{"ha":807,"x_min":33,"x_max":790,"o":"m 389 704 q 578 682 508 704 q 680 613 649 660 q 711 486 711 565 q 681 362 711 410 q 578 292 650 314 q 388 269 507 269 q 197 292 268 269 q 94 361 125 314 q 63 486 63 408 q 94 612 63 564 q 197 682 125 660 q 389 704 269 704 m 388 578 q 282 558 311 578 q 253 486 253 538 q 282 414 253 435 q 388 393 311 393 q 492 414 464 393 q 519 486 519 435 q 492 558 519 538 q 388 578 464 578 m 790 686 l 779 599 l 596 575 l 546 686 l 790 686 m 181 311 l 283 293 q 256 258 264 282 q 260 214 249 235 q 308 189 271 193 l 561 160 q 714 99 669 149 q 758 -44 758 50 q 722 -181 758 -133 q 607 -247 686 -229 q 396 -265 528 -265 q 217 -255 288 -265 q 106 -221 147 -244 q 49 -159 65 -197 q 33 -64 33 -121 q 49 10 33 -21 q 101 67 64 42 q 204 113 138 92 l 306 149 l 379 119 l 324 83 q 267 41 289 58 q 237 7 246 24 q 228 -37 228 -10 q 242 -87 228 -69 q 292 -110 256 -104 q 393 -117 329 -117 q 497 -110 460 -117 q 549 -87 535 -104 q 564 -40 564 -71 q 553 -1 564 -14 q 519 17 543 11 q 451 29 494 24 l 236 53 q 151 82 182 58 q 109 140 121 106 q 103 208 97 174 q 128 271 108 243 q 181 311 149 299 m 521 1000 l 619 986 q 601 881 628 929 q 522 803 575 832 q 392 775 469 775 q 263 803 317 775 q 182 881 208 832 q 163 986 156 929 l 261 1000 q 293 931 261 954 q 393 907 325 907 q 490 931 458 907 q 521 1000 521 954 z "},"ġ":{"ha":807,"x_min":33,"x_max":790,"o":"m 389 704 q 578 682 508 704 q 680 613 649 660 q 711 486 711 565 q 681 362 711 410 q 578 292 650 314 q 388 269 507 269 q 197 292 268 269 q 94 361 125 314 q 63 486 63 408 q 94 612 63 564 q 197 682 125 660 q 389 704 269 704 m 388 578 q 282 558 311 578 q 253 486 253 538 q 282 414 253 435 q 388 393 311 393 q 492 414 464 393 q 519 486 519 435 q 492 558 519 538 q 388 578 464 578 m 790 686 l 779 599 l 596 575 l 546 686 l 790 686 m 181 311 l 283 293 q 256 258 264 282 q 260 214 249 235 q 308 189 271 193 l 561 160 q 714 99 669 149 q 758 -44 758 50 q 722 -181 758 -133 q 607 -247 686 -229 q 396 -265 528 -265 q 217 -255 288 -265 q 106 -221 147 -244 q 49 -159 65 -197 q 33 -64 33 -121 q 49 10 33 -21 q 101 67 64 42 q 204 113 138 92 l 306 149 l 379 119 l 324 83 q 267 41 289 58 q 237 7 246 24 q 228 -37 228 -10 q 242 -87 228 -69 q 292 -110 256 -104 q 393 -117 329 -117 q 497 -110 460 -117 q 549 -87 535 -104 q 564 -40 564 -71 q 553 -1 564 -14 q 519 17 543 11 q 451 29 494 24 l 236 53 q 151 82 182 58 q 109 140 121 106 q 103 208 97 174 q 128 271 108 243 q 181 311 149 299 m 425 981 q 483 924 483 981 l 483 851 q 425 793 483 793 l 361 793 q 303 851 303 793 l 303 924 q 361 981 303 981 l 425 981 z "},"ģ":{"ha":807,"x_min":33,"x_max":790,"o":"m 388 768 q 336 781 350 768 q 321 825 322 793 l 321 896 q 329 975 322 940 q 351 1040 336 1010 q 386 1099 365 1069 l 461 1078 q 447 1009 451 1043 q 442 935 443 975 q 496 885 494 935 l 494 825 q 479 781 494 793 q 429 768 464 768 l 388 768 m 389 704 q 578 682 508 704 q 680 613 649 660 q 711 486 711 565 q 681 362 711 410 q 578 292 650 314 q 388 269 507 269 q 197 292 268 269 q 94 361 125 314 q 63 486 63 408 q 94 612 63 564 q 197 682 125 660 q 389 704 269 704 m 388 578 q 282 558 311 578 q 253 486 253 538 q 282 414 253 435 q 388 393 311 393 q 492 414 464 393 q 519 486 519 435 q 492 558 519 538 q 388 578 464 578 m 790 686 l 779 599 l 596 575 l 546 686 l 790 686 m 181 311 l 283 293 q 256 258 264 282 q 260 214 249 235 q 308 189 271 193 l 561 160 q 714 99 669 149 q 758 -44 758 50 q 722 -181 758 -133 q 607 -247 686 -229 q 396 -265 528 -265 q 217 -255 288 -265 q 106 -221 147 -244 q 49 -159 65 -197 q 33 -64 33 -121 q 49 10 33 -21 q 101 67 64 42 q 204 113 138 92 l 306 149 l 379 119 l 324 83 q 267 41 289 58 q 237 7 246 24 q 228 -37 228 -10 q 242 -87 228 -69 q 292 -110 256 -104 q 393 -117 329 -117 q 497 -110 460 -117 q 549 -87 535 -104 q 564 -40 564 -71 q 553 -1 564 -14 q 519 17 543 11 q 451 29 494 24 l 236 53 q 151 82 182 58 q 109 140 121 106 q 103 208 97 174 q 128 271 108 243 q 181 311 149 299 z "},"ĥ":{"ha":835,"x_min":-76,"x_max":756,"o":"m 561 704 q 756 514 756 704 l 756 0 l 549 0 l 549 450 q 533 513 549 496 q 476 531 517 531 q 385 514 432 531 q 268 460 338 497 l 250 567 q 406 669 326 633 q 561 704 485 704 m 289 972 l 290 735 q 284 632 290 681 q 269 550 278 583 l 289 532 l 289 0 l 83 0 l 83 972 l 289 972 m 261 1235 l 447 1049 l 393 975 l 193 1107 l 182 1107 l -22 975 l -76 1054 l 113 1235 l 261 1235 z "},"ħ":{"ha":840,"x_min":-3,"x_max":760,"o":"m 469 871 l 469 778 l -3 778 l -3 871 l 469 871 m 565 704 q 760 514 760 704 l 760 0 l 554 0 l 554 450 q 538 513 554 496 q 481 531 521 531 q 390 514 438 531 q 272 460 342 497 l 254 567 q 410 669 331 633 q 565 704 490 704 m 294 972 l 296 735 q 290 632 296 681 q 274 550 283 583 l 294 532 l 294 0 l 89 0 l 89 972 l 294 972 z "},"ì":{"ha":385,"x_min":-71,"x_max":300,"o":"m 296 686 l 296 0 l 89 0 l 89 686 l 296 686 m 18 1064 l 300 858 l 240 771 l -71 926 l 18 1064 z "},"í":{"ha":385,"x_min":71,"x_max":442,"o":"m 296 686 l 296 0 l 89 0 l 89 686 l 296 686 m 353 1056 l 442 917 l 132 763 l 71 850 l 353 1056 z "},"î":{"ha":385,"x_min":-72,"x_max":451,"o":"m 296 686 l 296 0 l 89 0 l 89 686 l 296 686 m 265 1019 l 451 833 l 397 760 l 197 892 l 186 892 l -18 760 l -72 839 l 117 1019 l 265 1019 z "},"ĩ":{"ha":385,"x_min":-62,"x_max":440,"o":"m 296 686 l 296 0 l 89 0 l 89 686 l 296 686 m 61 1003 q 124 991 96 1000 q 177 971 151 982 q 228 949 203 960 q 282 935 254 939 q 327 944 318 929 q 336 996 336 960 l 425 996 q 406 847 440 897 q 311 800 371 796 q 226 819 264 804 q 155 849 188 833 q 89 869 122 865 q 45 858 54 874 q 36 806 36 843 l -53 806 q -49 919 -62 875 q -4 985 -35 964 q 61 1003 26 1006 z "},"ï":{"ha":385,"x_min":-15,"x_max":394,"o":"m 296 686 l 296 0 l 89 0 l 89 686 l 296 686 m 350 985 q 394 940 394 985 l 394 858 q 350 814 394 814 l 282 814 q 239 858 239 814 l 239 940 q 282 985 239 985 l 350 985 m 96 985 q 139 940 139 985 l 139 858 q 96 814 139 814 l 28 814 q -15 858 -15 814 l -15 940 q 28 985 -15 985 l 96 985 z "},"ī":{"ha":385,"x_min":-15,"x_max":400,"o":"m 296 686 l 296 0 l 89 0 l 89 686 l 296 686 m 400 964 l 400 833 l -17 833 l -17 964 l 400 964 z "},"ĭ":{"ha":385,"x_min":-46,"x_max":426,"o":"m 296 686 l 296 0 l 89 0 l 89 686 l 296 686 m 319 1007 l 418 993 q 400 888 426 936 q 321 810 374 839 q 190 782 268 782 q 61 810 115 782 q -19 888 7 839 q -39 993 -46 936 l 60 1007 q 92 938 60 961 q 192 914 124 914 q 288 938 257 914 q 319 1007 319 961 z "},"į":{"ha":385,"x_min":43,"x_max":296,"o":"m 296 686 l 296 0 l 89 0 l 89 686 l 296 686 m 224 989 q 282 932 282 989 l 282 860 q 224 801 282 801 l 160 801 q 101 860 101 801 l 101 932 q 160 989 101 989 l 224 989 m 194 3 l 278 0 q 233 -65 254 -32 q 193 -139 211 -99 q 201 -194 174 -183 q 281 -193 229 -206 l 296 -267 q 169 -298 221 -297 q 88 -278 118 -299 q 51 -224 58 -257 q 56 -154 43 -190 q 100 -79 67 -119 q 194 3 133 -39 z "},"ĳ":{"ha":768,"x_min":86,"x_max":679,"o":"m 293 686 l 293 0 l 89 0 l 89 686 l 293 686 m 236 989 q 297 926 297 989 l 297 853 q 236 790 297 790 l 147 790 q 86 853 86 790 l 86 926 q 147 989 86 989 l 236 989 m 679 686 l 679 32 q 658 -90 679 -31 q 597 -196 636 -149 q 501 -272 557 -243 l 388 -183 q 454 -81 435 -131 q 474 32 474 -31 l 474 686 l 679 686 m 619 996 q 679 935 679 996 l 679 860 q 619 797 679 797 l 529 797 q 469 860 469 797 l 469 935 q 529 996 469 996 l 619 996 z "},"ĵ":{"ha":385,"x_min":-71,"x_max":453,"o":"m 296 686 l 296 32 q 274 -90 296 -31 q 213 -196 253 -149 q 118 -272 174 -243 l 4 -183 q 71 -81 51 -131 q 90 32 90 -31 l 90 686 l 296 686 m 267 1019 l 453 833 l 399 760 l 199 892 l 188 892 l -17 760 l -71 839 l 118 1019 l 267 1019 z "},"ķ":{"ha":776,"x_min":83,"x_max":771,"o":"m 425 -67 q 476 -79 463 -67 q 490 -124 490 -92 l 490 -194 q 483 -274 490 -239 q 460 -339 475 -308 q 426 -397 446 -369 l 351 -378 q 365 -308 361 -342 q 371 -235 369 -274 q 315 -183 317 -235 l 318 -124 q 333 -79 318 -92 q 383 -67 349 -67 l 425 -67 m 747 686 l 568 447 q 536 410 556 428 q 504 383 517 392 l 504 378 q 536 349 517 371 q 568 304 556 326 l 771 0 l 542 0 l 307 386 l 518 686 l 747 686 m 289 972 l 290 571 q 285 476 290 522 q 268 386 279 431 q 283 298 278 343 q 289 214 289 253 l 289 0 l 83 0 l 83 972 l 289 972 m 385 444 l 385 319 l 225 319 l 225 444 l 385 444 z "},"ĺ":{"ha":456,"x_min":67,"x_max":450,"o":"m 290 972 l 289 219 q 310 167 289 185 q 371 150 331 150 l 426 150 l 450 11 q 403 -3 433 3 q 340 -13 372 -10 q 286 -17 308 -17 q 139 32 193 -17 q 85 168 85 81 l 85 972 l 290 972 m 349 1314 l 438 1175 l 128 1021 l 67 1108 l 349 1314 z "},"ļ":{"ha":456,"x_min":85,"x_max":450,"o":"m 274 -75 q 325 -87 311 -75 q 339 -132 339 -100 l 339 -204 q 331 -282 339 -247 q 309 -347 324 -317 q 275 -406 294 -378 l 199 -386 q 214 -316 210 -350 q 219 -243 218 -282 q 164 -193 165 -243 l 167 -132 q 181 -87 167 -100 q 232 -75 196 -75 l 274 -75 m 290 972 l 289 219 q 310 167 289 185 q 371 150 331 150 l 426 150 l 450 11 q 403 -3 433 3 q 340 -13 372 -10 q 286 -17 308 -17 q 139 32 193 -17 q 85 168 85 81 l 85 972 l 290 972 z "},"ľ":{"ha":456,"x_min":85,"x_max":515,"o":"m 290 972 l 289 219 q 310 167 289 185 q 371 150 331 150 l 426 150 l 450 11 q 403 -3 433 3 q 340 -13 372 -10 q 286 -17 308 -17 q 139 32 193 -17 q 85 168 85 81 l 85 972 l 290 972 m 457 976 q 503 963 490 976 q 515 917 515 950 l 515 842 q 501 726 517 775 q 458 632 485 678 l 389 653 q 401 726 399 690 q 406 801 404 761 q 357 854 356 801 l 358 917 q 373 963 360 950 q 418 976 386 976 l 457 976 z "},"ŀ":{"ha":554,"x_min":85,"x_max":551,"o":"m 431 449 q 371 507 371 449 l 371 578 q 431 636 371 636 l 493 636 q 551 578 551 636 l 551 507 q 493 449 551 449 l 431 449 m 290 972 l 289 219 q 310 167 289 185 q 371 150 331 150 l 426 150 l 450 11 q 403 -3 433 3 q 340 -13 372 -10 q 286 -17 308 -17 q 139 32 193 -17 q 85 168 85 81 l 85 972 l 290 972 z "},"ł":{"ha":499,"x_min":17,"x_max":485,"o":"m 458 676 l 458 565 l 17 389 l 17 500 l 458 676 m 325 972 l 325 219 q 346 167 325 185 q 406 150 367 150 l 463 150 l 485 11 q 438 -3 468 3 q 375 -13 407 -10 q 321 -17 343 -17 q 174 32 228 -17 q 121 168 121 81 l 121 972 l 325 972 z "},"ñ":{"ha":835,"x_min":83,"x_max":756,"o":"m 561 704 q 756 514 756 704 l 756 0 l 550 0 l 550 450 q 533 513 550 496 q 476 531 517 531 q 385 513 432 531 q 268 460 338 496 l 258 575 q 409 671 332 638 q 561 704 486 704 m 249 686 l 272 550 l 289 532 l 289 0 l 83 0 l 83 686 l 249 686 m 297 1001 q 360 990 332 999 q 413 969 388 981 q 465 948 439 958 q 518 933 490 938 q 563 943 554 928 q 572 994 572 958 l 661 994 q 642 845 676 896 q 547 799 607 794 q 462 817 500 803 q 391 848 424 832 q 325 868 358 864 q 281 857 290 872 q 272 804 272 842 l 183 804 q 188 918 174 874 q 232 983 201 963 q 297 1001 263 1004 z "},"ń":{"ha":835,"x_min":83,"x_max":756,"o":"m 561 704 q 756 514 756 704 l 756 0 l 550 0 l 550 450 q 533 513 550 496 q 476 531 517 531 q 385 513 432 531 q 268 460 338 496 l 258 575 q 409 671 332 638 q 561 704 486 704 m 249 686 l 272 550 l 289 532 l 289 0 l 83 0 l 83 686 l 249 686 m 588 1056 l 676 917 l 367 763 l 306 850 l 588 1056 z "},"ņ":{"ha":835,"x_min":83,"x_max":756,"o":"m 431 -67 q 482 -79 468 -67 q 496 -124 496 -92 l 496 -194 q 488 -274 496 -239 q 466 -339 481 -308 q 432 -397 451 -369 l 356 -378 q 371 -308 367 -342 q 375 -235 375 -274 q 321 -183 322 -235 l 324 -124 q 338 -79 324 -92 q 389 -67 353 -67 l 431 -67 m 561 704 q 756 514 756 704 l 756 0 l 550 0 l 550 450 q 533 513 550 496 q 476 531 517 531 q 385 513 432 531 q 268 460 338 496 l 258 575 q 409 671 332 638 q 561 704 486 704 m 249 686 l 272 550 l 289 532 l 289 0 l 83 0 l 83 686 l 249 686 z "},"ň":{"ha":835,"x_min":83,"x_max":756,"o":"m 561 704 q 756 514 756 704 l 756 0 l 550 0 l 550 450 q 533 513 550 496 q 476 531 517 531 q 385 513 432 531 q 268 460 338 496 l 258 575 q 409 671 332 638 q 561 704 486 704 m 249 686 l 272 550 l 289 532 l 289 0 l 83 0 l 83 686 l 249 686 m 629 1039 l 683 960 l 471 781 l 386 781 l 172 960 l 228 1039 l 424 926 l 435 926 l 629 1039 z "},"ŋ":{"ha":835,"x_min":83,"x_max":756,"o":"m 560 704 q 756 514 756 704 l 756 -64 q 705 -222 756 -167 q 560 -278 654 -278 q 506 -274 538 -278 q 445 -265 475 -271 q 393 -250 415 -260 l 417 -118 l 471 -118 q 550 -46 550 -118 l 550 450 q 533 509 550 492 q 475 526 517 526 q 391 512 436 526 q 289 469 346 497 l 289 0 l 83 0 l 83 686 l 244 686 l 263 579 q 413 673 338 642 q 560 704 489 704 z "},"ò":{"ha":819,"x_min":56,"x_max":763,"o":"m 410 704 q 617 669 539 704 q 728 554 694 633 q 763 342 763 475 q 728 132 763 211 q 617 18 694 53 q 410 -17 539 -17 q 203 18 282 -17 q 90 132 125 53 q 56 342 56 211 q 90 554 56 475 q 203 669 125 633 q 410 704 282 704 m 410 554 q 326 536 357 554 q 283 472 296 518 q 271 342 271 426 q 283 213 271 258 q 326 149 296 167 q 410 132 357 132 q 493 149 463 132 q 536 213 524 167 q 549 342 549 258 q 536 472 549 426 q 493 536 524 518 q 410 554 463 554 m 239 1054 l 521 849 l 461 761 l 150 917 l 239 1054 z "},"ó":{"ha":819,"x_min":56,"x_max":763,"o":"m 410 704 q 617 669 539 704 q 728 554 694 633 q 763 342 763 475 q 728 132 763 211 q 617 18 694 53 q 410 -17 539 -17 q 203 18 282 -17 q 90 132 125 53 q 56 342 56 211 q 90 554 56 475 q 203 669 125 633 q 410 704 282 704 m 410 554 q 326 536 357 554 q 283 472 296 518 q 271 342 271 426 q 283 213 271 258 q 326 149 296 167 q 410 132 357 132 q 493 149 463 132 q 536 213 524 167 q 549 342 549 258 q 536 472 549 426 q 493 536 524 518 q 410 554 463 554 m 571 1046 l 660 907 l 350 753 l 289 840 l 571 1046 z "},"ô":{"ha":819,"x_min":56,"x_max":763,"o":"m 410 704 q 617 669 539 704 q 728 554 694 633 q 763 342 763 475 q 728 132 763 211 q 617 18 694 53 q 410 -17 539 -17 q 203 18 282 -17 q 90 132 125 53 q 56 342 56 211 q 90 554 56 475 q 203 669 125 633 q 410 704 282 704 m 410 554 q 326 536 357 554 q 283 472 296 518 q 271 342 271 426 q 283 213 271 258 q 326 149 296 167 q 410 132 357 132 q 493 149 463 132 q 536 213 524 167 q 549 342 549 258 q 536 472 549 426 q 493 536 524 518 q 410 554 463 554 m 486 1010 l 672 824 l 618 750 l 418 882 l 407 882 l 203 750 l 149 829 l 338 1010 l 486 1010 z "},"õ":{"ha":819,"x_min":56,"x_max":763,"o":"m 410 704 q 617 669 539 704 q 728 554 694 633 q 763 342 763 475 q 728 132 763 211 q 617 18 694 53 q 410 -17 539 -17 q 203 18 282 -17 q 90 132 125 53 q 56 342 56 211 q 90 554 56 475 q 203 669 125 633 q 410 704 282 704 m 410 554 q 326 536 357 554 q 283 472 296 518 q 271 342 271 426 q 283 213 271 258 q 326 149 296 167 q 410 132 357 132 q 493 149 463 132 q 536 213 524 167 q 549 342 549 258 q 536 472 549 426 q 493 536 524 518 q 410 554 463 554 m 281 992 q 343 980 315 989 q 397 960 371 971 q 448 938 422 949 q 501 924 474 928 q 547 933 538 918 q 556 985 556 949 l 644 985 q 625 835 660 886 q 531 789 590 785 q 445 808 483 793 q 374 838 407 822 q 308 858 342 854 q 265 847 274 863 q 256 794 256 832 l 167 794 q 171 908 157 864 q 215 974 185 953 q 281 992 246 994 z "},"ö":{"ha":819,"x_min":56,"x_max":763,"o":"m 410 704 q 617 669 539 704 q 728 554 694 633 q 763 342 763 475 q 728 132 763 211 q 617 18 694 53 q 410 -17 539 -17 q 203 18 282 -17 q 90 132 125 53 q 56 342 56 211 q 90 554 56 475 q 203 669 125 633 q 410 704 282 704 m 410 554 q 326 536 357 554 q 283 472 296 518 q 271 342 271 426 q 283 213 271 258 q 326 149 296 167 q 410 132 357 132 q 493 149 463 132 q 536 213 524 167 q 549 342 549 258 q 536 472 549 426 q 493 536 524 518 q 410 554 463 554 m 571 975 q 615 931 615 975 l 615 849 q 571 804 615 804 l 503 804 q 460 849 460 804 l 460 931 q 503 975 460 975 l 571 975 m 317 975 q 360 931 360 975 l 360 849 q 317 804 360 804 l 249 804 q 206 849 206 804 l 206 931 q 249 975 206 975 l 317 975 z "},"ō":{"ha":819,"x_min":56,"x_max":763,"o":"m 410 704 q 617 669 539 704 q 728 554 694 633 q 763 342 763 475 q 728 132 763 211 q 617 18 694 53 q 410 -17 539 -17 q 203 18 282 -17 q 90 132 125 53 q 56 342 56 211 q 90 554 56 475 q 203 669 125 633 q 410 704 282 704 m 410 554 q 326 536 357 554 q 283 472 296 518 q 271 342 271 426 q 283 213 271 258 q 326 149 296 167 q 410 132 357 132 q 493 149 463 132 q 536 213 524 167 q 549 342 549 258 q 536 472 549 426 q 493 536 524 518 q 410 554 463 554 m 621 954 l 621 824 l 204 824 l 204 954 l 621 954 z "},"ŏ":{"ha":819,"x_min":56,"x_max":763,"o":"m 410 704 q 617 669 539 704 q 728 554 694 633 q 763 342 763 475 q 728 132 763 211 q 617 18 694 53 q 410 -17 539 -17 q 203 18 282 -17 q 90 132 125 53 q 56 342 56 211 q 90 554 56 475 q 203 669 125 633 q 410 704 282 704 m 410 554 q 326 536 357 554 q 283 472 296 518 q 271 342 271 426 q 283 213 271 258 q 326 149 296 167 q 410 132 357 132 q 493 149 463 132 q 536 213 524 167 q 549 342 549 258 q 536 472 549 426 q 493 536 524 518 q 410 554 463 554 m 540 996 l 639 982 q 621 876 647 925 q 542 799 594 828 q 411 771 489 771 q 282 799 336 771 q 201 876 228 828 q 182 982 175 925 l 281 996 q 313 926 281 950 q 413 903 344 903 q 509 926 478 903 q 540 996 540 950 z "},"ő":{"ha":819,"x_min":56,"x_max":763,"o":"m 410 704 q 617 669 539 704 q 728 554 694 633 q 763 342 763 475 q 728 132 763 211 q 617 18 694 53 q 410 -17 539 -17 q 203 18 282 -17 q 90 132 125 53 q 56 342 56 211 q 90 554 56 475 q 203 669 125 633 q 410 704 282 704 m 410 554 q 326 536 357 554 q 283 472 296 518 q 271 342 271 426 q 283 213 271 258 q 326 149 296 167 q 410 132 357 132 q 493 149 463 132 q 536 213 524 167 q 549 342 549 258 q 536 472 549 426 q 493 536 524 518 q 410 554 463 554 m 335 1061 l 468 972 l 257 739 l 172 806 l 335 1061 m 599 1061 l 731 972 l 519 739 l 436 804 l 599 1061 z "},"ø":{"ha":819,"x_min":56,"x_max":763,"o":"m 585 804 l 644 775 l 229 -117 l 171 -89 l 585 804 m 410 704 q 617 669 539 704 q 728 554 694 633 q 763 342 763 475 q 728 132 763 211 q 617 18 694 53 q 410 -17 539 -17 q 203 18 282 -17 q 90 132 125 53 q 56 342 56 211 q 90 554 56 475 q 203 669 125 633 q 410 704 282 704 m 410 554 q 326 536 357 554 q 283 472 296 518 q 271 342 271 426 q 283 213 271 258 q 326 149 296 167 q 410 132 357 132 q 493 149 463 132 q 536 213 524 167 q 549 342 549 258 q 536 472 549 426 q 493 536 524 518 q 410 554 463 554 z "},"œ":{"ha":1261,"x_min":56,"x_max":1214,"o":"m 407 -17 q 201 18 278 -17 q 90 132 124 53 q 56 342 56 211 q 90 554 56 475 q 201 669 124 633 q 407 704 278 704 q 609 669 533 704 q 719 554 685 633 q 753 342 753 475 q 719 132 753 211 q 609 18 685 53 q 407 -17 533 -17 m 407 132 q 490 149 460 132 q 533 213 521 167 q 546 342 546 258 q 533 472 546 426 q 491 536 521 518 q 408 554 461 554 q 326 536 356 554 q 284 472 296 518 q 272 342 272 426 q 284 213 272 258 q 325 149 296 167 q 407 132 354 132 m 896 -18 q 691 20 768 -18 q 579 138 614 58 q 544 340 544 217 q 578 553 544 475 q 688 667 613 632 q 886 703 763 703 q 1137 644 1063 703 q 1213 474 1211 585 q 1190 362 1214 404 q 1115 301 1167 319 q 971 283 1063 283 l 619 283 l 619 396 l 928 396 q 997 413 979 396 q 1013 478 1014 431 q 982 540 1011 522 q 889 558 953 558 q 806 542 836 558 q 763 483 775 526 q 751 360 751 440 q 767 227 751 274 q 819 163 782 181 q 921 144 856 144 q 1035 148 967 144 q 1175 160 1104 151 l 1194 33 q 1104 3 1154 14 q 1001 -13 1054 -8 q 896 -18 947 -18 z "},"ŕ":{"ha":593,"x_min":83,"x_max":579,"o":"m 244 686 l 269 550 l 289 532 l 289 0 l 83 0 l 83 686 l 244 686 m 579 704 l 560 514 l 503 514 q 401 500 454 514 q 268 458 349 486 l 254 574 q 400 671 326 638 q 543 704 474 704 l 579 704 m 474 1056 l 563 917 l 253 763 l 192 850 l 474 1056 z "},"ŗ":{"ha":593,"x_min":83,"x_max":579,"o":"m 194 -67 q 244 -79 231 -67 q 260 -124 258 -92 l 260 -194 q 251 -274 258 -239 q 230 -339 244 -308 q 194 -397 215 -369 l 119 -378 q 135 -308 131 -342 q 139 -235 139 -274 q 85 -183 86 -235 l 86 -124 q 101 -79 86 -92 q 153 -67 117 -67 l 194 -67 m 244 686 l 269 550 l 289 532 l 289 0 l 83 0 l 83 686 l 244 686 m 579 704 l 560 514 l 503 514 q 401 500 454 514 q 268 458 349 486 l 254 574 q 400 671 326 638 q 543 704 474 704 l 579 704 z "},"ř":{"ha":593,"x_min":58,"x_max":579,"o":"m 244 686 l 269 550 l 289 532 l 289 0 l 83 0 l 83 686 l 244 686 m 579 704 l 560 514 l 503 514 q 401 500 454 514 q 268 458 349 486 l 254 574 q 400 671 326 638 q 543 704 474 704 l 579 704 m 515 1040 l 569 961 l 357 782 l 272 782 l 58 961 l 114 1040 l 310 928 l 321 928 l 515 1040 z "},"ś":{"ha":738,"x_min":51,"x_max":689,"o":"m 344 704 q 453 701 394 704 q 567 692 511 697 q 665 678 622 686 l 651 550 q 517 552 585 551 q 386 553 450 553 q 303 551 332 554 q 262 538 274 549 q 250 501 250 528 q 271 460 250 471 q 340 438 292 450 l 519 394 q 647 328 606 372 q 689 197 689 285 q 657 65 689 111 q 556 2 625 19 q 376 -15 486 -15 q 249 -11 333 -15 q 63 10 164 -7 l 76 138 q 140 135 101 136 q 225 135 179 135 q 317 135 271 135 q 425 138 388 135 q 476 154 463 142 q 490 192 490 167 q 467 233 490 222 q 392 257 443 244 l 218 300 q 117 346 153 318 q 66 414 81 374 q 51 510 51 454 q 80 623 51 581 q 173 685 108 665 q 344 704 238 704 m 536 1049 l 625 910 l 315 756 l 254 843 l 536 1049 z "},"ŝ":{"ha":738,"x_min":51,"x_max":689,"o":"m 344 704 q 453 701 394 704 q 567 692 511 697 q 665 678 622 686 l 651 550 q 517 552 585 551 q 386 553 450 553 q 303 551 332 554 q 262 538 274 549 q 250 501 250 528 q 271 460 250 471 q 340 438 292 450 l 519 394 q 647 328 606 372 q 689 197 689 285 q 657 65 689 111 q 556 2 625 19 q 376 -15 486 -15 q 249 -11 333 -15 q 63 10 164 -7 l 76 138 q 140 135 101 136 q 225 135 179 135 q 317 135 271 135 q 425 138 388 135 q 476 154 463 142 q 490 192 490 167 q 467 233 490 222 q 392 257 443 244 l 218 300 q 117 346 153 318 q 66 414 81 374 q 51 510 51 454 q 80 623 51 581 q 173 685 108 665 q 344 704 238 704 m 449 1013 l 635 826 l 581 753 l 381 885 l 369 885 l 165 753 l 111 832 l 300 1013 l 449 1013 z "},"ş":{"ha":738,"x_min":51,"x_max":689,"o":"m 344 704 q 453 701 394 704 q 567 692 511 697 q 665 678 622 686 l 651 550 q 517 552 585 551 q 386 553 450 553 q 303 551 332 554 q 262 538 274 549 q 250 501 250 528 q 271 460 250 471 q 340 438 292 450 l 519 394 q 647 328 606 372 q 689 197 689 285 q 657 65 689 111 q 556 2 625 19 q 376 -15 486 -15 q 249 -11 333 -15 q 63 10 164 -7 l 76 138 q 140 135 101 136 q 225 135 179 135 q 317 135 271 135 q 425 138 388 135 q 476 154 463 142 q 490 192 490 167 q 467 233 490 222 q 392 257 443 244 l 218 300 q 117 346 153 318 q 66 414 81 374 q 51 510 51 454 q 80 623 51 581 q 173 685 108 665 q 344 704 238 704 m 279 -72 q 394 -67 350 -64 q 460 -92 439 -71 q 479 -162 481 -114 q 439 -277 476 -232 q 339 -340 401 -322 q 200 -349 276 -358 l 224 -262 q 310 -245 275 -264 q 349 -181 346 -226 q 334 -156 351 -160 q 260 -150 317 -151 l 279 -72 z "},"š":{"ha":738,"x_min":51,"x_max":689,"o":"m 344 704 q 453 701 394 704 q 567 692 511 697 q 665 678 622 686 l 651 550 q 517 552 585 551 q 386 553 450 553 q 303 551 332 554 q 262 538 274 549 q 250 501 250 528 q 271 460 250 471 q 340 438 292 450 l 519 394 q 647 328 606 372 q 689 197 689 285 q 657 65 689 111 q 556 2 625 19 q 376 -15 486 -15 q 249 -11 333 -15 q 63 10 164 -7 l 76 138 q 140 135 101 136 q 225 135 179 135 q 317 135 271 135 q 425 138 388 135 q 476 154 463 142 q 490 192 490 167 q 467 233 490 222 q 392 257 443 244 l 218 300 q 117 346 153 318 q 66 414 81 374 q 51 510 51 454 q 80 623 51 581 q 173 685 108 665 q 344 704 238 704 m 576 1032 l 631 953 l 418 774 l 333 774 l 119 953 l 175 1032 l 371 919 l 382 919 l 576 1032 z "},"ș":{"ha":738,"x_min":51,"x_max":689,"o":"m 386 -67 q 438 -79 424 -67 q 451 -124 451 -92 l 451 -194 q 444 -274 451 -239 q 422 -339 436 -308 q 388 -397 407 -369 l 311 -378 q 326 -308 322 -342 q 331 -235 331 -274 q 276 -183 278 -235 l 279 -124 q 294 -79 279 -92 q 344 -67 308 -67 l 386 -67 m 344 704 q 453 701 394 704 q 567 692 511 697 q 665 678 622 686 l 651 550 q 517 552 585 551 q 386 553 450 553 q 303 551 332 554 q 262 538 274 549 q 250 501 250 528 q 271 460 250 471 q 340 438 292 450 l 519 394 q 647 328 606 372 q 689 197 689 285 q 657 65 689 111 q 556 2 625 19 q 376 -15 486 -15 q 249 -11 333 -15 q 63 10 164 -7 l 76 138 q 140 135 101 136 q 225 135 179 135 q 317 135 271 135 q 425 138 388 135 q 476 154 463 142 q 490 192 490 167 q 467 233 490 222 q 392 257 443 244 l 218 300 q 117 346 153 318 q 66 414 81 374 q 51 510 51 454 q 80 623 51 581 q 173 685 108 665 q 344 704 238 704 z "},"ß":{"ha":982,"x_min":25,"x_max":951,"o":"m 493 1017 q 696 997 622 1017 q 799 931 769 976 q 829 807 829 885 q 822 749 829 775 q 796 697 815 724 q 738 639 776 671 q 686 599 708 617 q 651 565 664 582 q 639 524 639 547 q 664 475 639 494 q 725 432 689 456 l 833 371 q 902 318 876 342 q 940 264 928 294 q 951 186 951 233 q 926 69 951 113 q 841 5 900 25 q 686 -15 782 -15 q 578 -12 635 -15 q 449 0 522 -8 l 461 133 q 549 131 506 132 q 639 131 593 131 q 702 134 679 131 q 735 151 725 138 q 746 193 746 164 q 733 234 746 217 q 697 268 719 251 q 644 304 674 285 l 550 350 q 474 417 503 381 q 446 511 446 454 q 463 578 446 551 q 508 627 479 604 q 572 682 538 650 q 626 738 611 715 q 640 796 640 761 q 628 838 640 822 q 586 862 617 854 q 497 869 556 869 q 406 860 439 869 q 361 824 374 850 q 349 747 349 797 l 349 0 l 143 0 l 143 771 q 164 894 143 846 q 228 969 185 942 q 337 1006 271 996 q 493 1017 403 1017 m 244 686 l 244 550 l 25 550 l 25 681 l 146 686 l 244 686 z "},"ț":{"ha":569,"x_min":25,"x_max":543,"o":"m 353 -74 q 403 -86 389 -74 q 418 -131 417 -99 l 418 -203 q 410 -281 417 -246 q 388 -346 403 -315 q 353 -404 374 -376 l 278 -385 q 292 -315 288 -349 q 297 -242 296 -281 q 243 -192 244 -242 l 244 -131 q 260 -86 244 -99 q 310 -74 275 -74 l 353 -74 m 351 876 l 351 219 q 369 166 351 182 q 426 150 386 150 l 515 150 l 538 11 q 476 -3 513 3 q 404 -13 440 -10 q 343 -17 368 -17 q 198 33 250 -17 q 146 174 146 83 l 144 876 l 351 876 m 543 686 l 543 551 l 25 551 l 25 679 l 158 686 l 543 686 z "},"ť":{"ha":569,"x_min":25,"x_max":571,"o":"m 351 876 l 351 219 q 369 166 351 182 q 426 150 386 150 l 515 150 l 538 11 q 476 -3 513 3 q 404 -13 440 -10 q 343 -17 368 -17 q 198 33 250 -17 q 146 174 146 83 l 144 876 l 351 876 m 543 686 l 543 551 l 25 551 l 25 679 l 158 686 l 543 686 m 513 1094 q 558 1081 546 1094 q 571 1035 571 1068 l 571 960 q 556 844 572 893 q 514 750 540 796 l 444 771 q 457 844 454 808 q 461 919 460 879 q 413 972 411 919 l 414 1035 q 428 1081 415 1068 q 474 1094 442 1094 l 513 1094 z "},"ŧ":{"ha":569,"x_min":25,"x_max":543,"o":"m 499 431 l 499 332 l 61 332 l 61 431 l 499 431 m 351 876 l 351 219 q 369 166 351 182 q 426 150 386 150 l 515 150 l 538 11 q 476 -3 513 3 q 404 -13 440 -10 q 343 -17 368 -17 q 198 33 250 -17 q 146 174 146 83 l 144 876 l 351 876 m 543 686 l 543 551 l 25 551 l 25 679 l 158 686 l 543 686 z "},"ţ":{"ha":569,"x_min":25,"x_max":543,"o":"m 351 876 l 351 219 q 369 166 351 182 q 426 150 386 150 l 515 150 l 538 11 q 476 -3 513 3 q 404 -13 440 -10 q 343 -17 368 -17 q 198 33 250 -17 q 146 174 146 83 l 144 876 l 351 876 m 543 686 l 543 551 l 25 551 l 25 679 l 158 686 l 543 686 m 279 -68 q 394 -63 350 -60 q 460 -88 439 -67 q 479 -158 481 -110 q 439 -273 476 -228 q 339 -336 401 -318 q 200 -344 276 -354 l 224 -258 q 310 -241 275 -260 q 349 -176 346 -222 q 334 -151 351 -156 q 260 -146 317 -147 l 279 -68 z "},"þ":{"ha":829,"x_min":83,"x_max":771,"o":"m 522 703 q 714 611 657 703 q 771 336 771 519 q 743 122 771 199 q 658 13 715 44 q 515 -19 601 -19 q 369 3 440 -19 q 244 75 299 25 l 267 168 q 352 138 313 150 q 438 126 392 126 q 508 143 482 126 q 547 205 535 160 q 558 336 558 250 q 547 467 558 422 q 509 529 535 513 q 442 546 483 546 q 362 529 399 546 q 285 485 325 513 l 250 579 q 360 667 294 632 q 522 703 425 703 m 289 972 l 289 785 q 288 696 290 740 q 282 610 286 651 l 289 593 l 289 94 l 282 78 q 288 -9 286 36 q 289 -99 290 -54 l 289 -264 l 83 -264 l 83 972 l 289 972 z "},"ù":{"ha":824,"x_min":79,"x_max":739,"o":"m 285 686 l 285 235 q 303 174 285 192 q 364 156 322 156 q 449 172 407 156 q 554 222 492 188 l 571 110 q 424 13 496 44 q 275 -19 351 -19 q 79 172 79 -19 l 79 686 l 285 686 m 739 686 l 739 0 l 576 0 l 553 135 l 533 154 l 533 686 l 739 686 m 238 1065 l 519 860 l 460 772 l 149 928 l 238 1065 z "},"ú":{"ha":824,"x_min":79,"x_max":739,"o":"m 285 686 l 285 235 q 303 174 285 192 q 364 156 322 156 q 449 172 407 156 q 554 222 492 188 l 571 110 q 424 13 496 44 q 275 -19 351 -19 q 79 172 79 -19 l 79 686 l 285 686 m 739 686 l 739 0 l 576 0 l 553 135 l 533 154 l 533 686 l 739 686 m 571 1057 l 660 918 l 350 764 l 289 851 l 571 1057 z "},"û":{"ha":824,"x_min":79,"x_max":739,"o":"m 285 686 l 285 235 q 303 174 285 192 q 364 156 322 156 q 449 172 407 156 q 554 222 492 188 l 571 110 q 424 13 496 44 q 275 -19 351 -19 q 79 172 79 -19 l 79 686 l 285 686 m 739 686 l 739 0 l 576 0 l 553 135 l 533 154 l 533 686 l 739 686 m 485 1022 l 671 836 l 617 763 l 417 894 l 406 894 l 201 763 l 147 842 l 336 1022 l 485 1022 z "},"ũ":{"ha":824,"x_min":79,"x_max":739,"o":"m 285 686 l 285 235 q 303 174 285 192 q 364 156 322 156 q 449 172 407 156 q 554 222 492 188 l 571 110 q 424 13 496 44 q 275 -19 351 -19 q 79 172 79 -19 l 79 686 l 285 686 m 739 686 l 739 0 l 576 0 l 553 135 l 533 154 l 533 686 l 739 686 m 281 1004 q 343 992 315 1001 q 397 972 371 983 q 448 951 422 961 q 501 936 474 940 q 547 946 538 931 q 556 997 556 961 l 644 997 q 625 848 660 899 q 531 801 590 797 q 445 820 483 806 q 374 851 407 835 q 308 871 342 867 q 265 860 274 875 q 256 807 256 844 l 167 807 q 171 921 157 876 q 215 986 185 965 q 281 1004 246 1007 z "},"ü":{"ha":824,"x_min":79,"x_max":739,"o":"m 285 686 l 285 235 q 303 174 285 192 q 364 156 322 156 q 449 172 407 156 q 554 222 492 188 l 571 110 q 424 13 496 44 q 275 -19 351 -19 q 79 172 79 -19 l 79 686 l 285 686 m 739 686 l 739 0 l 576 0 l 553 135 l 533 154 l 533 686 l 739 686 m 571 986 q 615 942 615 986 l 615 860 q 571 815 615 815 l 503 815 q 460 860 460 815 l 460 942 q 503 986 460 986 l 571 986 m 317 986 q 360 942 360 986 l 360 860 q 317 815 360 815 l 249 815 q 206 860 206 815 l 206 942 q 249 986 206 986 l 317 986 z "},"ū":{"ha":824,"x_min":79,"x_max":739,"o":"m 285 686 l 285 235 q 303 174 285 192 q 364 156 322 156 q 449 172 407 156 q 554 222 492 188 l 571 110 q 424 13 496 44 q 275 -19 351 -19 q 79 172 79 -19 l 79 686 l 285 686 m 739 686 l 739 0 l 576 0 l 553 135 l 533 154 l 533 686 l 739 686 m 619 965 l 619 835 l 203 835 l 203 965 l 619 965 z "},"ŭ":{"ha":824,"x_min":79,"x_max":739,"o":"m 285 686 l 285 235 q 303 174 285 192 q 364 156 322 156 q 449 172 407 156 q 554 222 492 188 l 571 110 q 424 13 496 44 q 275 -19 351 -19 q 79 172 79 -19 l 79 686 l 285 686 m 739 686 l 739 0 l 576 0 l 553 135 l 533 154 l 533 686 l 739 686 m 539 1008 l 638 994 q 619 889 646 938 q 540 812 593 840 q 410 783 488 783 q 281 812 335 783 q 200 889 226 840 q 181 994 174 938 l 279 1008 q 311 939 279 963 q 411 915 343 915 q 508 939 476 915 q 539 1008 539 963 z "},"ů":{"ha":824,"x_min":79,"x_max":739,"o":"m 285 686 l 285 235 q 303 174 285 192 q 364 156 322 156 q 449 172 407 156 q 554 222 492 188 l 571 110 q 424 13 496 44 q 275 -19 351 -19 q 79 172 79 -19 l 79 686 l 285 686 m 739 686 l 739 0 l 576 0 l 553 135 l 533 154 l 533 686 l 739 686 m 411 1069 q 493 1048 456 1069 q 553 990 531 1026 q 575 910 575 954 q 553 828 575 865 q 493 770 531 792 q 411 749 456 749 q 328 770 367 749 q 268 828 290 792 q 246 910 246 864 q 268 990 246 954 q 328 1048 290 1026 q 411 1069 367 1069 m 410 982 q 360 962 381 982 q 339 908 339 942 q 360 856 339 876 q 410 836 381 836 q 462 856 442 836 q 482 908 482 876 q 462 962 482 942 q 410 982 442 982 z "},"ű":{"ha":824,"x_min":79,"x_max":739,"o":"m 285 686 l 285 235 q 303 174 285 192 q 364 156 322 156 q 449 172 407 156 q 554 222 492 188 l 571 110 q 424 13 496 44 q 275 -19 351 -19 q 79 172 79 -19 l 79 686 l 285 686 m 739 686 l 739 0 l 576 0 l 553 135 l 533 154 l 533 686 l 739 686 m 335 1074 l 468 985 l 257 751 l 172 818 l 335 1074 m 599 1074 l 731 985 l 519 751 l 436 817 l 599 1074 z "},"ų":{"ha":824,"x_min":79,"x_max":760,"o":"m 285 686 l 285 235 q 303 174 285 192 q 364 156 322 156 q 449 172 407 156 q 554 222 492 188 l 571 110 q 424 13 496 44 q 275 -19 351 -19 q 79 172 79 -19 l 79 686 l 285 686 m 739 686 l 739 0 l 576 0 l 553 135 l 533 154 l 533 686 l 739 686 m 658 3 l 742 0 q 697 -65 718 -32 q 657 -139 675 -99 q 665 -194 638 -183 q 744 -193 693 -206 l 760 -267 q 633 -298 685 -297 q 552 -278 582 -299 q 515 -224 522 -257 q 519 -154 507 -190 q 564 -79 531 -119 q 658 3 597 -39 z "},"ẁ":{"ha":1181,"x_min":22,"x_max":1158,"o":"m 1158 686 l 989 54 q 964 15 983 29 q 918 0 944 0 l 763 0 q 714 17 735 0 q 689 63 693 35 l 614 449 q 607 506 610 478 q 599 564 604 535 l 582 564 q 574 506 578 535 q 565 449 569 478 l 490 63 q 465 17 486 35 q 417 0 444 0 l 263 0 q 217 15 236 0 q 192 54 197 29 l 22 686 l 229 686 l 324 242 q 333 185 329 214 q 340 129 338 157 l 358 129 q 367 185 363 157 q 376 242 372 214 l 451 624 q 475 669 456 651 q 524 686 494 686 l 657 686 q 705 669 685 686 q 729 622 725 651 l 803 242 q 813 186 807 214 q 822 129 818 158 l 839 129 q 848 185 844 158 q 857 242 851 213 l 951 686 l 1158 686 m 419 1057 l 701 851 l 642 764 l 331 919 l 419 1057 z "},"ẃ":{"ha":1181,"x_min":22,"x_max":1158,"o":"m 1158 686 l 989 54 q 964 15 983 29 q 918 0 944 0 l 763 0 q 714 17 735 0 q 689 63 693 35 l 614 449 q 607 506 610 478 q 599 564 604 535 l 582 564 q 574 506 578 535 q 565 449 569 478 l 490 63 q 465 17 486 35 q 417 0 444 0 l 263 0 q 217 15 236 0 q 192 54 197 29 l 22 686 l 229 686 l 324 242 q 333 185 329 214 q 340 129 338 157 l 358 129 q 367 185 363 157 q 376 242 372 214 l 451 624 q 475 669 456 651 q 524 686 494 686 l 657 686 q 705 669 685 686 q 729 622 725 651 l 803 242 q 813 186 807 214 q 822 129 818 158 l 839 129 q 848 185 844 158 q 857 242 851 213 l 951 686 l 1158 686 m 753 1049 l 842 910 l 532 756 l 471 843 l 753 1049 z "},"ŵ":{"ha":1181,"x_min":22,"x_max":1158,"o":"m 1158 686 l 989 54 q 964 15 983 29 q 918 0 944 0 l 763 0 q 714 17 735 0 q 689 63 693 35 l 614 449 q 607 506 610 478 q 599 564 604 535 l 582 564 q 574 506 578 535 q 565 449 569 478 l 490 63 q 465 17 486 35 q 417 0 444 0 l 263 0 q 217 15 236 0 q 192 54 197 29 l 22 686 l 229 686 l 324 242 q 333 185 329 214 q 340 129 338 157 l 358 129 q 367 185 363 157 q 376 242 372 214 l 451 624 q 475 669 456 651 q 524 686 494 686 l 657 686 q 705 669 685 686 q 729 622 725 651 l 803 242 q 813 186 807 214 q 822 129 818 158 l 839 129 q 848 185 844 158 q 857 242 851 213 l 951 686 l 1158 686 m 667 1013 l 853 826 l 799 753 l 599 885 l 588 885 l 383 753 l 329 832 l 518 1013 l 667 1013 z "},"ẅ":{"ha":1181,"x_min":22,"x_max":1158,"o":"m 1158 686 l 989 54 q 964 15 983 29 q 918 0 944 0 l 763 0 q 714 17 735 0 q 689 63 693 35 l 614 449 q 607 506 610 478 q 599 564 604 535 l 582 564 q 574 506 578 535 q 565 449 569 478 l 490 63 q 465 17 486 35 q 417 0 444 0 l 263 0 q 217 15 236 0 q 192 54 197 29 l 22 686 l 229 686 l 324 242 q 333 185 329 214 q 340 129 338 157 l 358 129 q 367 185 363 157 q 376 242 372 214 l 451 624 q 475 669 456 651 q 524 686 494 686 l 657 686 q 705 669 685 686 q 729 622 725 651 l 803 242 q 813 186 807 214 q 822 129 818 158 l 839 129 q 848 185 844 158 q 857 242 851 213 l 951 686 l 1158 686 m 751 976 q 796 932 796 976 l 796 850 q 751 806 796 806 l 683 806 q 640 850 640 806 l 640 932 q 683 976 640 976 l 751 976 m 497 976 q 540 932 540 976 l 540 850 q 497 806 540 806 l 429 806 q 386 850 386 806 l 386 932 q 429 976 386 976 l 497 976 z "},"ỳ":{"ha":786,"x_min":10,"x_max":774,"o":"m 774 686 l 528 -8 q 481 -112 511 -60 q 406 -206 451 -164 q 298 -269 361 -247 q 149 -279 235 -290 l 133 -162 q 265 -103 218 -140 q 339 -4 313 -65 l 382 92 q 406 166 394 122 q 426 242 418 210 l 554 686 l 774 686 m 229 686 l 360 242 q 371 189 365 215 q 381 136 376 163 l 418 136 l 353 0 l 303 0 q 261 14 279 0 q 236 50 243 28 l 10 686 l 229 686 m 225 1064 l 507 858 l 447 771 l 136 926 l 225 1064 z "},"ý":{"ha":786,"x_min":10,"x_max":774,"o":"m 774 686 l 528 -8 q 481 -112 511 -60 q 406 -206 451 -164 q 298 -269 361 -247 q 149 -279 235 -290 l 133 -162 q 265 -103 218 -140 q 339 -4 313 -65 l 382 92 q 406 166 394 122 q 426 242 418 210 l 554 686 l 774 686 m 229 686 l 360 242 q 371 189 365 215 q 381 136 376 163 l 418 136 l 353 0 l 303 0 q 261 14 279 0 q 236 50 243 28 l 10 686 l 229 686 m 560 1056 l 649 917 l 339 763 l 278 850 l 560 1056 z "},"ŷ":{"ha":786,"x_min":10,"x_max":774,"o":"m 774 686 l 528 -8 q 481 -112 511 -60 q 406 -206 451 -164 q 298 -269 361 -247 q 149 -279 235 -290 l 133 -162 q 265 -103 218 -140 q 339 -4 313 -65 l 382 92 q 406 166 394 122 q 426 242 418 210 l 554 686 l 774 686 m 229 686 l 360 242 q 371 189 365 215 q 381 136 376 163 l 418 136 l 353 0 l 303 0 q 261 14 279 0 q 236 50 243 28 l 10 686 l 229 686 m 474 1019 l 660 833 l 606 760 l 406 892 l 394 892 l 190 760 l 136 839 l 325 1019 l 474 1019 z "},"ÿ":{"ha":786,"x_min":10,"x_max":774,"o":"m 774 686 l 528 -8 q 481 -112 511 -60 q 406 -206 451 -164 q 298 -269 361 -247 q 149 -279 235 -290 l 133 -162 q 265 -103 218 -140 q 339 -4 313 -65 l 382 92 q 406 166 394 122 q 426 242 418 210 l 554 686 l 774 686 m 229 686 l 360 242 q 371 189 365 215 q 381 136 376 163 l 418 136 l 353 0 l 303 0 q 261 14 279 0 q 236 50 243 28 l 10 686 l 229 686 m 557 985 q 601 940 601 985 l 601 858 q 557 814 601 814 l 489 814 q 446 858 446 814 l 446 940 q 489 985 446 985 l 557 985 m 303 985 q 346 940 346 985 l 346 858 q 303 814 346 814 l 235 814 q 192 858 192 814 l 192 940 q 235 985 192 985 l 303 985 z "},"ź":{"ha":731,"x_min":54,"x_max":676,"o":"m 433 544 l 669 543 l 290 140 l 54 142 l 433 544 m 676 142 l 676 0 l 54 0 l 54 142 l 676 142 m 669 686 l 669 543 l 60 543 l 60 686 l 669 686 m 533 1056 l 622 917 l 313 763 l 251 850 l 533 1056 z "},"ż":{"ha":731,"x_min":54,"x_max":676,"o":"m 433 544 l 669 543 l 290 140 l 54 142 l 433 544 m 676 142 l 676 0 l 54 0 l 54 142 l 676 142 m 669 686 l 669 543 l 60 543 l 60 686 l 669 686 m 406 989 q 464 932 464 989 l 464 860 q 406 801 464 801 l 342 801 q 283 860 283 801 l 283 932 q 342 989 283 989 l 406 989 z "},"ž":{"ha":731,"x_min":54,"x_max":676,"o":"m 433 544 l 669 543 l 290 140 l 54 142 l 433 544 m 676 142 l 676 0 l 54 0 l 54 142 l 676 142 m 669 686 l 669 543 l 60 543 l 60 686 l 669 686 m 574 1040 l 628 961 l 415 782 l 331 782 l 117 961 l 172 1040 l 368 928 l 379 928 l 574 1040 z "},"ǽ":{"ha":1221,"x_min":50,"x_max":1172,"o":"m 849 704 q 1097 645 1022 704 q 1172 469 1171 586 q 1151 364 1172 406 q 1081 302 1129 322 q 949 282 1032 282 l 579 282 l 579 397 l 893 397 q 957 417 942 397 q 972 474 972 436 q 945 540 972 521 q 856 560 918 560 q 765 544 797 560 q 721 486 733 529 q 708 361 708 443 q 724 228 708 275 q 776 164 739 182 q 879 146 813 146 q 995 149 926 146 q 1135 161 1064 153 l 1154 35 q 1064 4 1114 15 q 960 -12 1014 -7 q 856 -17 907 -17 q 648 22 726 -17 q 535 139 569 60 q 500 342 500 218 q 535 556 500 476 q 647 669 569 635 q 849 704 724 704 m 624 419 l 622 306 l 321 306 q 269 288 285 306 q 253 239 253 269 l 253 206 q 272 152 253 171 q 332 133 292 133 q 410 149 368 133 q 494 192 453 164 q 568 258 536 221 l 575 164 q 538 112 563 142 q 475 53 513 82 q 386 3 438 24 q 268 -17 335 -17 q 157 6 207 -17 q 78 71 107 28 q 50 178 50 114 l 50 249 q 105 374 50 328 q 256 419 160 419 l 624 419 m 442 704 q 587 681 528 704 q 676 603 646 658 q 707 453 707 549 l 707 322 l 500 322 l 500 454 q 477 525 500 503 q 393 547 454 547 q 262 544 340 547 q 101 535 183 540 l 83 671 q 196 688 132 681 q 325 699 260 694 q 442 704 390 704 m 801 1069 l 890 932 l 579 776 l 519 864 l 801 1069 z "},"ǿ":{"ha":819,"x_min":56,"x_max":763,"o":"m 585 804 l 644 775 l 229 -117 l 171 -89 l 585 804 m 410 704 q 617 669 539 704 q 728 554 694 633 q 763 342 763 475 q 728 132 763 211 q 617 18 694 53 q 410 -17 539 -17 q 203 18 282 -17 q 90 132 125 53 q 56 342 56 211 q 90 554 56 475 q 203 669 125 633 q 410 704 282 704 m 410 554 q 326 536 357 554 q 283 472 296 518 q 271 342 271 426 q 283 213 271 258 q 326 149 296 167 q 410 132 357 132 q 493 149 463 132 q 536 213 524 167 q 549 342 549 258 q 536 472 549 426 q 493 536 524 518 q 410 554 463 554 m 571 1065 l 660 928 l 349 772 l 289 860 l 571 1065 z "},"ǻ":{"ha":792,"x_min":50,"x_max":714,"o":"m 481 1340 l 567 1204 l 274 1069 l 217 1154 l 481 1340 m 446 704 q 592 681 532 704 q 683 603 651 658 q 714 453 714 549 l 714 0 l 550 0 l 521 149 l 507 169 l 507 454 q 484 525 507 503 q 397 547 461 547 q 265 544 344 547 q 103 535 186 540 l 83 671 q 199 688 133 681 q 329 699 264 694 q 446 704 394 704 m 629 422 l 628 307 l 322 306 q 269 288 285 306 q 253 239 253 269 l 253 206 q 272 152 253 171 q 335 133 292 133 q 413 149 371 133 q 497 192 456 164 q 571 257 539 219 l 571 168 q 534 116 558 147 q 472 55 510 85 q 385 4 435 25 q 271 -17 335 -17 q 158 6 208 -17 q 79 71 108 28 q 50 178 50 114 l 50 249 q 106 376 50 331 q 258 422 161 422 l 629 422 m 400 1064 q 482 1042 444 1064 q 542 985 519 1021 q 564 904 564 949 q 542 823 564 860 q 483 765 519 786 q 400 744 446 744 q 318 765 356 744 q 258 822 281 786 q 236 904 236 858 q 258 985 236 949 q 318 1042 281 1021 q 400 1064 356 1064 m 400 978 q 350 957 371 978 q 329 904 329 936 q 350 851 329 871 q 400 831 371 831 q 451 851 431 831 q 472 904 472 871 q 451 957 472 936 q 400 978 431 978 z "},"ə":{"ha":783,"x_min":47,"x_max":728,"o":"m 375 -17 q 125 42 200 -17 q 49 218 50 101 q 97 359 47 313 q 265 406 146 406 l 649 406 l 649 290 l 321 290 q 262 271 275 290 q 249 214 249 251 q 276 147 249 165 q 368 128 304 128 q 456 143 425 128 q 500 202 488 158 q 513 326 513 246 q 497 459 513 413 q 446 524 482 506 q 344 542 410 542 q 228 538 297 542 q 86 525 158 533 l 67 653 q 158 683 107 672 q 263 699 208 694 q 368 704 318 704 q 579 667 500 704 q 693 550 658 629 q 728 346 728 471 q 692 133 728 213 q 580 18 657 53 q 375 -17 503 -17 z "},"ĸ":{"ha":776,"x_min":83,"x_max":771,"o":"m 747 686 l 567 425 q 535 387 554 406 q 503 360 515 368 l 503 356 q 534 326 515 349 q 567 282 553 303 l 771 0 l 542 0 l 307 353 l 518 686 l 747 686 m 289 686 l 290 536 q 285 442 290 489 q 268 351 279 396 q 283 264 278 310 q 289 181 289 218 l 289 0 l 83 0 l 83 686 l 289 686 m 385 410 l 385 285 l 225 285 l 225 410 l 385 410 z "},"@":{"ha":1056,"x_min":79,"x_max":976,"o":"m 733 835 q 913 784 850 835 q 976 604 976 733 l 976 188 l 825 188 l 808 283 q 749 231 786 257 q 665 190 713 206 q 563 174 618 174 q 462 193 507 174 q 390 251 417 213 q 364 344 364 289 l 364 411 q 411 524 364 483 q 546 565 458 565 l 788 565 l 788 603 q 767 667 788 647 q 693 686 747 686 l 522 686 q 387 679 438 686 q 310 644 336 672 q 276 551 285 615 q 268 372 268 486 q 274 217 268 278 q 298 124 281 157 q 350 76 315 90 q 441 58 385 61 q 581 56 497 56 l 975 56 l 975 -78 q 779 -91 878 -86 q 582 -96 681 -96 q 356 -86 446 -96 q 209 -49 265 -76 q 125 29 153 -22 q 88 165 97 81 q 79 372 79 249 q 87 576 79 494 q 119 710 94 658 q 193 788 144 761 q 322 825 242 815 q 522 835 403 835 l 733 835 m 788 468 l 615 461 q 564 445 581 460 q 547 403 547 431 l 547 375 q 566 326 547 342 q 619 310 585 310 q 676 317 646 310 q 735 338 707 325 q 788 371 764 351 l 788 468 z "},"®":{"ha":726,"x_min":54,"x_max":672,"o":"m 364 976 q 519 935 450 976 q 631 824 589 893 q 672 668 672 754 q 631 512 672 582 q 519 400 589 442 q 364 358 450 358 q 208 400 278 358 q 96 512 138 442 q 54 668 54 582 q 96 824 54 754 q 208 935 138 893 q 364 976 278 976 m 313 833 l 313 510 l 225 510 l 225 833 l 313 833 m 364 917 q 240 883 296 917 q 149 792 183 849 q 115 668 115 736 q 149 543 115 600 q 240 453 183 486 q 364 419 296 419 q 488 453 432 419 q 576 543 543 486 q 610 668 610 600 q 576 792 610 736 q 488 883 543 849 q 364 917 432 917 m 374 838 q 483 817 449 838 q 517 742 517 797 q 500 690 517 711 q 442 663 483 668 l 442 661 q 474 649 457 660 q 497 611 490 639 l 529 510 l 438 510 l 411 607 q 395 628 404 624 q 369 633 386 633 q 282 633 311 633 q 232 635 253 633 l 233 689 l 369 689 q 417 699 404 690 q 428 732 429 708 q 417 767 429 758 q 369 775 404 775 q 284 775 321 775 q 235 772 247 775 l 225 833 q 291 837 261 836 q 374 838 321 838 z "},"©":{"ha":1124,"x_min":60,"x_max":1064,"o":"m 563 978 q 758 941 667 978 q 917 838 849 904 q 1025 679 986 771 q 1064 479 1064 588 q 1025 279 1064 371 q 917 121 986 188 q 758 17 849 54 q 563 -19 667 -19 q 365 17 457 -19 q 206 122 274 54 q 99 280 138 189 q 60 479 60 371 q 99 679 60 588 q 206 838 138 771 q 365 941 274 904 q 563 978 457 978 m 568 769 q 675 765 635 769 q 758 749 715 760 l 744 640 q 663 641 700 640 q 567 642 626 642 q 499 628 524 642 q 465 579 474 614 q 456 481 456 544 q 465 383 456 418 q 499 335 474 349 q 567 321 524 321 q 674 322 631 321 q 760 326 717 322 l 771 218 q 681 199 726 206 q 568 193 636 193 q 410 221 469 193 q 324 312 350 249 q 297 481 297 375 q 324 651 297 588 q 410 742 350 714 q 568 769 469 769 m 561 878 q 408 848 479 878 q 281 765 336 818 q 195 639 226 711 q 164 479 164 567 q 195 320 164 393 q 281 194 226 247 q 408 110 336 140 q 561 81 481 81 q 717 110 644 81 q 843 194 789 140 q 928 320 897 247 q 960 479 960 393 q 928 638 960 565 q 843 765 897 711 q 717 848 789 818 q 561 878 644 878 z "},"™":{"ha":1361,"x_min":76,"x_max":1279,"o":"m 1210 967 q 1261 915 1257 967 l 1279 439 l 1149 439 l 1129 860 l 1117 860 l 1038 561 q 982 517 1029 517 l 897 517 q 842 561 850 517 l 763 860 l 749 860 l 732 439 l 601 439 l 621 915 q 671 967 624 967 l 803 967 q 839 956 825 967 q 857 922 853 944 l 921 685 q 928 646 925 665 q 935 607 931 626 l 944 607 q 953 647 950 626 q 960 685 956 667 l 1019 922 q 1074 967 1028 967 l 1210 967 m 385 967 l 385 439 l 242 439 l 242 967 l 385 967 m 550 967 l 550 857 l 76 857 l 76 967 l 550 967 z "},"+":{"ha":746,"x_min":57,"x_max":689,"o":"m 689 494 l 689 342 l 57 342 l 57 494 l 689 494 m 449 726 l 449 110 l 297 110 l 296 726 l 449 726 z "},"−":{"ha":803,"x_min":82,"x_max":721,"o":"m 721 481 l 721 335 l 82 335 l 82 481 l 721 481 z "},"×":{"ha":688,"x_min":44,"x_max":649,"o":"m 551 689 l 44 236 l 142 121 l 649 572 l 551 689 m 142 689 l 44 572 l 551 121 l 649 236 l 142 689 z "},"÷":{"ha":768,"x_min":64,"x_max":703,"o":"m 703 481 l 703 335 l 64 335 l 64 481 l 703 481 m 407 244 q 467 228 450 244 q 483 168 483 211 l 483 122 q 467 64 483 81 q 407 47 450 47 l 357 47 q 298 64 314 47 q 282 122 282 81 l 282 168 q 298 228 282 211 q 357 244 314 244 l 407 244 m 407 765 q 467 749 450 765 q 483 690 483 732 l 483 643 q 467 585 483 601 q 407 568 450 568 l 357 568 q 298 585 314 568 q 282 643 282 601 l 282 690 q 298 749 282 732 q 357 765 314 765 l 407 765 z "},"=":{"ha":803,"x_min":82,"x_max":721,"o":"m 721 635 l 721 489 l 82 489 l 82 635 l 721 635 m 721 338 l 721 192 l 82 192 l 82 338 l 721 338 z "},"<":{"ha":718,"x_min":54,"x_max":639,"o":"m 639 728 l 639 567 l 229 418 l 639 271 l 639 110 l 54 338 l 54 497 l 639 728 z "},">":{"ha":717,"x_min":79,"x_max":661,"o":"m 79 728 l 661 497 l 661 338 l 79 110 l 79 271 l 488 418 l 79 567 l 79 728 z "},"$":{"ha":806,"x_min":61,"x_max":754,"o":"m 410 976 q 563 969 481 976 q 722 938 644 961 l 708 797 q 567 800 649 799 q 408 801 486 801 q 344 799 371 801 q 301 788 318 797 q 278 761 285 779 q 271 711 271 743 q 294 640 271 663 q 374 600 317 618 l 553 540 q 710 435 665 501 q 754 260 754 368 q 735 124 754 178 q 675 39 717 69 q 567 -5 633 8 q 403 -18 500 -18 q 269 -12 356 -18 q 72 19 183 -6 l 85 171 q 225 167 165 169 q 328 165 285 165 q 401 165 371 165 q 487 172 456 165 q 531 199 518 179 q 543 257 543 218 q 534 310 543 290 q 505 342 525 331 q 450 364 485 354 l 260 431 q 106 536 151 471 q 61 708 61 601 q 81 844 61 792 q 142 925 100 896 q 251 965 185 954 q 410 976 318 976 m 364 497 l 432 496 l 374 -164 l 306 -164 l 364 497 m 513 1103 l 453 496 l 383 497 l 443 1103 l 513 1103 z "},"¢":{"ha":729,"x_min":54,"x_max":671,"o":"m 404 844 q 485 840 440 844 q 576 827 531 836 q 660 801 622 818 l 638 678 q 530 683 581 682 q 439 683 479 683 q 330 667 369 683 q 274 606 290 650 q 257 483 257 563 q 274 360 257 404 q 330 299 290 317 q 439 282 369 282 q 496 283 461 282 q 572 286 531 283 q 651 294 613 289 l 671 171 q 543 134 614 144 q 403 124 472 124 q 199 158 275 124 q 88 272 122 193 q 54 483 54 351 q 88 695 54 617 q 199 809 122 774 q 404 844 276 844 m 433 214 l 410 0 l 340 0 l 364 214 l 433 214 m 488 726 l 436 213 l 365 213 l 418 726 l 488 726 m 517 958 l 490 725 l 421 725 l 446 958 l 517 958 z "},"£":{"ha":814,"x_min":63,"x_max":760,"o":"m 442 976 q 517 975 471 976 q 617 971 563 974 q 728 963 672 968 l 718 806 q 676 806 694 806 q 633 808 657 807 q 569 808 608 808 q 467 808 531 808 q 382 786 406 808 q 361 707 358 764 l 388 394 q 380 288 392 331 q 344 215 368 244 q 286 160 319 186 q 339 167 313 167 q 392 168 365 168 l 760 168 l 760 0 l 69 0 l 69 168 q 162 263 142 204 q 176 394 182 321 l 154 715 q 165 847 149 796 q 218 926 182 899 q 310 965 254 954 q 442 976 367 976 m 639 560 l 635 450 l 65 450 l 63 560 l 639 560 z "},"¥":{"ha":922,"x_min":38,"x_max":885,"o":"m 885 958 l 561 319 l 361 319 l 38 958 l 256 958 l 417 617 q 439 557 431 589 q 456 496 447 525 l 469 496 q 487 558 478 525 q 507 617 496 590 l 665 958 l 885 958 m 568 449 l 568 0 l 356 0 l 356 449 l 568 449 m 793 304 l 793 199 l 135 199 l 132 304 l 793 304 m 793 474 l 793 367 l 135 367 l 132 474 l 793 474 z "},"ƒ":{"ha":664,"x_min":-50,"x_max":646,"o":"m 468 975 q 522 974 489 975 q 589 969 554 972 q 646 961 624 967 l 617 829 l 525 829 q 457 810 478 829 q 432 736 436 790 l 364 -15 q 333 -126 358 -79 q 258 -200 307 -174 q 128 -226 208 -226 q 74 -225 107 -226 q 8 -220 42 -224 q -50 -212 -26 -217 l -21 -79 l 68 -79 q 134 -58 114 -79 q 158 13 154 -37 l 226 763 q 260 874 233 826 q 338 949 286 922 q 468 975 389 975 m 581 561 l 568 426 l 65 426 l 75 556 l 217 561 l 581 561 z "},"₡":{"ha":818,"x_min":64,"x_max":781,"o":"m 471 975 q 588 972 539 975 q 677 961 636 968 q 761 942 718 954 l 743 786 q 659 790 699 789 q 576 792 619 792 q 471 793 532 793 q 360 765 400 793 q 304 669 321 738 q 288 479 288 600 q 304 290 288 358 q 360 193 321 221 q 471 165 400 165 q 633 168 567 165 q 763 178 700 171 l 781 22 q 644 -8 715 1 q 471 -17 574 -17 q 233 31 322 -17 q 103 188 143 79 q 64 479 64 296 q 103 771 64 663 q 233 927 143 879 q 471 975 322 975 m 296 -187 l 699 1117 l 768 1117 l 365 -187 l 296 -187 m 157 -187 l 560 1117 l 629 1117 l 226 -187 l 157 -187 z "},"₤":{"ha":814,"x_min":63,"x_max":760,"o":"m 442 976 q 517 975 471 976 q 617 971 563 974 q 728 963 672 968 l 718 806 q 676 806 694 806 q 633 808 657 807 q 569 808 608 808 q 467 808 531 808 q 382 786 406 808 q 361 707 358 764 l 388 394 q 380 288 392 331 q 344 215 368 244 q 286 160 319 186 q 339 167 313 167 q 392 168 365 168 l 760 168 l 760 0 l 69 0 l 69 168 q 162 263 142 204 q 176 394 182 321 l 154 715 q 165 847 149 796 q 218 926 182 899 q 310 965 254 954 q 442 976 367 976 m 639 626 l 635 525 l 65 525 l 63 626 l 639 626 m 639 432 l 635 331 l 65 331 l 63 432 l 639 432 z "},"₦":{"ha":1074,"x_min":28,"x_max":1046,"o":"m 939 958 l 939 76 q 864 0 939 0 l 746 0 q 694 16 713 0 q 660 64 676 32 l 396 567 q 363 638 379 599 q 336 713 346 676 l 319 713 q 327 637 325 675 q 329 561 329 599 l 329 0 l 129 0 l 129 882 q 206 958 129 958 l 321 958 q 373 942 356 958 q 407 894 390 926 l 664 407 q 699 336 681 375 q 732 256 717 297 l 750 256 q 743 337 746 297 q 740 415 740 376 l 740 958 l 939 958 m 1046 660 l 1039 558 l 31 558 l 28 660 l 1046 660 m 1046 422 l 1039 322 l 31 322 l 28 422 l 1046 422 z "},"₩":{"ha":1432,"x_min":29,"x_max":1403,"o":"m 1360 958 l 1203 58 q 1177 17 1199 33 q 1128 0 1156 0 l 929 0 q 879 17 900 0 q 854 60 858 33 l 746 683 q 738 747 742 715 q 731 808 735 778 l 704 808 q 697 746 701 778 q 688 683 693 714 l 582 60 q 556 17 578 33 q 506 0 535 0 l 307 0 q 258 17 279 0 q 232 58 236 33 l 75 958 l 289 958 l 389 292 q 396 226 393 261 q 400 153 399 192 l 428 153 q 438 223 432 186 q 449 292 443 260 l 556 893 q 580 940 560 922 q 631 958 600 958 l 804 958 q 855 940 835 958 q 879 893 875 922 l 986 290 q 997 222 992 257 q 1007 153 1001 186 l 1035 153 q 1040 222 1036 186 q 1047 289 1043 258 l 1146 958 l 1360 958 m 1403 644 l 1396 542 l 31 542 l 29 644 l 1403 644 m 1403 443 l 1396 342 l 31 342 l 29 443 l 1403 443 z "},"₫":{"ha":824,"x_min":58,"x_max":829,"o":"m 756 -92 l 756 -201 l 93 -201 l 93 -92 l 756 -92 m 829 871 l 829 778 l 358 778 l 358 871 l 829 871 m 318 704 q 458 683 390 704 q 576 615 525 663 l 563 521 q 478 546 515 535 q 390 557 440 557 q 321 542 347 557 q 282 482 294 526 q 269 350 269 438 q 281 226 269 268 q 319 167 293 183 q 385 151 344 151 q 447 159 421 151 q 500 183 474 167 q 560 222 526 199 l 575 121 q 467 23 533 63 q 303 -17 400 -17 q 115 78 171 -17 q 58 349 58 172 q 87 563 58 486 q 174 672 115 640 q 318 704 232 704 m 744 972 l 744 0 l 582 0 l 561 126 l 539 142 l 539 592 l 547 610 q 541 697 543 653 q 539 786 539 740 l 539 972 l 744 972 z "},"€":{"ha":892,"x_min":56,"x_max":839,"o":"m 574 975 q 712 966 654 975 q 818 942 769 957 l 799 792 q 755 797 783 794 q 692 802 726 800 q 623 803 658 804 q 558 800 588 803 q 451 758 492 793 q 393 655 411 724 q 375 475 375 586 q 415 240 375 315 q 558 158 456 165 q 640 156 594 156 q 734 161 686 157 q 821 172 782 165 l 839 22 q 725 -6 789 6 q 574 -17 661 -17 q 324 38 417 -17 q 192 202 232 92 q 153 479 153 313 q 192 757 153 647 q 324 921 232 867 q 574 975 417 975 m 663 449 l 650 338 l 56 338 l 56 449 l 663 449 m 701 632 l 690 522 l 56 522 l 56 632 l 701 632 z "},"₱":{"ha":958,"x_min":19,"x_max":939,"o":"m 486 972 q 697 944 619 972 q 806 849 774 917 q 839 658 839 781 q 808 468 839 536 q 705 373 776 400 q 514 346 633 346 q 388 351 450 346 q 274 365 326 357 q 184 383 221 374 q 132 400 147 392 l 136 524 l 483 524 q 568 535 538 524 q 612 577 599 547 q 625 661 625 607 q 612 744 625 715 q 568 783 599 772 q 483 794 538 794 l 138 794 l 118 958 q 227 968 176 965 q 339 972 278 971 q 486 972 400 972 m 331 958 l 331 0 l 118 0 l 118 958 l 331 958 m 939 800 l 933 714 l 21 714 l 19 800 l 939 800 m 939 601 l 933 514 l 21 514 l 19 601 l 939 601 z "},"₲":{"ha":900,"x_min":65,"x_max":828,"o":"m 492 978 q 606 974 554 978 q 703 963 657 969 q 794 942 750 956 l 778 788 q 678 792 729 790 q 577 794 628 793 q 475 794 526 794 q 362 768 403 794 q 305 673 321 742 q 289 476 289 604 q 304 289 289 357 q 356 192 319 221 q 453 164 392 164 q 535 172 494 164 q 610 195 575 181 q 668 224 644 210 l 690 124 q 625 61 671 94 q 517 4 579 28 q 379 -19 454 -19 q 200 31 269 -19 q 98 192 131 82 q 65 481 65 303 q 106 776 65 668 q 241 931 147 885 q 492 978 335 978 m 643 553 l 828 553 l 828 0 l 693 0 l 663 146 l 643 185 l 643 553 m 510 1103 l 579 1103 l 460 -165 l 390 -165 l 510 1103 z "},"₵":{"ha":817,"x_min":64,"x_max":779,"o":"m 471 975 q 587 972 539 975 q 675 961 635 968 q 758 942 715 954 l 742 786 q 658 790 696 789 q 576 792 619 792 q 471 793 532 793 q 360 765 400 793 q 304 669 321 738 q 288 479 288 600 q 304 290 288 358 q 360 193 321 221 q 471 165 400 165 q 632 168 567 165 q 761 178 697 171 l 779 22 q 643 -8 713 1 q 471 -17 574 -17 q 233 31 322 -17 q 103 188 143 79 q 64 479 64 296 q 103 771 64 663 q 233 927 143 879 q 471 975 322 975 m 404 -164 l 522 1103 l 592 1103 l 472 -164 l 404 -164 z "},"₼":{"ha":875,"x_min":74,"x_max":800,"o":"m 74 0 l 74 457 q 117 669 74 585 q 243 794 161 753 q 438 835 325 835 q 631 794 550 835 q 756 669 713 753 q 800 457 800 585 l 800 0 l 599 0 l 599 368 q 588 519 599 456 q 544 617 578 583 q 438 651 510 651 q 331 617 365 651 q 286 519 296 583 q 276 368 276 456 l 276 0 l 74 0 m 485 971 l 485 144 l 390 144 l 390 971 l 485 971 z "},"₽":{"ha":821,"x_min":21,"x_max":779,"o":"m 433 972 q 640 944 565 972 q 747 847 715 915 q 779 658 779 778 q 749 471 779 539 q 649 374 718 403 q 461 346 579 346 q 369 347 414 346 q 280 349 324 347 q 194 352 236 350 q 108 358 151 354 q 21 365 65 361 l 24 506 q 118 506 65 506 q 228 506 171 506 q 338 506 285 506 q 429 506 390 506 q 512 519 482 506 q 553 567 542 533 q 565 658 565 601 q 553 751 565 717 q 512 799 542 785 q 429 813 482 813 q 292 812 347 813 q 201 810 238 811 q 143 806 165 808 l 124 958 q 198 965 167 963 q 260 969 229 968 q 331 972 290 971 q 433 972 372 972 m 335 958 l 335 0 l 124 0 l 124 958 l 335 958 m 622 238 l 615 139 l 22 139 l 21 238 l 622 238 z "},"#":{"ha":990,"x_min":46,"x_max":944,"o":"m 482 958 l 315 0 l 160 0 l 326 958 l 482 958 m 831 958 l 664 0 l 508 0 l 675 958 l 831 958 m 944 715 l 919 592 l 104 592 l 128 715 l 944 715 m 886 397 l 861 274 l 46 274 l 69 397 l 886 397 z "},"§":{"ha":771,"x_min":65,"x_max":706,"o":"m 238 499 q 242 409 235 443 q 274 351 250 375 q 343 301 297 326 l 564 181 q 631 136 599 161 q 684 69 663 111 q 706 -43 706 26 q 669 -174 706 -129 q 563 -235 632 -219 q 394 -250 493 -250 q 303 -247 358 -249 q 189 -242 249 -246 q 79 -233 129 -237 l 93 -87 q 168 -90 133 -89 q 242 -92 203 -92 q 335 -93 281 -93 q 416 -90 383 -93 q 466 -74 449 -86 q 485 -36 483 -62 q 466 21 489 0 q 411 58 443 42 l 218 158 q 107 245 142 197 q 71 356 72 293 q 93 499 69 418 l 238 499 m 378 978 q 469 976 414 978 q 585 970 525 974 q 692 961 644 967 l 678 815 q 609 819 642 818 q 537 819 576 819 q 438 819 497 819 q 356 817 389 821 q 305 803 322 814 q 286 765 288 792 q 305 708 282 729 q 361 671 328 688 l 554 571 q 666 483 632 532 q 701 373 700 435 q 678 231 701 311 l 533 231 q 528 319 536 285 q 497 378 521 353 q 428 428 474 403 l 207 550 q 141 594 174 569 q 87 661 108 619 q 65 772 65 703 q 101 900 65 856 q 206 961 136 944 q 378 978 276 978 z "},"¤":{"ha":811,"x_min":67,"x_max":742,"o":"m 404 654 q 324 632 361 654 q 265 572 288 610 q 243 490 243 535 q 265 407 243 444 q 324 348 288 369 q 404 326 361 326 q 485 348 449 326 q 544 407 522 369 q 567 490 567 444 q 544 572 567 535 q 485 632 522 610 q 404 654 449 654 m 158 822 l 276 703 l 192 618 l 72 736 l 158 822 m 656 822 l 742 736 l 626 621 l 540 707 l 656 822 m 194 375 l 286 282 l 158 154 l 67 247 l 194 375 m 615 364 l 742 239 l 656 154 l 531 278 l 615 364 m 404 771 q 547 733 483 771 q 648 631 610 694 q 686 489 686 567 q 648 347 686 411 q 546 245 610 283 q 406 207 482 207 q 264 245 328 207 q 162 347 200 283 q 124 489 124 411 q 162 631 124 567 q 264 733 200 694 q 404 771 328 771 z "},"¶":{"ha":843,"x_min":42,"x_max":726,"o":"m 489 975 q 605 970 538 975 q 726 951 672 965 l 718 833 q 638 844 683 840 q 549 849 593 847 q 472 850 506 850 l 378 278 q 119 372 197 292 q 42 625 42 453 q 86 831 42 754 q 229 941 131 907 q 489 975 328 975 m 499 951 l 499 -292 l 364 -292 l 364 951 l 499 951 m 726 951 l 726 0 l 593 0 l 593 951 l 726 951 z "},"%":{"ha":1261,"x_min":47,"x_max":1213,"o":"m 285 978 q 426 951 374 978 q 501 861 479 924 q 524 692 524 799 q 501 524 524 586 q 426 433 479 461 q 285 406 374 406 q 145 433 197 406 q 70 524 93 461 q 47 692 47 586 q 70 861 47 799 q 145 951 93 924 q 285 978 197 978 m 285 864 q 233 850 251 864 q 208 799 215 836 q 200 692 200 763 q 208 584 200 621 q 233 533 215 547 q 285 519 251 519 q 338 533 319 519 q 363 584 356 547 q 371 692 371 621 q 363 799 371 763 q 338 850 356 836 q 285 864 319 864 m 981 958 l 407 0 l 278 0 l 851 958 l 981 958 m 975 554 q 1116 527 1064 554 q 1190 438 1168 500 q 1213 269 1213 376 q 1190 101 1213 164 q 1116 10 1168 38 q 975 -17 1064 -17 q 835 10 888 -17 q 760 101 783 38 q 738 269 738 164 q 760 438 738 376 q 835 527 783 500 q 975 554 888 554 m 974 440 q 922 427 940 440 q 896 377 903 414 q 889 269 889 340 q 896 161 889 199 q 922 110 903 124 q 974 97 940 97 q 1026 110 1008 97 q 1053 161 1044 124 q 1061 269 1061 199 q 1053 377 1061 340 q 1026 427 1044 414 q 974 440 1008 440 z "},"‰":{"ha":1800,"x_min":47,"x_max":1750,"o":"m 285 978 q 426 951 374 978 q 501 861 479 924 q 524 692 524 799 q 501 524 524 586 q 426 433 479 461 q 285 406 374 406 q 145 433 197 406 q 70 524 93 461 q 47 692 47 586 q 70 861 47 799 q 145 951 93 924 q 285 978 197 978 m 285 864 q 233 851 251 864 q 208 800 215 838 q 200 692 200 763 q 208 583 200 621 q 233 533 215 546 q 285 519 251 519 q 338 533 319 519 q 363 583 356 546 q 371 692 371 621 q 363 800 371 763 q 338 851 356 838 q 285 864 319 864 m 981 958 l 407 0 l 278 0 l 851 958 l 981 958 m 975 554 q 1116 527 1064 554 q 1190 438 1168 500 q 1213 269 1213 376 q 1190 101 1213 164 q 1116 10 1168 38 q 975 -17 1064 -17 q 835 10 888 -17 q 760 101 783 38 q 738 269 738 164 q 760 438 738 376 q 835 527 783 500 q 975 554 888 554 m 974 440 q 922 427 940 440 q 896 377 903 414 q 889 269 889 340 q 896 161 889 199 q 922 110 903 124 q 974 97 940 97 q 1026 110 1008 97 q 1053 161 1044 124 q 1061 269 1061 199 q 1053 377 1061 340 q 1026 427 1044 414 q 974 440 1008 440 m 1511 554 q 1653 527 1600 554 q 1728 438 1706 500 q 1750 269 1750 376 q 1728 101 1750 164 q 1653 10 1706 38 q 1511 -17 1600 -17 q 1372 10 1424 -17 q 1297 101 1319 38 q 1275 269 1275 164 q 1297 438 1275 376 q 1372 527 1319 500 q 1511 554 1424 554 m 1511 440 q 1460 427 1478 440 q 1434 377 1442 414 q 1426 269 1426 340 q 1434 161 1426 199 q 1460 110 1442 124 q 1511 97 1478 97 q 1565 110 1546 97 q 1590 161 1583 124 q 1597 269 1597 199 q 1590 377 1597 340 q 1565 427 1583 414 q 1511 440 1546 440 z "},"°":{"ha":478,"x_min":50,"x_max":428,"o":"m 239 978 q 333 953 290 978 q 402 885 376 928 q 428 793 428 843 q 402 699 428 742 q 333 631 376 656 q 239 606 290 606 q 144 631 188 606 q 76 699 101 656 q 50 793 50 742 q 76 885 50 843 q 144 952 101 926 q 239 978 188 978 m 240 878 q 179 854 204 878 q 154 792 154 831 q 166 748 154 768 q 197 717 178 728 q 240 706 217 706 q 281 717 263 706 q 312 748 300 728 q 324 792 324 768 q 299 854 324 831 q 240 878 275 878 z "},"′":{"ha":294,"x_min":72,"x_max":222,"o":"m 222 958 l 210 650 l 85 650 l 72 958 l 222 958 z "},"″":{"ha":518,"x_min":72,"x_max":446,"o":"m 446 958 l 433 650 l 310 650 l 297 958 l 446 958 m 222 958 l 210 650 l 85 650 l 72 958 l 222 958 z "},"ª":{"ha":607,"x_min":65,"x_max":529,"o":"m 344 854 q 481 817 433 854 q 529 681 529 781 l 529 382 l 408 382 l 388 482 l 379 497 l 379 682 q 364 726 379 711 q 311 740 349 740 q 215 738 269 740 q 103 732 160 736 l 89 833 q 167 844 122 839 q 258 851 211 849 q 344 854 306 854 m 468 664 l 467 599 l 263 582 q 223 570 235 581 q 211 542 211 560 l 211 524 q 225 490 211 501 q 267 479 239 479 q 324 491 294 479 q 380 522 353 503 q 425 560 407 540 l 425 503 q 399 465 417 488 q 356 421 382 443 q 294 385 331 399 q 214 371 258 371 q 108 403 151 371 q 65 497 65 435 l 65 547 q 103 633 65 601 q 207 664 140 664 l 468 664 z "},"º":{"ha":610,"x_min":60,"x_max":551,"o":"m 306 854 q 496 799 440 854 q 551 610 551 744 q 527 470 551 524 q 449 394 503 417 q 306 371 396 371 q 115 424 169 371 q 60 610 60 478 q 115 799 60 744 q 306 854 169 854 m 306 746 q 235 719 254 746 q 217 611 217 693 q 235 504 217 531 q 306 478 254 478 q 375 504 357 478 q 393 611 393 531 q 375 719 393 693 q 306 746 357 746 z "},"⁄":{"ha":222,"x_min":-242,"x_max":463,"o":"m 463 958 l -111 0 l -242 0 l 332 958 l 463 958 z "},"½":{"ha":1271,"x_min":39,"x_max":1217,"o":"m 918 958 l 339 0 l 208 0 l 788 958 l 918 958 m 349 958 l 349 383 l 190 383 l 190 763 q 192 796 190 779 q 197 831 193 813 l 57 801 l 39 901 l 190 958 l 349 958 m 967 585 q 1096 574 1044 585 q 1172 531 1147 563 q 1197 436 1197 499 q 1172 357 1197 400 q 1097 267 1147 314 l 949 128 q 992 135 972 133 q 1035 135 1011 136 l 1217 132 l 1215 0 l 754 0 l 754 82 q 759 117 754 101 q 776 146 764 132 l 915 276 q 992 357 964 322 q 1026 417 1021 392 q 1010 448 1029 442 q 951 454 990 454 q 866 453 906 454 q 765 450 826 453 l 760 567 q 881 582 828 579 q 967 585 933 585 z "},"¼":{"ha":1256,"x_min":39,"x_max":1210,"o":"m 922 958 l 343 0 l 214 0 l 792 958 l 922 958 m 349 958 l 349 383 l 190 383 l 190 763 q 192 796 190 779 q 197 831 193 813 l 57 801 l 39 901 l 190 958 l 349 958 m 985 575 l 843 250 q 844 233 839 239 q 861 228 849 228 l 1210 228 l 1210 133 l 1139 119 l 744 119 q 686 146 707 119 q 683 210 665 172 l 843 575 l 985 575 m 1144 463 l 1144 0 l 999 0 l 999 374 l 1025 463 l 1144 463 z "},"¾":{"ha":1369,"x_min":60,"x_max":1325,"o":"m 1046 958 l 467 0 l 336 0 l 914 958 l 1046 958 m 278 967 q 445 938 399 967 q 492 832 492 910 q 471 733 492 771 q 385 686 450 696 l 385 683 q 481 640 456 674 q 507 539 506 606 q 459 408 510 447 q 282 368 408 368 q 169 373 226 368 q 60 383 113 378 l 65 497 q 133 495 104 496 q 186 494 161 494 q 239 493 211 493 q 324 507 303 493 q 346 561 346 521 q 340 597 346 583 q 315 619 333 611 q 260 626 297 626 l 140 628 l 140 725 l 260 728 q 313 736 296 728 q 333 758 329 744 q 338 790 338 772 q 320 832 338 822 q 250 842 303 842 q 157 842 201 843 q 78 840 113 842 l 72 950 q 176 963 125 958 q 278 967 226 967 m 1100 575 l 958 250 q 960 233 954 239 q 978 228 965 228 l 1325 228 l 1325 133 l 1254 119 l 860 119 q 801 146 822 119 q 799 210 781 172 l 957 575 l 1100 575 m 1258 463 l 1258 0 l 1113 0 l 1113 374 l 1138 463 l 1258 463 z "},"≤":{"ha":778,"x_min":74,"x_max":685,"o":"m 682 781 l 682 619 l 265 524 l 682 432 l 682 271 l 89 444 l 89 604 l 682 781 m 685 225 l 685 71 l 74 71 l 74 225 l 685 225 z "},"≥":{"ha":778,"x_min":93,"x_max":704,"o":"m 97 781 l 689 604 l 689 444 l 97 271 l 97 432 l 514 524 l 97 619 l 97 781 m 704 225 l 704 71 l 93 71 l 93 225 l 704 225 z "},"≠":{"ha":853,"x_min":111,"x_max":750,"o":"m 610 785 l 658 760 l 210 19 l 163 44 l 610 785 m 750 635 l 750 489 l 111 489 l 111 635 l 750 635 m 750 338 l 750 192 l 111 192 l 111 338 l 750 338 z "},"^":{"ha":642,"x_min":42,"x_max":600,"o":"m 396 871 l 600 558 l 519 514 l 328 743 l 317 743 l 122 514 l 42 558 l 247 871 l 396 871 z "},"~":{"ha":711,"x_min":74,"x_max":644,"o":"m 197 503 q 267 492 228 503 q 348 469 307 482 q 425 446 389 457 q 485 432 461 435 q 528 443 519 428 q 536 496 536 458 l 628 496 q 610 344 644 394 q 515 296 575 294 q 442 307 482 297 q 362 329 403 317 q 285 353 321 342 q 226 367 250 364 q 184 356 192 372 q 176 301 176 340 l 85 301 q 88 417 74 372 q 131 483 101 463 q 197 503 160 504 z "},"±":{"ha":796,"x_min":82,"x_max":714,"o":"m 714 594 l 714 443 l 82 443 l 82 594 l 714 594 m 714 214 l 714 61 l 82 61 l 82 214 l 714 214 m 474 763 l 474 276 l 322 276 l 322 763 l 474 763 z "},"∞":{"ha":1135,"x_min":49,"x_max":1086,"o":"m 550 497 q 641 584 599 546 q 735 644 683 622 q 857 665 786 665 q 1031 604 975 665 q 1086 432 1086 543 q 1028 255 1086 318 q 844 192 969 192 q 691 220 756 192 q 577 299 626 249 q 486 408 528 349 q 441 465 464 440 q 389 503 418 489 q 318 517 360 517 q 251 492 271 517 q 231 425 231 468 q 322 332 231 332 q 370 338 347 332 q 415 355 393 343 q 460 383 438 367 l 556 439 l 585 360 q 494 273 538 311 q 401 213 451 235 q 278 192 350 192 q 105 253 161 192 q 49 425 49 314 q 107 602 49 539 q 292 665 165 665 q 445 636 381 665 q 559 558 510 607 q 650 446 608 508 q 694 393 671 417 q 747 355 717 369 q 818 340 776 340 q 885 365 864 340 q 906 432 906 389 q 814 525 906 525 q 767 519 790 525 q 721 503 743 514 q 675 474 699 492 l 579 418 l 550 497 z "},"μ":{"ha":868,"x_min":83,"x_max":851,"o":"m 289 686 l 289 257 q 310 178 289 197 q 371 158 331 158 q 434 175 404 158 q 488 224 464 192 q 527 301 513 256 q 543 401 542 346 l 547 129 q 492 56 528 89 q 412 2 457 22 q 315 -18 367 -18 q 199 1 250 -18 q 117 65 147 21 q 86 182 86 110 l 86 686 l 289 686 m 83 686 l 289 686 l 289 -97 l 263 -261 l 83 -261 l 83 686 m 747 686 l 747 188 q 754 137 747 154 q 786 119 761 119 l 843 119 l 851 14 q 774 -7 818 3 q 686 -17 729 -17 q 587 13 626 -17 q 547 110 547 43 l 547 129 l 543 151 l 543 686 l 747 686 z "},"∂":{"ha":824,"x_min":53,"x_max":769,"o":"m 163 978 q 442 963 325 982 q 633 888 560 943 q 738 730 706 832 q 761 469 769 628 q 730 247 756 339 q 658 96 704 154 q 543 10 613 38 q 379 -17 474 -17 q 214 15 279 -17 q 113 97 149 46 q 65 208 78 147 q 56 329 53 268 q 78 442 60 388 q 133 538 97 496 q 225 605 169 581 q 358 629 281 629 q 465 613 417 629 q 556 557 514 597 q 636 444 599 517 l 626 400 q 540 448 578 432 q 471 470 503 464 q 408 476 439 476 q 298 433 332 476 q 261 325 264 389 q 269 231 257 271 q 310 167 281 190 q 388 144 339 144 q 466 167 436 144 q 512 230 496 189 q 537 329 528 271 q 551 458 546 388 q 551 640 560 568 q 504 756 543 713 q 383 819 465 800 q 163 838 301 838 l 163 978 z "},"∑":{"ha":825,"x_min":56,"x_max":771,"o":"m 757 958 l 757 810 l 304 810 l 501 464 l 285 -40 l 771 -40 l 771 -189 l 56 -189 l 56 -40 l 272 464 l 72 810 l 72 958 l 757 958 z "},"∏":{"ha":993,"x_min":44,"x_max":950,"o":"m 829 954 l 829 -133 l 624 -133 l 624 954 l 829 954 m 369 954 l 369 -133 l 165 -133 l 165 954 l 369 954 m 950 958 l 950 807 l 44 807 l 44 958 l 950 958 z "},"π":{"ha":901,"x_min":28,"x_max":874,"o":"m 343 686 l 343 0 l 138 0 l 138 686 l 343 686 m 874 686 l 874 543 l 28 543 l 28 686 l 874 686 m 764 686 l 764 0 l 558 0 l 558 686 l 764 686 z "},"∫":{"ha":501,"x_min":39,"x_max":464,"o":"m 296 992 q 368 992 322 992 q 464 986 414 992 l 451 839 l 364 839 q 319 824 333 839 q 307 767 306 810 l 375 -124 q 343 -263 382 -218 q 196 -308 304 -308 q 167 -308 188 -308 q 119 -308 146 -308 q 71 -306 93 -307 q 39 -303 49 -304 l 50 -156 l 133 -156 q 182 -138 168 -156 q 193 -78 196 -121 l 128 807 q 169 945 122 899 q 296 992 215 992 z "},"Ω":{"ha":1000,"x_min":61,"x_max":939,"o":"m 501 978 q 743 929 651 978 q 876 783 835 881 q 917 538 917 685 q 897 375 917 443 q 833 253 876 307 q 721 149 790 200 q 772 163 749 158 q 818 167 794 167 l 938 167 l 939 0 l 551 0 l 551 157 q 638 250 607 201 q 682 361 668 299 q 696 510 696 424 q 677 690 696 624 q 615 783 658 756 q 500 811 572 811 q 383 783 425 811 q 322 688 340 754 q 304 507 304 622 q 319 351 304 413 q 365 247 333 290 q 447 157 396 203 l 447 0 l 61 0 l 61 167 l 181 167 q 228 163 206 167 q 278 149 251 160 q 165 258 208 203 q 103 381 122 313 q 83 540 83 449 q 124 783 83 686 q 257 929 165 881 q 501 978 349 978 z "},"¬":{"ha":806,"x_min":79,"x_max":719,"o":"m 719 494 l 719 349 l 79 349 l 79 494 l 719 494 m 719 481 l 719 188 l 565 188 l 565 472 l 719 481 z "},"√":{"ha":803,"x_min":25,"x_max":789,"o":"m 789 1217 l 478 11 q 460 0 474 0 l 217 0 q 199 11 201 0 l 25 686 l 192 686 l 329 132 l 347 132 l 621 1217 l 789 1217 z "},"≈":{"ha":807,"x_min":74,"x_max":739,"o":"m 249 372 q 315 360 276 371 q 394 338 353 350 q 474 315 436 325 q 542 301 513 304 q 582 314 575 299 q 589 364 589 329 l 717 364 q 697 208 739 261 q 557 160 656 156 q 488 170 526 160 q 409 193 450 181 q 330 217 368 206 q 263 229 292 228 q 223 217 231 231 q 215 165 215 203 l 88 165 q 91 287 74 240 q 150 355 108 333 q 249 372 192 376 m 249 646 q 315 634 276 644 q 394 611 353 624 q 474 589 436 599 q 542 576 513 579 q 582 588 575 574 q 589 639 589 601 l 717 639 q 697 483 739 536 q 557 433 656 431 q 488 444 526 435 q 409 467 450 454 q 330 491 368 481 q 263 503 292 501 q 223 491 231 506 q 215 439 215 476 l 88 439 q 91 561 74 514 q 150 629 108 608 q 249 646 192 650 z "},"Δ":{"ha":924,"x_min":29,"x_max":894,"o":"m 567 958 l 894 74 l 894 0 l 29 0 l 29 74 l 357 958 l 567 958 m 463 756 q 449 694 456 725 q 432 631 442 663 l 267 156 l 656 156 l 492 632 q 476 694 482 663 q 463 756 469 725 z "},"◊":{"ha":796,"x_min":32,"x_max":765,"o":"m 413 958 l 757 494 q 757 467 765 481 l 413 0 q 386 0 399 -17 l 40 467 q 40 494 32 481 l 386 958 q 413 958 399 975 m 399 758 l 201 481 l 399 200 l 596 481 l 399 758 z "},"´":{"ha":490,"x_min":61,"x_max":432,"o":"m 343 1026 l 432 888 l 122 733 l 61 821 l 343 1026 z "},"˘":{"ha":546,"x_min":38,"x_max":510,"o":"m 403 983 l 501 969 q 483 864 510 913 q 404 787 457 815 q 274 758 351 758 q 144 787 199 758 q 64 864 90 815 q 44 969 38 913 l 143 983 q 175 914 143 938 q 275 890 207 890 q 372 914 340 890 q 403 983 403 938 z "},"ˇ":{"ha":624,"x_min":57,"x_max":568,"o":"m 514 1026 l 568 947 l 356 768 l 271 768 l 57 947 l 113 1026 l 308 914 l 319 914 l 514 1026 z "},"¸":{"ha":346,"x_min":33,"x_max":314,"o":"m 113 -53 q 228 -48 183 -44 q 293 -73 272 -51 q 313 -143 314 -94 q 272 -258 310 -212 q 172 -321 235 -303 q 33 -329 110 -339 l 57 -243 q 144 -226 108 -244 q 182 -161 179 -207 q 167 -136 185 -140 q 93 -131 150 -132 l 113 -53 z "},"ˆ":{"ha":624,"x_min":50,"x_max":574,"o":"m 388 1013 l 574 826 l 519 753 l 319 885 l 308 885 l 104 753 l 50 832 l 239 1013 l 388 1013 z "},"¨":{"ha":589,"x_min":90,"x_max":500,"o":"m 456 982 q 500 938 500 982 l 500 856 q 456 811 500 811 l 388 811 q 344 856 344 811 l 344 938 q 388 982 344 982 l 456 982 m 201 982 q 244 938 244 982 l 244 856 q 201 811 244 811 l 133 811 q 90 856 90 811 l 90 938 q 133 982 90 982 l 201 982 z "},"˙":{"ha":328,"x_min":74,"x_max":254,"o":"m 196 979 q 254 922 254 979 l 254 850 q 196 792 254 792 l 132 792 q 74 850 74 792 l 74 922 q 132 979 74 979 l 196 979 z "},"`":{"ha":492,"x_min":53,"x_max":424,"o":"m 142 1035 l 424 829 l 364 742 l 53 897 l 142 1035 z "},"˝":{"ha":696,"x_min":61,"x_max":619,"o":"m 224 1040 l 357 951 l 146 718 l 61 785 l 224 1040 m 488 1040 l 619 951 l 408 718 l 325 783 l 488 1040 z "},"¯":{"ha":556,"x_min":69,"x_max":486,"o":"m 486 963 l 486 832 l 69 832 l 69 963 l 486 963 z "},"˛":{"ha":349,"x_min":44,"x_max":297,"o":"m 196 3 l 279 0 q 234 -65 256 -32 q 194 -139 213 -99 q 203 -194 175 -183 q 282 -193 231 -206 l 297 -267 q 171 -298 222 -297 q 90 -278 119 -299 q 52 -224 60 -257 q 57 -154 44 -190 q 101 -79 68 -119 q 196 3 135 -39 z "},"˚":{"ha":429,"x_min":50,"x_max":379,"o":"m 215 1063 q 297 1041 260 1063 q 357 983 335 1019 q 379 903 379 947 q 357 822 379 858 q 297 763 335 785 q 215 742 260 742 q 133 763 171 742 q 72 821 94 785 q 50 903 50 857 q 72 983 50 947 q 133 1041 94 1019 q 215 1063 171 1063 m 214 975 q 164 955 185 975 q 143 901 143 935 q 164 849 143 869 q 214 829 185 829 q 266 849 246 829 q 286 901 286 869 q 266 955 286 935 q 214 975 246 975 z "},"˜":{"ha":611,"x_min":57,"x_max":560,"o":"m 181 989 q 243 977 215 986 q 297 957 271 968 q 348 935 322 946 q 401 921 374 925 q 447 931 438 915 q 456 982 456 946 l 544 982 q 525 833 560 883 q 431 786 490 782 q 345 805 383 790 q 274 835 307 819 q 208 856 242 851 q 165 844 174 860 q 156 792 156 829 l 67 792 q 71 906 57 861 q 115 971 85 950 q 181 989 146 992 z "},"\r":{"ha":300,"x_min":0,"x_max":0,"o":""},"ﬁ":{"ha":926,"x_min":25,"x_max":839,"o":"m 369 1001 q 458 998 404 1001 q 554 986 513 994 l 554 854 l 443 854 q 370 832 390 854 q 350 754 350 810 l 350 0 l 143 0 l 143 781 q 165 897 143 847 q 237 974 188 947 q 369 1001 286 1001 m 639 686 l 639 551 l 25 551 l 25 679 l 147 686 l 639 686 m 836 686 l 836 0 l 632 0 l 632 686 l 836 686 m 778 996 q 839 935 839 996 l 839 860 q 778 797 839 797 l 690 797 q 629 860 629 797 l 629 935 q 690 996 629 996 l 778 996 z "},"ﬂ":{"ha":1001,"x_min":25,"x_max":994,"o":"m 367 1001 q 428 1001 388 1001 q 524 1000 469 1001 q 636 996 578 999 q 749 988 694 993 q 846 975 804 983 l 846 213 q 865 159 846 176 q 921 142 883 142 l 972 142 l 994 11 q 949 -3 979 3 q 888 -13 919 -10 q 835 -17 856 -17 q 693 31 744 -17 q 642 161 642 78 l 642 857 l 440 857 q 369 835 389 858 q 349 754 349 813 l 349 0 l 142 0 l 142 781 q 163 897 142 847 q 234 974 185 947 q 367 1001 283 1001 m 522 686 l 522 551 l 25 551 l 25 679 l 146 686 l 522 686 z "},"¹":{"ha":428,"x_min":25,"x_max":338,"o":"m 338 1071 l 338 500 l 179 500 l 179 875 q 181 908 179 892 q 185 943 182 925 l 43 913 l 25 1014 l 179 1071 l 338 1071 z "},"²":{"ha":588,"x_min":65,"x_max":528,"o":"m 279 1079 q 407 1068 356 1079 q 483 1024 458 1057 q 508 931 508 992 q 483 851 508 894 q 408 761 458 808 l 261 626 q 303 633 285 632 q 346 633 322 635 l 528 631 l 526 500 l 65 500 l 65 579 q 70 615 65 599 q 88 643 75 631 l 226 774 q 283 828 260 804 q 319 873 306 853 q 336 910 333 893 q 320 942 340 935 q 264 949 300 949 q 178 947 219 949 q 76 943 138 946 l 71 1061 q 192 1076 138 1074 q 279 1079 247 1079 z "},"³":{"ha":568,"x_min":61,"x_max":510,"o":"m 279 1082 q 444 1053 397 1082 q 492 949 492 1025 q 471 850 492 886 q 388 804 450 814 l 388 801 q 481 758 456 792 q 508 658 507 724 q 458 527 510 567 q 283 488 407 488 q 169 492 226 488 q 61 504 113 497 l 67 618 q 133 615 106 615 q 187 613 161 614 q 240 613 213 613 q 325 626 304 613 q 346 679 346 640 q 340 713 346 699 q 315 734 333 726 q 260 742 297 742 l 140 743 l 140 843 l 260 847 q 313 856 296 847 q 334 877 329 864 q 338 907 339 890 q 321 947 338 938 q 251 957 304 957 q 158 956 204 957 q 78 954 113 956 l 72 1064 q 177 1077 125 1072 q 279 1082 229 1082 z "}," ":{"ha":300,"x_min":0,"x_max":0,"o":""},"℮":{"ha":854,"x_min":97,"x_max":757,"o":"m 592 347 l 592 544 q 568 612 592 589 q 508 643 544 635 q 431 651 471 651 q 349 643 389 651 q 283 612 310 635 q 257 544 257 589 l 257 122 q 285 57 257 81 q 355 24 313 33 q 439 15 397 15 q 575 49 517 15 q 692 151 633 83 l 711 136 q 578 18 650 53 q 431 -17 506 -17 q 262 23 338 -17 q 142 141 186 63 q 97 333 97 219 q 142 526 97 449 q 262 644 186 604 q 431 683 338 683 q 591 647 517 683 q 711 535 665 610 q 757 347 757 461 l 592 347 m 575 360 l 757 360 l 757 328 l 219 328 l 219 353 q 260 355 229 354 q 335 356 292 356 q 426 358 379 357 q 512 359 472 358 q 575 360 551 360 z "},"Ắ":{"ha":907,"x_min":0,"x_max":906,"o":"m 554 958 q 601 943 581 958 q 628 903 621 928 l 906 0 l 689 0 l 493 704 q 482 752 488 728 q 472 799 476 776 l 435 799 q 426 752 431 776 q 414 704 421 728 l 218 0 l 0 0 l 279 903 q 306 943 286 928 q 353 958 326 958 l 554 958 m 701 413 l 701 253 l 204 253 l 204 413 l 701 413 m 583 1251 l 682 1238 q 664 1132 690 1181 q 585 1055 638 1083 q 454 1026 532 1026 q 325 1055 379 1026 q 244 1132 271 1083 q 225 1238 218 1181 l 324 1251 q 356 1182 324 1206 q 456 1158 388 1158 q 552 1182 521 1158 q 583 1251 583 1206 m 579 1490 l 661 1364 l 425 1249 l 368 1328 l 579 1490 z "},"Ặ":{"ha":907,"x_min":0,"x_max":906,"o":"m 583 1250 l 682 1236 q 664 1131 689 1179 q 585 1053 639 1082 q 454 1025 532 1025 q 324 1053 378 1025 q 244 1131 271 1082 q 225 1236 218 1179 l 324 1250 q 356 1181 324 1204 q 454 1157 388 1157 q 551 1181 519 1157 q 583 1250 583 1204 m 554 958 q 601 943 581 958 q 628 903 621 928 l 906 0 l 689 0 l 493 704 q 482 752 488 728 q 472 799 476 776 l 435 799 q 426 752 431 776 q 414 704 421 728 l 218 0 l 0 0 l 279 903 q 306 943 286 928 q 353 958 326 958 l 554 958 m 701 413 l 701 253 l 204 253 l 204 413 l 701 413 m 488 -68 q 547 -126 547 -68 l 547 -197 q 488 -256 547 -256 l 424 -256 q 365 -197 365 -256 l 365 -126 q 424 -68 365 -68 l 488 -68 z "},"Ằ":{"ha":907,"x_min":0,"x_max":906,"o":"m 554 958 q 601 943 581 958 q 628 903 621 928 l 906 0 l 689 0 l 493 704 q 482 752 488 728 q 472 799 476 776 l 435 799 q 426 752 431 776 q 414 704 421 728 l 218 0 l 0 0 l 279 903 q 306 943 286 928 q 353 958 326 958 l 554 958 m 701 413 l 701 253 l 204 253 l 204 413 l 701 413 m 326 1251 q 358 1182 326 1206 q 456 1158 390 1158 q 554 1182 522 1158 q 586 1251 586 1206 l 685 1238 q 665 1132 692 1181 q 585 1055 639 1083 q 456 1026 532 1026 q 325 1055 379 1026 q 246 1132 271 1083 q 228 1238 221 1181 l 326 1251 m 331 1490 l 542 1328 l 486 1249 l 247 1364 l 331 1490 z "},"Ẳ":{"ha":907,"x_min":0,"x_max":906,"o":"m 554 958 q 601 943 581 958 q 628 903 621 928 l 906 0 l 689 0 l 493 704 q 482 752 488 728 q 472 799 476 776 l 435 799 q 426 752 431 776 q 414 704 421 728 l 218 0 l 0 0 l 279 903 q 306 943 286 928 q 353 958 326 958 l 554 958 m 701 413 l 701 253 l 204 253 l 204 413 l 701 413 m 583 1251 l 682 1238 q 664 1132 690 1181 q 585 1055 638 1083 q 454 1026 532 1026 q 325 1055 379 1026 q 244 1132 271 1083 q 225 1238 218 1181 l 324 1251 q 356 1182 324 1206 q 456 1158 388 1158 q 552 1182 521 1158 q 583 1251 583 1206 m 415 1321 q 461 1346 446 1331 q 476 1386 476 1361 q 452 1416 478 1413 q 392 1406 426 1419 l 372 1492 q 480 1507 432 1513 q 556 1472 528 1501 q 583 1388 583 1442 q 541 1290 583 1326 q 433 1242 499 1253 l 415 1321 z "},"Ẵ":{"ha":907,"x_min":0,"x_max":906,"o":"m 554 958 q 601 943 581 958 q 628 903 621 928 l 906 0 l 689 0 l 493 704 q 482 752 488 728 q 472 799 476 776 l 435 799 q 426 752 431 776 q 414 704 421 728 l 218 0 l 0 0 l 279 903 q 306 943 286 928 q 353 958 326 958 l 554 958 m 701 413 l 701 253 l 204 253 l 204 413 l 701 413 m 583 1251 l 682 1238 q 664 1132 690 1181 q 585 1055 638 1083 q 454 1026 532 1026 q 325 1055 379 1026 q 244 1132 271 1083 q 225 1238 218 1181 l 324 1251 q 356 1182 324 1206 q 454 1158 388 1158 q 551 1182 519 1158 q 583 1251 583 1206 m 340 1475 q 397 1464 372 1472 q 445 1444 422 1456 q 490 1424 468 1433 q 540 1410 513 1414 q 581 1419 572 1406 q 590 1468 590 1433 l 671 1468 q 653 1330 685 1378 q 565 1288 621 1282 q 506 1299 533 1290 q 456 1319 479 1308 q 410 1340 432 1331 q 367 1353 389 1350 q 325 1342 333 1357 q 317 1293 317 1328 l 235 1293 q 238 1398 225 1357 q 279 1458 251 1439 q 340 1475 307 1478 z "},"Ấ":{"ha":907,"x_min":0,"x_max":906,"o":"m 554 958 q 601 943 581 958 q 628 903 621 928 l 906 0 l 689 0 l 493 704 q 482 752 488 728 q 472 799 476 776 l 435 799 q 426 752 431 776 q 414 704 421 728 l 218 0 l 0 0 l 279 903 q 306 943 286 928 q 353 958 326 958 l 554 958 m 701 413 l 701 253 l 204 253 l 204 413 l 701 413 m 379 1251 l 528 1251 l 710 1089 l 656 1008 l 460 1126 l 449 1126 l 256 1008 l 201 1083 l 379 1251 m 788 1436 l 893 1328 l 679 1171 l 610 1239 l 788 1436 z "},"Ậ":{"ha":907,"x_min":0,"x_max":906,"o":"m 554 958 q 601 943 581 958 q 628 903 621 928 l 906 0 l 689 0 l 493 704 q 482 752 488 728 q 472 799 476 776 l 435 799 q 426 752 431 776 q 414 704 421 728 l 218 0 l 0 0 l 279 903 q 306 943 286 928 q 353 958 326 958 l 554 958 m 701 413 l 701 253 l 204 253 l 204 413 l 701 413 m 529 1257 l 715 1071 l 661 997 l 460 1129 l 449 1129 l 247 997 l 192 1076 l 381 1257 l 529 1257 m 488 -75 q 546 -132 546 -75 l 546 -204 q 488 -262 546 -262 l 424 -262 q 365 -204 365 -262 l 365 -132 q 424 -75 365 -75 l 488 -75 z "},"Ầ":{"ha":907,"x_min":0,"x_max":906,"o":"m 554 958 q 601 943 581 958 q 628 903 621 928 l 906 0 l 689 0 l 493 704 q 482 752 488 728 q 472 799 476 776 l 435 799 q 426 752 431 776 q 414 704 421 728 l 218 0 l 0 0 l 279 903 q 306 943 286 928 q 353 958 326 958 l 554 958 m 701 413 l 701 253 l 204 253 l 204 413 l 701 413 m 531 1251 l 708 1083 l 654 1008 l 463 1126 l 451 1126 l 254 1008 l 200 1089 l 382 1251 l 531 1251 m 122 1436 l 300 1239 l 231 1171 l 17 1328 l 122 1436 z "},"Ẩ":{"ha":907,"x_min":0,"x_max":906,"o":"m 554 958 q 601 943 581 958 q 628 903 621 928 l 906 0 l 689 0 l 493 704 q 482 752 488 728 q 472 799 476 776 l 435 799 q 426 752 431 776 q 414 704 421 728 l 218 0 l 0 0 l 279 903 q 306 943 286 928 q 353 958 326 958 l 554 958 m 701 413 l 701 253 l 204 253 l 204 413 l 701 413 m 379 1251 l 528 1251 l 710 1089 l 656 1008 l 460 1126 l 449 1126 l 256 1008 l 201 1083 l 379 1251 m 625 1275 q 672 1300 657 1285 q 688 1340 686 1315 q 662 1370 688 1367 q 601 1358 636 1374 l 582 1446 q 690 1461 642 1467 q 765 1425 738 1456 q 793 1342 793 1394 q 751 1244 793 1281 q 643 1196 708 1207 l 625 1275 z "},"Ẫ":{"ha":907,"x_min":0,"x_max":906,"o":"m 554 958 q 601 943 581 958 q 628 903 621 928 l 906 0 l 689 0 l 493 704 q 482 752 488 728 q 472 799 476 776 l 435 799 q 426 752 431 776 q 414 704 421 728 l 218 0 l 0 0 l 279 903 q 306 943 286 928 q 353 958 326 958 l 554 958 m 701 413 l 701 253 l 204 253 l 204 413 l 701 413 m 531 1251 l 708 1083 l 656 1008 l 463 1126 l 451 1126 l 256 1008 l 200 1089 l 382 1251 l 531 1251 m 343 1475 q 400 1464 375 1472 q 448 1444 425 1456 q 493 1424 471 1433 q 542 1411 515 1415 q 584 1419 575 1406 q 593 1468 593 1433 l 674 1468 q 656 1331 688 1378 q 568 1288 624 1283 q 509 1300 536 1290 q 458 1320 482 1310 q 413 1340 435 1331 q 368 1353 392 1350 q 328 1342 336 1357 q 319 1293 319 1328 l 239 1293 q 241 1398 228 1357 q 283 1458 254 1439 q 343 1475 311 1478 z "},"Ȁ":{"ha":907,"x_min":0,"x_max":906,"o":"m 554 958 q 601 943 581 958 q 628 903 621 928 l 906 0 l 689 0 l 493 704 q 482 752 488 728 q 472 799 476 776 l 435 799 q 426 752 431 776 q 414 704 421 728 l 218 0 l 0 0 l 279 903 q 306 943 286 928 q 353 958 326 958 l 554 958 m 701 413 l 701 253 l 204 253 l 204 413 l 701 413 m 514 1329 l 675 1074 l 592 1007 l 381 1240 l 514 1329 m 250 1329 l 411 1074 l 329 1007 l 117 1240 l 250 1329 z "},"Ạ":{"ha":907,"x_min":0,"x_max":906,"o":"m 554 958 q 601 943 581 958 q 628 903 621 928 l 906 0 l 689 0 l 493 704 q 482 752 488 728 q 472 799 476 776 l 435 799 q 426 752 431 776 q 414 704 421 728 l 218 0 l 0 0 l 279 903 q 306 943 286 928 q 353 958 326 958 l 554 958 m 701 413 l 701 253 l 204 253 l 204 413 l 701 413 m 488 -71 q 547 -129 547 -71 l 547 -200 q 488 -258 547 -258 l 424 -258 q 365 -200 365 -258 l 365 -129 q 424 -71 365 -71 l 488 -71 z "},"Ả":{"ha":907,"x_min":0,"x_max":906,"o":"m 554 958 q 601 943 581 958 q 628 903 621 928 l 906 0 l 689 0 l 493 704 q 482 752 488 728 q 472 799 476 776 l 435 799 q 426 752 431 776 q 414 704 421 728 l 218 0 l 0 0 l 279 903 q 306 943 286 928 q 353 958 326 958 l 554 958 m 701 413 l 701 253 l 204 253 l 204 413 l 701 413 m 432 1107 q 486 1137 469 1119 q 503 1186 503 1154 q 474 1231 503 1222 q 406 1224 444 1239 l 385 1324 q 506 1338 453 1347 q 592 1290 560 1328 q 624 1192 624 1253 q 602 1106 624 1142 q 542 1047 581 1069 q 454 1017 504 1025 l 432 1107 z "},"Ȃ":{"ha":907,"x_min":0,"x_max":906,"o":"m 554 958 q 601 943 581 958 q 628 903 621 928 l 906 0 l 689 0 l 493 704 q 482 752 488 728 q 472 799 476 776 l 435 799 q 426 752 431 776 q 414 704 421 728 l 218 0 l 0 0 l 279 903 q 306 943 286 928 q 353 958 326 958 l 554 958 m 701 413 l 701 253 l 204 253 l 204 413 l 701 413 m 324 1029 l 225 1043 q 244 1149 218 1101 q 324 1226 269 1197 q 453 1256 378 1256 q 584 1226 531 1256 q 664 1149 638 1197 q 682 1043 690 1101 l 583 1029 q 552 1099 583 1076 q 453 1122 521 1122 q 356 1099 388 1122 q 324 1029 324 1076 z "}}}
